<svg width="999" height="523" viewBox="0 0 999 523" fill="none" xmlns="http://www.w3.org/2000/svg">
<mask id="mask0_118_472" style="mask-type:alpha" maskUnits="userSpaceOnUse" x="0" y="0" width="999" height="523">
<path d="M0 0H997C998.105 0 999 0.89543 999 2V520.394C999 521.498 998.105 522.394 997 522.394H0V0Z" fill="#658E75"/>
</mask>
<g mask="url(#mask0_118_472)">
<path d="M1134.48 304.987C1139.26 305.242 1144.28 306.008 1149.68 307.283C1163.49 310.727 1178.81 317.615 1196.51 328.585C1228.91 348.484 1262.68 377.694 1289.93 401.292C1319.81 427.058 1343.29 447.467 1350.2 442.748L1350.32 442.875C1336.51 452.314 1306.13 425.91 1270.84 395.424C1228.4 358.688 1180.44 317.105 1148.17 326.289C1128.46 331.902 1114.52 346.443 1099.7 361.622C1084.01 377.949 1067.69 394.659 1043.58 400.654C998.753 411.624 946.143 393.639 907.847 380.5C855.739 362.642 810.035 348.994 768.098 338.662C718.125 326.417 672.421 318.636 628.349 314.809C617.927 313.916 607.632 313.278 597.461 312.768C507.685 308.814 424.439 322.462 343.703 354.096C313.945 365.704 275.398 391.087 234.465 417.747C191.9 445.554 143.81 477.06 98.3575 497.852C46.2498 521.705 5.19144 528.083 -27.2032 517.368C-40.136 513.159 -51.8131 506.015 -62.1091 496.321C-62.7369 495.811 -63.3647 495.301 -63.9925 494.79C-70.3961 489.688 -75.5441 483.693 -80.0643 476.295C-82.5755 472.213 -84.71 467.876 -86.4679 463.412C-90.2347 456.396 -93.7504 448.743 -96.8894 440.579C-104.8 420.043 -111.203 406.522 -117.732 396.827C-124.764 386.495 -132.172 380.118 -141.212 376.674C-159.795 369.531 -186.163 374.888 -225.84 382.796C-233.876 384.455 -242.038 386.24 -250.073 388.026C-271.544 392.746 -293.769 397.72 -313.858 398.996C-324.656 399.634 -333.948 399.123 -342.36 397.593C-351.778 395.807 -359.688 392.618 -366.594 387.771C-374.127 382.541 -380.405 375.526 -385.177 366.597C-390.325 357.158 -394.091 345.167 -396.352 331.264V331.009L-396.226 331.136C-351.526 354.734 -304.316 352.055 -258.737 349.504C-239.526 348.484 -219.813 347.336 -200.728 348.229C-179.508 349.249 -161.302 352.948 -145.23 359.326C-136.943 362.642 -130.037 366.852 -124.136 372.209C-118.863 377.056 -114.342 382.669 -110.575 389.429C-103.544 402.057 -99.7773 416.854 -96.136 431.14C-93.3737 441.855 -90.6114 452.952 -86.3423 463.284C-80.4409 474.254 -73.7862 483.821 -66.3781 491.602C-64.997 493.132 -63.4903 494.663 -61.9835 496.066C-55.3288 501.041 -47.544 504.995 -38.5037 507.929C-15.6516 515.455 7.32598 517.751 31.8103 515.072C53.5323 512.648 76.0077 506.143 100.241 495.428C145.443 475.402 190.268 443.003 233.712 411.624C262.716 390.705 292.725 369.02 322.232 351.545C355.38 331.901 384.51 319.401 411.506 313.533C449.676 305.242 486.717 300.65 524.51 299.502C558.537 298.482 592.564 300.395 628.726 305.242C696.277 314.299 760.188 332.157 827.99 351.162C874.071 364.046 921.784 377.439 972.511 388.409C1004.15 395.297 1051.99 405.629 1077.23 376.801C1085.64 367.235 1086.77 356.902 1087.78 346.826C1089.16 333.05 1090.54 320.166 1109.75 309.962C1116.78 306.263 1125.19 304.477 1134.48 304.987ZM1347.44 443.513C1343.67 443.385 1337.52 440.069 1328.73 433.691C1318.3 426.038 1305.12 414.558 1289.8 401.42C1262.56 377.949 1228.78 348.611 1196.39 328.84C1178.68 317.998 1163.36 310.982 1149.55 307.538C1133.98 303.712 1120.55 304.605 1109.62 310.345C1090.41 320.421 1089.16 333.432 1087.78 347.081C1086.77 357.158 1085.64 367.49 1077.23 377.184C1051.87 406.012 1003.9 395.679 972.26 388.791C921.533 377.822 873.82 364.428 827.739 351.545C759.937 332.539 696.026 314.681 628.475 305.625C592.313 300.778 558.161 298.864 524.259 299.885C486.34 300.905 449.425 305.497 411.255 313.916C384.385 319.784 355.255 332.157 322.107 351.8C292.6 369.403 262.591 390.96 233.586 411.879C190.142 443.258 145.317 475.657 100.115 495.683C75.7565 506.526 53.4067 512.903 31.5592 515.455C7.07484 518.261 -15.9028 515.837 -38.7548 508.311C-47.2929 505.505 -54.5754 501.934 -60.979 497.342C-51.0597 506.526 -39.7593 513.159 -27.3288 517.24C5.06588 527.955 46.1242 521.45 98.1063 497.724C143.559 476.933 191.775 445.426 234.214 417.619C275.147 390.832 313.82 365.576 343.452 353.969C433.353 318.763 526.519 305.88 628.223 314.681C672.421 318.508 718.125 326.289 768.098 338.534C810.035 348.866 855.739 362.515 907.847 380.373C946.143 393.511 998.753 411.496 1043.45 400.527C1067.43 394.659 1083.76 377.822 1099.45 361.622C1114.27 346.315 1128.33 331.774 1148.04 326.161C1180.44 316.85 1228.53 358.561 1270.97 395.297C1288.42 410.348 1304.87 424.635 1318.56 433.946C1332.87 443.513 1342.54 446.702 1348.82 443.641C1348.44 443.513 1347.94 443.513 1347.44 443.513ZM-316.872 351.035C-343.616 349.887 -370.361 345.04 -396.352 331.391C-391.957 358.433 -382.289 376.801 -366.719 387.516C-359.813 392.235 -351.903 395.424 -342.612 397.21C-334.325 398.868 -325.033 399.251 -314.235 398.613C-294.145 397.465 -272.046 392.491 -250.576 387.771C-242.54 385.985 -234.378 384.199 -226.342 382.541C-186.54 374.505 -160.298 369.275 -141.589 376.419C-132.549 379.863 -125.015 386.368 -117.984 396.7C-111.454 406.394 -104.925 419.915 -97.0149 440.452C-94.127 447.977 -90.988 455.121 -87.4723 461.626C-91.3647 451.804 -94.0015 441.472 -96.5127 431.268C-100.154 416.981 -103.921 402.057 -110.952 389.557C-114.719 382.796 -119.114 377.184 -124.513 372.464C-130.414 367.107 -137.32 362.898 -145.607 359.581C-161.679 353.203 -179.759 349.632 -200.979 348.484C-219.939 347.463 -239.777 348.611 -258.863 349.759C-277.948 350.78 -297.41 351.928 -316.872 351.035ZM-63.6158 495.046C-64.6203 494.025 -65.7503 493.005 -66.7548 491.857C-73.6607 484.458 -80.0643 475.53 -85.7145 465.197C-84.0822 469.024 -82.1988 472.723 -80.0643 476.295C-75.6696 483.566 -70.3961 489.561 -64.118 494.663C-63.9925 494.79 -63.8669 494.918 -63.6158 495.046Z" fill="white" fill-opacity="0.2"/>
<path d="M1099.95 269.654C1115.02 270.292 1133.73 276.414 1156.08 288.022C1188.22 304.732 1223.51 330.115 1254.65 352.693C1285.66 375.143 1312.53 394.404 1330.23 401.292V401.547C1296.96 395.679 1264.56 371.444 1233.3 347.846C1214.97 334.07 1195.88 319.783 1177.05 309.579C1166.88 304.094 1157.59 300.14 1148.67 297.589C1138.63 294.655 1129.21 293.507 1119.92 294.145C1092.8 295.675 1074.09 307.411 1057.89 321.442C1058.52 329.733 1058.14 338.407 1052.74 347.718C1047.34 357.03 1040.94 363.79 1033.28 368.382C1026.5 372.464 1018.72 374.76 1009.8 375.398C1002.39 375.908 994.735 375.143 986.824 373.867C981.425 375.398 976.026 376.418 970.251 376.801C958.825 377.694 946.771 376.546 933.21 373.357C884.618 361.877 835.273 345.422 787.685 329.478C763.327 321.314 738.089 312.895 713.479 305.37C689.622 297.971 665.264 293.379 639.147 291.083C615.918 289.042 591.685 289.042 565.066 290.956C515.721 294.527 467.254 304.222 416.026 314.426L408.869 315.829C372.079 323.227 337.174 335.09 301.891 352.31C270.124 367.872 238.483 387.643 205.209 412.644C202.573 414.685 199.81 416.726 196.797 419.022C181.353 430.757 162.268 445.299 141.299 458.947C116.815 475.019 94.9671 486.499 74.5007 494.153C49.1374 503.719 26.1598 507.036 5.94454 504.102C-5.48148 502.444 -16.1541 498.745 -25.9479 493.132C-36.3694 487.137 -46.0376 478.718 -54.7013 468.131C-55.5802 467.111 -56.3335 465.963 -57.0869 464.942C-80.9434 445.171 -91.2394 425.527 -100.531 408.18C-107.939 394.149 -114.343 382.031 -126.271 372.081C-139.329 360.984 -157.661 353.968 -183.903 350.014C-191.06 348.866 -198.594 347.336 -206.379 345.422C-214.414 346.698 -222.827 348.228 -231.491 349.759C-264.639 355.754 -302.056 362.515 -332.818 359.071C-368.101 355.116 -389.572 338.152 -398.361 307.538V307.411H-398.235C-359.688 298.992 -308.962 314.681 -259.867 329.86C-241.159 335.6 -223.078 341.213 -206.253 345.295C-195.58 343.509 -185.536 342.233 -176.37 341.596C-174.235 341.468 -172.101 341.34 -169.966 341.213C-151.634 339.937 -134.432 338.789 -118.737 342.361C-110.325 344.274 -103.168 347.463 -96.7641 351.928C-89.6071 356.902 -83.5802 363.663 -78.1811 372.209C-69.3919 386.495 -69.0152 401.93 -68.6385 416.726C-68.2618 432.798 -67.8851 449.38 -56.8358 464.942C-55.2035 466.218 -53.5712 467.621 -51.8134 468.896C-32.8537 483.565 -12.0106 492.239 9.9625 494.918C29.55 497.214 50.5186 494.918 72.4917 487.775C106.519 476.805 143.434 454.738 185.245 420.298C216.761 394.276 245.389 371.189 276.277 352.055C309.55 331.519 342.573 317.487 380.241 307.921C423.936 296.823 470.896 285.726 517.604 279.986C570.591 273.353 616.044 274.374 656.6 282.92C713.479 295.038 770.232 312.258 825.228 328.84C864.654 340.83 905.461 353.203 945.892 363.408C949.407 364.301 953.049 365.321 956.439 366.214C966.609 368.893 976.905 371.699 986.95 373.357C990.968 372.209 994.86 370.806 998.753 369.02C1015.58 361.367 1028.89 348.484 1041.69 336.111C1046.97 331.136 1052.24 326.034 1057.77 321.187C1057.64 319.018 1057.39 316.977 1057.14 314.936C1056.39 307.793 1055.63 301.033 1057.64 294.4C1059.9 287.002 1065.43 280.879 1074.97 275.266C1081.75 271.057 1090.04 269.144 1099.95 269.654ZM1329.23 401.037C1311.4 393.894 1285.03 374.888 1254.52 352.82C1223.38 330.371 1188.1 304.859 1155.95 288.277C1119.04 269.144 1092.42 264.934 1074.84 275.522C1065.43 281.134 1059.9 287.257 1057.64 294.527C1055.63 301.033 1056.39 307.793 1057.14 314.936C1057.39 316.977 1057.64 319.018 1057.77 321.059C1073.96 307.028 1092.67 295.42 1119.79 293.762C1129.08 293.252 1138.5 294.4 1148.67 297.206C1157.71 299.757 1167 303.711 1177.05 309.196C1195.88 319.401 1214.84 333.687 1233.3 347.463C1264.31 370.806 1296.33 394.786 1329.23 401.037ZM986.322 373.485C976.403 371.826 966.233 369.02 956.313 366.341C952.798 365.449 949.282 364.428 945.766 363.535C905.336 353.203 864.528 340.83 825.102 328.968C770.232 312.385 713.353 295.165 656.6 283.047C616.044 274.374 570.591 273.481 517.73 280.114C471.021 285.981 424.062 296.951 380.366 308.048C342.698 317.615 309.676 331.646 276.402 352.183C245.514 371.316 216.886 394.404 185.371 420.425C143.559 454.993 106.644 477.06 72.6173 488.03C50.6441 495.045 29.55 497.469 9.9625 495.173C-12.1362 492.494 -32.9793 483.693 -51.9389 469.152C-53.4457 468.004 -54.9524 466.856 -56.3336 465.58C-55.7058 466.473 -55.0779 467.238 -54.3246 468.131C-45.7865 478.718 -36.1183 487.009 -25.6967 493.004C-15.903 498.617 -5.23035 502.316 6.19568 503.847C26.2854 506.781 49.3885 503.337 74.6262 493.897C94.9671 486.244 116.815 474.764 141.425 458.692C162.393 445.043 181.478 430.502 196.922 418.767C199.81 416.598 202.573 414.43 205.335 412.389C238.608 387.261 270.25 367.617 302.017 351.928C337.299 334.708 372.205 322.717 408.994 315.319L416.151 313.916C467.38 303.711 515.846 294.017 565.317 290.446C591.936 288.532 616.169 288.532 639.398 290.573C665.515 292.869 689.873 297.461 713.73 304.859C738.34 312.385 763.578 320.804 787.936 328.968C835.524 344.912 884.869 361.239 933.461 372.719C947.022 375.908 959.076 377.056 970.376 376.163C975.775 375.908 981.049 375.015 986.322 373.485ZM1001.26 375.015C1004.15 375.143 1007.04 375.143 1009.8 374.888C1018.84 374.25 1026.5 371.954 1033.28 367.872C1040.94 363.28 1047.22 356.52 1052.62 347.336C1058.02 338.152 1058.39 329.605 1057.77 321.314C1052.24 326.034 1046.97 331.136 1041.82 336.111C1028.89 348.484 1015.58 361.367 998.753 369.02C994.986 370.806 991.219 372.209 987.327 373.357C991.973 374.25 996.618 374.888 1001.26 375.015ZM-206.755 345.295C-223.455 341.213 -241.284 335.728 -259.867 329.988C-308.962 314.809 -359.563 299.247 -397.984 307.538C-393.338 323.738 -384.926 336.238 -373.123 344.657C-362.576 352.31 -349.267 356.902 -332.567 358.816C-301.805 362.26 -264.262 355.499 -231.24 349.504C-222.953 348.101 -214.791 346.698 -206.755 345.295ZM-57.4636 464.432C-68.1363 448.998 -68.5129 432.671 -68.8896 416.726C-69.2663 401.93 -69.5174 386.623 -78.3067 372.337C-83.5802 363.79 -89.6071 357.157 -96.7641 352.055C-103.168 347.591 -110.325 344.402 -118.737 342.488C-134.307 338.917 -151.634 340.065 -169.966 341.34C-172.101 341.468 -174.235 341.596 -176.37 341.723C-185.41 342.361 -195.329 343.636 -205.751 345.295C-198.217 347.08 -190.809 348.611 -183.778 349.759C-157.535 353.841 -139.204 360.856 -126.02 371.954C-114.091 382.031 -107.688 394.149 -100.28 408.18C-91.1139 425.4 -80.8179 444.788 -57.4636 464.432Z" fill="white" fill-opacity="0.2"/>
<path d="M1079.99 253.072C1096.19 253.837 1116.28 260.853 1141.39 274.629C1165.75 288.022 1191.74 305.88 1216.85 323.227C1250.88 346.698 1283.02 368.892 1307.88 377.439V377.694C1281.26 372.847 1249.25 350.78 1215.34 327.309C1190.86 310.472 1165.62 292.997 1141.39 281.517C1128.33 275.394 1116.78 271.44 1106.11 269.654C1094.05 267.613 1083.38 268.251 1073.59 271.567C1060.65 275.904 1053.5 280.496 1051.11 285.854C1048.85 290.956 1051.24 296.441 1053.87 302.691C1057.64 311.492 1061.91 321.314 1055.51 334.07C1038.93 366.469 1003.65 360.729 969.497 355.116C968.493 354.989 967.363 354.734 966.358 354.606C935.219 349.504 904.206 342.871 873.443 335.473C849.21 333.432 823.596 329.095 796.726 322.335C771.237 315.829 744.367 307.155 717.12 296.568C713.228 295.038 709.461 293.507 705.569 291.976C666.268 282.282 626.591 273.863 587.165 268.761C551.38 264.041 518.609 262.256 486.842 263.404C451.308 264.679 417.909 269.399 384.761 278.073C347.093 287.894 315.075 300.65 284.313 318.253C256.187 334.325 228.438 354.989 196.797 383.179C180.349 397.848 165.281 410.986 149.461 423.359C131.129 437.518 114.429 448.105 98.4829 455.758C79.2721 464.942 61.0658 470.172 42.4829 471.575C21.8909 473.106 0.922269 469.789 -19.9208 461.626C-34.9881 455.758 -45.9118 448.87 -54.0733 440.069C-61.6069 432.033 -66.3782 423.104 -71.9029 412.772C-75.7953 405.501 -80.0643 397.337 -85.9657 388.664C-97.2661 371.699 -108.19 361.367 -121.248 355.116C-133.302 349.249 -145.984 347.463 -162.055 345.039C-173.23 343.381 -185.786 341.596 -200.477 337.896C-212.28 334.963 -223.706 330.243 -234.881 325.779C-247.437 320.676 -260.369 315.319 -273.679 312.768C-286.612 310.217 -301.553 310.727 -317.5 311.237C-334.074 311.747 -351.275 312.385 -366.468 309.196C-383.67 305.625 -396.101 297.844 -404.388 285.216L-404.639 284.961L-404.262 285.088C-393.464 290.318 -383.67 292.359 -373.5 291.338C-364.459 290.446 -356.172 287.257 -347.509 283.94C-335.957 279.476 -324.029 274.884 -308.459 274.756C-282.719 274.629 -267.652 285.088 -250.199 297.206C-243.168 302.181 -235.885 307.155 -227.347 311.875C-211.401 320.676 -193.446 327.692 -172.728 333.177C-154.145 338.151 -134.934 341.468 -116.477 344.657C-84.0823 350.269 -50.5576 356.137 -18.4141 370.678C33.6936 394.149 74.8775 399.251 114.806 387.005C132.259 381.648 150.088 372.974 171.183 359.708C190.896 347.208 212.241 331.263 232.833 315.829C259.828 295.675 283.308 282.665 309.299 273.481C333.156 265.062 357.138 260.47 393.676 253.837C396.564 253.327 399.577 252.817 402.465 252.179C488.098 236.489 562.178 222.968 645.425 264.679C665.515 274.756 685.856 283.94 705.82 292.104C732.815 298.737 759.685 305.88 786.179 313.023C814.932 320.676 844.062 328.585 873.694 335.728C904.457 338.279 933.085 336.876 959.201 331.646C987.703 325.906 1003.9 307.41 1019.6 289.425C1035.29 271.567 1049.98 254.602 1075.47 253.582C1076.73 252.944 1078.36 252.944 1079.99 253.072ZM1306.5 377.184C1281.89 368.255 1250.25 346.443 1216.73 323.355C1191.61 306.007 1165.62 288.15 1141.26 274.756C1113.64 259.577 1092.04 252.561 1075.22 253.199C1049.86 254.22 1035.17 271.057 1019.47 288.915C1003.78 306.9 987.578 325.396 959.076 331.136C933.336 336.366 905.085 337.769 874.825 335.345C905.085 342.616 935.721 349.249 966.484 354.224C967.488 354.351 968.618 354.606 969.623 354.734C1003.78 360.346 1039.06 366.086 1055.51 333.815C1061.91 321.187 1057.64 311.365 1053.87 302.691C1051.11 296.441 1048.73 290.956 1051.11 285.726C1053.5 280.369 1060.65 275.777 1073.71 271.44C1083.51 268.123 1094.18 267.485 1106.36 269.526C1117.03 271.312 1128.71 275.266 1141.77 281.389C1166 292.869 1191.24 310.344 1215.72 327.182C1248.74 350.142 1280.13 371.826 1306.5 377.184ZM704.188 291.211C684.6 283.175 664.762 274.118 645.048 264.297C561.802 222.713 487.847 236.234 402.214 251.924C399.326 252.434 396.438 252.944 393.425 253.582C356.887 260.215 332.905 264.934 309.048 273.226C283.183 282.282 259.703 295.293 232.707 315.447C212.115 330.881 190.77 346.825 171.057 359.326C150.088 372.719 132.133 381.393 114.68 386.75C74.6264 398.996 33.4425 393.893 -18.7907 370.423C-50.8087 356.009 -84.3334 350.142 -116.728 344.402C-135.311 341.213 -154.396 337.769 -172.979 332.922C-193.822 327.437 -211.652 320.421 -227.724 311.62C-236.262 306.9 -243.544 301.798 -250.576 296.951C-268.029 284.833 -282.97 274.374 -308.71 274.501C-324.154 274.629 -336.083 279.221 -347.634 283.685C-356.423 287.002 -364.585 290.19 -373.751 291.211C-383.796 292.231 -393.589 290.318 -404.262 285.088C-395.975 297.461 -383.67 305.242 -366.719 308.686C-351.527 311.747 -334.325 311.237 -317.751 310.727C-301.93 310.217 -286.863 309.707 -273.93 312.258C-260.746 314.936 -247.688 320.166 -235.132 325.268C-223.957 329.86 -212.531 334.452 -200.728 337.386C-186.163 340.958 -173.481 342.871 -162.432 344.529C-131.042 349.121 -110.324 352.183 -86.0912 388.281C-80.1899 397.082 -75.7953 405.246 -72.0285 412.389C-66.5038 422.721 -61.7325 431.65 -54.1988 439.686C-46.0374 448.487 -35.1136 455.248 -20.0463 461.115C0.796739 469.279 21.7653 472.595 42.2317 471.065C60.6891 469.662 79.021 464.559 98.1062 455.375C114.052 447.722 130.752 437.135 149.084 422.976C165.03 410.731 179.972 397.593 196.42 382.796C228.061 354.606 255.936 333.942 284.062 317.87C314.95 300.14 346.842 287.384 384.636 277.69C417.784 269.144 451.183 264.297 486.716 263.021C518.483 261.873 551.255 263.659 587.039 268.378C626.089 273.353 665.264 281.644 704.188 291.211ZM872.062 334.963C842.932 327.947 814.179 320.166 785.927 312.64C759.811 305.625 733.443 298.609 706.824 292.104C710.214 293.507 713.73 294.91 717.12 296.186C744.367 306.9 771.237 315.574 796.726 321.952C823.093 328.585 848.206 332.922 872.062 334.963Z" fill="white" fill-opacity="0.2"/>
<path d="M576.994 178.707C586.914 179.089 596.582 180.875 606.627 184.064C633.622 192.61 650.196 209.192 667.775 226.668C678.824 237.637 690.25 249.117 704.69 258.429C718.752 267.486 737.335 275.139 761.694 281.772C782.914 287.512 804.636 291.466 822.089 294.655C849.21 299.63 872.69 302.053 893.658 302.308C921.91 302.691 945.766 298.864 964.6 290.828C979.793 284.451 991.345 275.522 1002.52 266.848C1015.2 257.026 1027.38 247.714 1043.7 242.612C1049.48 239.551 1057.14 237.255 1067.94 235.724C1091.17 232.408 1117.41 238.913 1148.55 255.24C1152.94 257.536 1157.21 259.96 1161.48 262.511C1195.26 279.986 1227.4 304.349 1256.15 325.906C1265.82 333.177 1274.86 340.065 1283.52 346.315L1283.4 346.443C1266.57 337.004 1247.61 322.972 1227.65 308.176C1206.18 292.359 1184.08 276.032 1161.48 262.638C1127.33 244.908 1091.42 234.066 1055.63 239.933C1051.49 240.571 1047.47 241.592 1043.83 242.74C1034.29 247.714 1029.64 254.602 1023.99 263.021C1018.34 271.312 1012.06 280.879 999.004 291.211C985.443 302.053 968.618 308.814 947.524 312.13C928.941 314.936 909.73 314.809 891.147 314.554C889.892 314.554 888.636 314.554 887.38 314.554C863.524 314.299 841.676 312.64 820.582 309.324C799.739 306.135 780.152 301.415 760.564 295.038C723.9 283.047 688.241 265.19 648.438 238.913C607.506 211.871 567.954 201.156 523.882 205.493C505.174 207.279 486.34 211.744 467.38 217.739C451.183 226.795 434.483 235.597 416.779 241.847C399.075 248.097 381.999 253.454 365.55 258.684C346.967 264.552 329.138 270.164 311.559 276.67C277.532 290.573 245.514 306.645 212.492 333.049C201.317 341.978 190.644 351.417 180.223 360.601C153.478 384.199 128.366 406.522 100.617 415.451C85.8011 420.298 71.4872 420.935 56.7966 417.364C40.4737 413.41 24.1508 404.481 6.82345 390.067C-2.46804 382.414 -10.0017 371.954 -17.0331 361.239C-17.5353 360.601 -18.1631 359.836 -18.6654 359.198C-33.7327 340.958 -47.921 323.865 -74.0376 312.003C-89.2305 305.242 -105.553 300.65 -122.002 297.079C-128.029 297.334 -134.181 297.716 -140.459 298.227C-165.571 300.012 -191.437 301.798 -215.293 293.89C-225.087 290.701 -234.881 286.236 -244.423 282.027C-260.872 274.629 -277.948 266.975 -296.28 265.062C-308.334 263.786 -323.15 267.486 -338.971 271.312C-353.41 274.884 -368.352 278.583 -381.661 278.455C-396.854 278.328 -407.778 273.353 -415.186 263.021L-415.312 262.894H-415.06C-398.235 264.424 -383.042 257.664 -366.845 250.521C-348.764 242.485 -330.056 234.321 -307.706 237.255C-284.854 240.316 -263.634 250.648 -243.168 260.725C-232.872 265.7 -222.199 270.93 -211.527 275.139C-190.684 283.303 -168.083 287.767 -146.235 291.976C-138.199 293.507 -130.038 295.165 -122.002 296.951C-102.917 296.058 -84.9614 296.696 -69.1408 303.201C-48.1721 311.875 -35.2394 332.156 -22.8089 351.8C-20.7999 354.861 -18.791 358.05 -16.782 361.239C-7.11381 372.974 3.05661 384.965 17.1194 395.807C31.9356 407.287 46.375 413.92 61.0656 416.216C74.1239 418.257 87.3078 416.599 101.12 411.369C126.734 401.547 150.967 380.373 174.321 359.964C185.12 350.525 196.295 340.703 207.469 332.156C231.577 313.916 256.312 299.502 285.443 287.002C294.106 283.303 302.895 279.858 311.685 276.67C325.748 270.93 340.061 265.572 355.003 259.96C365.048 256.133 375.47 252.306 386.142 248.097C391.416 246.056 396.689 244.015 401.837 241.974C424.313 233.173 446.035 224.627 467.38 217.866C470.017 216.336 472.779 214.805 475.416 213.402C496.259 201.667 515.972 190.697 537.317 184.191C548.743 180.747 559.667 178.962 570.465 178.834C572.725 178.579 574.86 178.579 576.994 178.707ZM883.99 302.181C865.533 301.415 845.192 298.864 822.089 294.783C804.636 291.594 782.788 287.639 761.694 281.899C737.335 275.266 718.627 267.741 704.564 258.557C690.25 249.245 678.699 237.893 667.649 226.795C650.071 209.32 633.497 192.738 606.501 184.191C594.322 180.365 582.519 178.579 570.465 178.707C559.667 178.834 548.869 180.62 537.443 184.064C516.097 190.442 496.384 201.539 475.541 213.147C473.156 214.422 470.77 215.825 468.384 217.101C487.093 211.361 505.55 207.024 524.008 205.238C568.205 200.901 607.757 211.616 648.69 238.658C688.492 264.934 724.151 282.792 760.69 294.783C780.152 301.16 799.739 305.752 820.582 309.069C841.676 312.385 863.524 314.043 887.38 314.299C888.636 314.299 889.892 314.299 891.147 314.299C909.73 314.554 928.941 314.681 947.524 311.875C968.618 308.686 985.443 301.798 999.004 290.956C1012.06 280.624 1018.34 271.185 1023.99 262.766C1029.39 254.73 1033.91 247.969 1042.82 242.995C1027 248.225 1015.08 257.281 1002.77 266.848C991.596 275.522 979.919 284.323 964.726 290.828C945.892 298.737 922.035 302.691 893.658 302.308C890.519 302.436 887.38 302.308 883.99 302.181ZM1158.34 260.853C1155.08 258.939 1151.94 257.154 1148.67 255.495C1117.66 239.041 1091.29 232.663 1068.19 235.979C1058.02 237.382 1050.73 239.551 1045.08 242.357C1048.47 241.337 1051.99 240.571 1055.76 239.933C1090.41 234.193 1125.19 244.143 1158.34 260.853ZM316.582 274.629C332.528 268.889 348.725 263.786 365.55 258.429C381.999 253.199 399.075 247.842 416.779 241.592C434.232 235.469 450.68 226.795 466.501 217.994C445.407 224.627 423.936 233.045 401.837 241.719C396.689 243.76 391.416 245.801 386.142 247.842C375.47 252.051 365.048 255.878 355.003 259.705C341.819 264.807 329.012 269.654 316.582 274.629ZM1282.02 345.422C1273.73 339.427 1265.19 332.922 1256.15 326.161C1228.53 305.242 1197.52 281.899 1164.99 264.552C1186.47 277.562 1207.43 292.997 1227.9 308.176C1247.36 322.462 1265.69 335.983 1282.02 345.422ZM-122.755 296.823C-130.665 295.038 -138.45 293.507 -146.235 291.976C-168.083 287.639 -190.684 283.303 -211.527 275.139C-222.199 270.93 -232.872 265.7 -243.168 260.725C-263.634 250.776 -284.728 240.444 -307.58 237.382C-329.805 234.321 -348.513 242.612 -366.594 250.648C-382.666 257.791 -397.859 264.424 -414.684 263.021C-407.276 273.098 -396.352 278.073 -381.41 278.2C-368.101 278.328 -353.159 274.629 -338.72 271.057C-322.899 267.23 -308.083 263.531 -296.029 264.807C-277.697 266.72 -260.621 274.374 -244.172 281.899C-234.755 286.109 -224.962 290.573 -215.168 293.762C-191.437 301.543 -165.446 299.757 -140.459 298.099C-134.432 297.461 -128.531 297.079 -122.755 296.823ZM72.2406 419.277C81.6576 419.66 91.0746 418.384 100.743 415.195C128.366 406.266 153.604 383.944 180.223 360.346C190.644 351.162 201.443 341.596 212.492 332.794C244.008 307.666 274.393 291.976 306.537 278.455C299.38 281.134 292.348 283.94 285.317 287.002C256.187 299.502 231.452 313.788 207.469 332.029C196.42 340.448 185.12 350.269 174.321 359.836C150.967 380.373 126.859 401.547 101.12 411.241C87.3078 416.471 74.124 418.129 60.9401 416.088C46.1239 413.792 31.6845 407.159 16.8683 395.679C3.43331 385.22 -6.48599 373.867 -15.903 362.515C-9.12276 372.719 -1.84023 382.414 6.94902 389.812C24.2764 404.226 40.5993 413.154 56.9221 417.109C62.0701 418.384 67.0926 419.022 72.2406 419.277ZM-17.912 359.581C-19.6699 356.902 -21.3022 354.351 -22.9344 351.673C-35.365 332.029 -48.1721 311.875 -69.1408 303.201C-84.7103 296.823 -102.414 296.058 -121.123 296.951C-104.926 300.523 -88.8538 304.987 -73.9121 311.747C-47.6699 323.61 -33.4815 340.703 -18.4143 358.943C-18.2887 359.198 -18.0376 359.326 -17.912 359.581Z" fill="white" fill-opacity="0.2"/>
<path d="M611.022 106.893C629.73 107.658 649.569 112.633 670.914 122.965C702.43 138.399 718.753 163.018 734.573 186.743C754.914 217.484 774.25 246.439 823.847 251.797C863.775 256.006 902.448 244.909 939.991 234.066C969.121 225.648 999.13 216.974 1029.39 215.698C1035.67 215.443 1041.95 215.443 1048.1 215.698C1128.58 219.142 1201.41 266.466 1263.94 311.365L1263.81 311.493C1243.47 302.309 1223.13 290.318 1201.53 277.563C1176.17 262.511 1149.93 247.077 1122.93 236.235C1092.55 224.117 1065.17 219.78 1039.43 222.969C1009.43 226.796 982.932 236.235 957.318 245.291C938.609 251.924 919.148 258.812 898.681 263.404C875.829 268.379 853.981 269.782 831.883 267.741C798.609 264.552 751.022 256.899 721.389 227.561C708.959 215.188 700.421 199.626 692.259 184.447C681.587 164.803 670.537 144.394 650.448 130.618C634.878 120.159 619.811 113.781 604.367 111.357C590.555 109.189 576.744 110.337 562.053 114.674C534.806 122.71 509.694 140.568 483.075 159.318C473.156 166.334 462.86 173.605 452.564 180.238C418.16 202.305 379.237 216.208 341.443 229.602C310.053 240.699 277.533 252.179 247.775 268.506C222.663 282.155 201.443 296.951 182.609 309.962C153.102 330.371 127.613 348.101 99.2364 353.586C84.2947 356.52 69.2274 355.882 53.1556 351.8C35.7027 347.336 17.1197 338.79 -3.8489 325.652C-38.5036 303.839 -74.414 286.874 -116.979 272.333C-155.024 259.322 -193.948 249.628 -235.132 239.424C-246.683 236.617 -258.611 233.556 -270.665 230.495C-278.199 228.581 -284.854 226.413 -291.383 224.372C-301.93 220.928 -311.849 217.739 -322.145 216.719C-333.697 215.571 -344.746 217.229 -356.925 221.948C-365.966 225.392 -373.374 232.536 -380.656 239.424C-389.446 247.842 -397.858 255.751 -407.526 255.241C-407.652 255.241 -407.652 255.241 -407.778 255.241C-414.683 254.858 -421.715 250.266 -429.248 241.337L-429.5 241.082L-429.248 241.209C-409.159 246.567 -394.217 233.301 -378.271 219.27C-367.473 209.831 -356.298 200.009 -342.863 195.162C-328.423 189.932 -314.109 187.508 -299.042 187.508C-285.733 187.508 -271.795 189.549 -255.347 193.759C-221.446 202.432 -184.907 213.402 -149.374 225.52C-111.203 238.531 -75.1673 252.689 -45.1583 266.466C-26.5754 275.012 -10.5036 283.43 3.55917 290.829C32.3126 305.88 55.0391 317.871 80.4023 320.294C93.5862 321.57 107.021 320.167 121.837 316.212C137.407 312.003 154.86 304.605 175.075 293.763C216.51 271.568 260.959 254.73 304.026 238.531C349.102 221.438 395.811 203.836 438.501 179.983C451.309 172.839 463.865 165.186 476.044 157.66C519.613 130.618 561.676 104.852 611.022 106.893ZM834.017 252.817C830.627 252.689 827.237 252.434 823.721 252.052C773.999 246.694 754.789 217.739 734.322 186.871C718.502 163.018 702.179 138.527 670.663 123.093C593.318 85.4636 536.313 120.414 475.793 157.533C463.613 164.931 451.057 172.712 438.25 179.855C395.56 203.708 348.851 221.311 303.775 238.403C260.833 254.603 216.384 271.44 174.949 293.635C154.734 304.477 137.281 311.875 121.712 316.085C106.896 320.039 93.335 321.442 80.2767 320.167C54.9135 317.743 32.187 305.753 3.43361 290.701C-10.6292 283.303 -26.7009 274.884 -45.2839 266.338C-75.2929 252.689 -111.329 238.531 -149.499 225.392C-184.907 213.275 -221.571 202.305 -255.347 193.631C-271.795 189.422 -285.607 187.508 -298.916 187.381C-313.984 187.381 -328.172 189.804 -342.612 195.034C-356.047 199.881 -367.096 209.703 -377.894 219.142C-393.715 233.173 -408.782 246.312 -428.746 241.209C-421.213 250.011 -414.307 254.475 -407.652 254.858C-407.526 254.858 -407.526 254.858 -407.401 254.858C-397.733 255.241 -389.446 247.332 -380.656 239.041C-373.374 232.153 -365.84 225.01 -356.8 221.566C-344.495 216.846 -333.446 215.188 -321.894 216.336C-311.472 217.356 -301.553 220.545 -291.006 223.989C-284.477 226.03 -277.822 228.326 -270.289 230.112C-258.235 233.173 -246.307 236.107 -234.755 239.041C-193.571 249.245 -154.647 258.94 -116.602 271.95C-74.1629 286.492 -38.127 303.457 -3.47223 325.269C17.4964 338.407 36.0794 346.953 53.5323 351.418C69.6041 355.5 84.6714 356.137 99.6131 353.204C127.99 347.719 153.479 329.988 182.985 309.579C201.819 296.569 223.165 281.772 248.151 268.124C277.909 251.924 310.429 240.317 341.82 229.219C379.613 215.826 418.537 202.05 452.941 179.983C463.237 173.35 473.533 166.079 483.452 159.063C510.071 140.185 535.309 122.455 562.555 114.291C577.246 109.954 591.058 108.934 604.869 110.975C620.313 113.398 635.38 119.776 650.95 130.363C671.04 144.139 682.215 164.548 692.887 184.319C701.049 199.371 709.587 215.06 722.017 227.306C751.65 256.644 799.237 264.297 832.385 267.486C854.484 269.654 876.331 268.124 899.183 263.149C919.524 258.685 938.986 251.797 957.695 245.036C983.309 235.98 1009.8 226.54 1039.81 222.714C1053.62 220.928 1067.56 221.311 1082.25 223.862C1095.31 226.158 1108.74 230.112 1123.31 235.852C1150.3 246.694 1176.55 262.129 1201.91 277.18C1223.13 289.681 1243.09 301.543 1263.18 310.6C1196.01 262.511 1117.03 211.872 1029.64 215.571C999.381 216.846 969.372 225.52 940.367 233.939C905.712 244.271 870.304 254.475 834.017 252.817Z" fill="white" fill-opacity="0.2"/>
<path d="M700.421 85.8459C713.353 86.3562 725.282 88.7797 736.456 92.8615C762.699 102.556 784.923 121.562 818.322 151.792C829.874 162.252 843.057 170.288 858.878 176.538C872.941 182.023 888.636 185.977 906.842 188.401C940.744 192.993 978.789 191.973 1015.45 190.952C1063.17 189.549 1112.39 188.273 1154.07 199.116C1176.55 204.983 1195.13 213.912 1210.7 226.285C1219.11 233.046 1226.9 240.826 1233.55 249.628C1240.58 258.812 1246.73 269.399 1251.88 281.007L1252.01 281.262L1251.76 281.134C1213.34 259.45 1173.03 240.571 1135.11 226.285C1088.91 208.937 1046.84 198.605 1010.18 195.672C979.165 193.121 947.022 205.238 915.883 216.973C899.309 223.224 882.232 229.602 865.91 233.556C847.703 237.893 832.134 238.658 818.448 235.852C808.905 233.811 800.995 230.75 794.089 226.285C787.936 222.331 782.788 217.356 778.268 211.106C769.981 199.498 765.461 185.722 760.815 171.053C751.9 143.119 742.609 114.163 704.062 102.428C684.223 96.4331 662.752 94.3922 640.277 96.4331C628.725 97.4535 617.048 99.4944 604.869 102.683C588.923 107.913 572.851 114.546 556.026 122.71C532.295 134.19 509.317 147.711 487.093 160.721C456.958 178.324 425.819 196.565 391.416 210.851C344.331 230.494 303.147 250.138 261.837 272.843C223.541 293.89 184.617 317.87 139.416 348.356C121.837 360.091 106.895 367.745 93.4603 371.571C80.7787 375.143 69.8549 375.27 60.1867 371.954C46.8773 367.362 35.9535 356.392 25.7831 337.514C20.7607 328.202 16.2405 317.488 11.7203 305.497C6.07009 300.65 0.670985 295.803 -4.60256 291.084C-43.6519 256.643 -77.4277 226.795 -115.849 207.534C-136.065 197.457 -156.782 190.569 -179.006 186.743C-203.114 182.533 -229.231 181.896 -258.863 184.447C-279.455 186.232 -305.32 197.968 -330.432 209.193C-352.531 219.142 -375.509 229.474 -395.222 233.301C-405.894 235.342 -414.684 235.469 -422.217 233.683C-430.63 231.515 -437.285 227.05 -442.433 219.78L-442.558 219.525L-442.307 219.652C-422.594 225.647 -399.993 211.233 -378.145 197.33C-365.589 189.294 -353.787 181.768 -342.737 178.069C-306.074 165.568 -260.495 161.359 -224.961 159.063C-165.948 155.236 -122.378 160.084 -87.8493 174.37C-67.3829 182.788 -49.6788 194.906 -35.3649 210.341C-19.921 227.05 -7.61603 248.352 0.922099 273.736C4.68892 284.833 8.3302 295.42 11.9715 305.115C13.6037 306.518 15.236 307.921 16.8683 309.324C33.5679 323.865 49.1374 333.432 64.4558 338.407C78.393 342.999 92.0791 343.637 106.393 340.575C133.263 334.835 158.375 316.467 187.631 295.293C198.429 287.384 209.729 279.221 221.658 271.185C259.954 245.674 303.147 232.025 344.707 218.887C384.259 206.386 425.066 193.503 462.358 170.416C496.133 149.496 535.685 125.899 577.12 110.847C586.663 107.403 595.954 104.469 604.994 102.173C614.286 99.1118 623.452 96.4331 632.618 94.2646C656.223 88.6522 675.685 85.8459 692.259 85.5908C694.896 85.5908 697.658 85.7184 700.421 85.8459ZM940.492 191.335C928.941 190.825 917.641 189.932 906.842 188.401C888.51 185.85 872.815 182.023 858.753 176.411C842.932 170.16 829.748 162.124 818.196 151.665C784.797 121.562 762.699 102.556 736.456 92.8615C722.896 87.8868 708.456 85.4633 692.134 85.7184C675.56 85.9735 656.098 88.7797 632.492 94.3922C624.205 96.3055 615.918 98.7291 607.631 101.408C618.806 98.7291 629.604 96.8157 640.277 95.9229C662.752 93.882 684.223 95.9228 704.187 101.918C742.86 113.653 752.152 142.608 761.192 170.671C765.838 185.34 770.358 199.116 778.645 210.723C783.165 216.973 788.313 221.948 794.465 225.902C801.371 230.367 809.282 233.428 818.824 235.469C832.51 238.275 847.954 237.638 866.161 233.173C882.484 229.219 899.56 222.841 916.008 216.591C947.147 204.856 979.291 192.738 1010.43 195.289C1047.22 198.223 1089.28 208.555 1135.49 225.902C1173.28 240.189 1213.59 259.067 1251.88 280.624C1246.73 269.144 1240.71 258.684 1233.8 249.5C1227.15 240.699 1219.49 232.918 1211.08 226.158C1195.51 213.785 1177.05 204.983 1154.57 199.116C1112.89 188.273 1063.54 189.549 1015.95 190.952C990.591 191.717 964.977 192.483 940.492 191.335ZM72.7428 373.74C79.0208 373.995 85.8011 373.102 93.2092 371.061C106.644 367.234 121.586 359.709 139.164 347.846C184.366 317.36 223.29 293.38 261.586 272.333C302.895 249.628 344.079 229.857 391.165 210.341C425.568 196.054 456.707 177.814 486.842 160.211C509.066 147.2 532.044 133.807 555.9 122.199C571.721 114.546 586.914 108.168 601.981 103.066C593.945 105.234 585.658 107.913 576.994 110.974C535.559 126.026 496.008 149.624 462.232 170.543C424.94 193.631 384.008 206.514 344.582 219.014C302.895 232.153 259.828 245.801 221.532 271.312C209.478 279.348 198.303 287.512 187.505 295.42C158.375 316.595 133.137 334.963 106.267 340.703C91.9536 343.764 78.2675 342.999 64.3302 338.534C49.0118 333.56 33.4423 323.993 16.7427 309.452C15.236 308.176 13.7293 306.773 12.2226 305.497C16.6172 317.232 21.1374 327.947 26.1598 337.131C36.3302 356.01 47.1284 366.852 60.4378 371.444C64.0791 372.719 68.3482 373.485 72.7428 373.74ZM11.3437 304.732C7.7024 295.038 4.06112 284.706 0.419864 273.736C-8.11826 248.48 -20.4232 227.178 -35.8672 210.468C-50.1811 195.034 -67.7596 182.916 -88.226 174.497C-122.755 160.211 -166.325 155.364 -225.213 159.191C-260.746 161.487 -306.199 165.696 -342.863 178.196C-353.912 181.896 -365.715 189.549 -378.271 197.457C-400.119 211.361 -422.594 225.775 -442.307 219.907C-437.159 226.923 -430.63 231.387 -422.343 233.428C-414.809 235.342 -406.02 235.214 -395.473 233.046C-375.76 229.219 -352.908 218.887 -330.809 208.937C-305.697 197.713 -279.706 185.977 -259.114 184.192C-229.482 181.513 -203.365 182.278 -179.132 186.488C-156.908 190.314 -136.19 197.075 -115.849 207.279C-77.3022 226.54 -43.5264 256.261 -4.47699 290.828C0.545432 295.293 5.94455 300.012 11.3437 304.732Z" fill="white" fill-opacity="0.2"/>
<path d="M788.564 42.2219C800.116 42.7321 810.538 44.3903 820.08 47.3241C829.372 50.1303 837.784 54.2121 844.941 59.3144C852.6 64.7993 859.255 71.6873 864.529 79.7233C873.192 92.8616 876.959 103.194 879.847 111.357C882.735 119.393 884.995 125.771 890.52 131.894C896.421 138.654 905.461 144.522 919.901 151.027C934.968 157.788 956.314 159.573 975.148 160.976C982.932 161.614 990.34 162.124 996.995 163.145C1039.69 169.012 1085.01 176.411 1127.45 189.932C1149.3 196.947 1169.01 205.111 1187.72 214.933C1208.19 225.647 1226.9 237.893 1244.85 252.562L1245.23 252.944L1244.73 252.817C1214.59 243.123 1185.84 229.602 1158.09 216.463C1133.35 204.728 1107.74 192.738 1081.75 183.681C1052.62 173.605 1025.62 168.375 999.381 167.864C975.399 167.354 957.067 169.14 940.744 170.671C901.569 174.37 877.964 176.666 830.753 139.675C816.439 128.45 801.748 119.138 787.058 111.74C772.995 104.724 758.555 99.3669 743.865 95.7954C716.869 89.1625 689.12 88.3971 658.986 93.1167C633.748 97.0709 606.376 105.235 575.237 117.99C547.488 129.343 519.237 143.246 491.99 156.64C452.941 175.901 412.51 195.799 372.205 208.81C360.151 212.637 347.721 216.208 335.667 219.652C315.201 225.52 294.107 231.515 273.766 239.551C267.99 242.74 262.214 246.056 256.564 249.373C244.887 256.006 232.958 262.894 221.03 269.271C215.506 273.353 209.855 277.69 204.205 282.155C175.326 304.477 145.443 327.437 116.438 329.733C102.752 330.881 91.0749 329.223 80.9045 324.758C71.8641 320.804 64.0794 314.681 57.2991 305.88C44.743 289.68 37.5861 267.741 29.9269 244.526C21.6399 219.142 13.1018 192.865 -3.22113 174.753C-18.0373 158.298 -37.2481 146.435 -60.2257 139.292C-80.0642 133.169 -103.419 130.491 -129.661 131.256C-151.257 131.894 -174.863 134.955 -201.607 140.44C-224.585 145.16 -246.181 150.9 -266.271 156.384C-279.706 160.084 -298.791 169.65 -319.132 179.855C-339.096 189.804 -361.822 201.157 -382.289 208.555C-405.769 216.974 -423.096 218.759 -435.15 214.295C-442.935 211.361 -448.71 205.749 -452.226 197.585V197.457H-452.101C-411.293 193.376 -362.576 172.201 -311.096 149.879C-257.607 126.664 -202.235 102.683 -149.75 94.7749C-121.374 90.5656 -96.6383 91.4585 -74.2885 97.4536C-62.1091 100.77 -50.5575 105.745 -39.8849 112.123C-28.71 118.883 -18.0373 127.557 -8.36912 137.889C11.3439 159.063 20.8865 187.508 29.9269 215.06C38.2139 239.806 45.8731 263.276 60.5637 279.731C68.474 288.532 77.5144 294.655 88.5637 298.227C100.869 302.308 115.057 303.329 132.133 301.416C150.465 299.375 170.68 293.124 193.909 282.41C202.824 278.328 211.864 273.736 220.779 269.016C232.331 260.47 243.506 252.817 254.178 247.715C260.582 244.653 266.985 241.847 273.515 239.296C300.385 224.244 327.631 209.958 354.501 202.049C396.564 189.677 433.856 167.482 469.891 145.925C506.304 124.24 543.972 101.663 587.04 89.0349C598.591 85.5909 611.524 81.3815 625.336 76.7895C665.138 63.6513 714.609 47.3241 758.555 42.9872C769.73 42.0943 779.524 41.8392 788.564 42.2219ZM1244.35 252.434C1226.52 238.02 1207.94 225.775 1187.72 215.188C1169.01 205.366 1149.3 197.202 1127.45 190.187C1085.01 176.538 1039.69 169.268 997.121 163.4C990.592 162.507 983.183 161.869 975.273 161.232C956.439 159.701 935.094 158.043 920.026 151.155C905.587 144.649 896.421 138.654 890.52 131.894C884.995 125.643 882.735 119.266 879.847 111.23C876.834 102.939 873.192 92.734 864.529 79.5958C859.255 71.5597 852.6 64.6717 844.941 59.1868C837.784 54.0846 829.372 50.0028 820.08 47.1965C803.255 42.0943 783.291 40.6912 759.183 43.1147C715.237 47.4517 665.766 63.7788 625.963 76.7895C612.152 81.3815 599.219 85.5909 587.667 89.0349C544.6 101.663 506.932 124.24 470.519 145.925C434.483 167.482 397.192 189.677 355.003 202.049C328.636 209.83 301.64 223.734 275.272 238.658C295.111 230.877 315.703 225.01 335.793 219.27C347.846 215.826 360.151 212.254 372.331 208.427C412.51 195.417 452.941 175.518 492.116 156.257C519.362 142.864 547.614 128.96 575.362 117.607C606.501 104.852 633.874 96.6883 659.111 92.734C689.371 87.8869 717.12 88.7798 744.116 95.4127C758.681 98.9843 773.246 104.342 787.309 111.357C801.999 118.755 816.816 128.067 831.004 139.292C853.228 156.64 871.058 166.206 888.762 170.033C905.461 173.605 921.031 172.074 940.744 170.288C956.941 168.757 975.399 166.972 999.381 167.482C1025.62 167.992 1052.62 173.222 1081.87 183.299C1107.99 192.355 1133.48 204.473 1158.21 216.081C1185.84 229.219 1214.34 242.74 1244.35 252.434ZM111.792 302.564C103.38 302.181 95.7207 300.905 88.8148 298.482C77.7655 294.783 68.5996 288.788 60.6892 279.859C45.9986 263.404 38.2139 239.934 29.9269 215.188C20.761 187.636 11.3439 159.318 -8.36912 138.144C-18.0373 127.812 -28.5844 119.138 -39.7593 112.378C-50.4319 106 -61.9835 101.025 -74.1629 97.7087C-96.5127 91.586 -121.123 90.6931 -149.499 95.03C-201.984 102.811 -257.23 126.919 -310.719 150.134C-362.199 172.457 -410.917 193.631 -451.724 197.713C-448.208 205.749 -442.558 211.361 -434.899 214.167C-422.845 218.632 -405.518 216.718 -382.163 208.427C-361.697 201.157 -338.97 189.804 -319.006 179.727C-298.791 169.65 -279.58 159.956 -266.145 156.257C-246.181 150.772 -224.459 145.032 -201.481 140.312C-174.737 134.828 -151.132 131.894 -129.535 131.128C-103.419 130.235 -79.9387 133.042 -60.1001 139.164C-37.1225 146.308 -17.7862 158.17 -2.97003 174.625C13.3529 192.738 22.0165 219.014 30.3035 244.398C37.8372 267.613 44.9942 289.553 57.5502 305.752C64.3305 314.426 71.9897 320.549 81.0301 324.503C91.2005 328.968 102.752 330.626 116.438 329.478C145.443 327.182 175.201 304.094 204.08 281.9C209.479 277.818 214.627 273.736 219.9 269.909C211.362 274.501 202.698 278.838 194.16 282.792C170.931 293.507 150.716 299.63 132.259 301.798C125.102 302.564 118.196 302.819 111.792 302.564ZM222.411 268.379C233.963 262.128 245.389 255.623 256.689 249.118C261.963 246.056 267.237 243.123 272.636 240.061C266.609 242.485 260.582 245.036 254.68 247.842C244.259 252.944 233.586 260.215 222.411 268.379Z" fill="white" fill-opacity="0.2"/>
<path d="M819.201 21.1749C826.609 21.5576 833.766 22.3229 840.547 23.726C855.991 26.9149 869.928 33.2927 884.619 43.6248C897.551 52.6812 908.852 63.3959 920.906 74.876C945.264 97.9636 970.502 121.689 1009.17 130.235C1048.85 139.037 1091.04 149.114 1130.84 164.293C1173.28 180.365 1209.44 200.774 1241.09 226.668L1241.46 227.05L1240.96 226.923C1208.06 216.973 1177.43 203.197 1147.67 189.931C1126.7 180.492 1104.98 170.798 1082.88 162.635C1058.14 153.45 1035.42 147.328 1013.44 143.756C1005.78 142.481 997.874 141.588 989.587 140.695C965.982 138.016 941.498 135.338 922.161 123.857C905.964 114.291 898.179 99.7494 890.645 85.8458C884.619 74.7484 878.466 63.2684 868.17 54.5946C855.865 44.135 838.287 38.0123 816.062 36.2265C796.852 34.6959 773.623 36.3541 746.753 41.2012C697.533 50.1301 643.668 68.3706 604.367 81.764C592.313 85.8458 580.887 89.8 571.345 92.7338C546.986 100.387 523.38 110.337 500.152 121.179C490.735 126.664 481.443 132.404 472.277 138.016C439.883 157.915 406.484 178.451 369.318 189.931C363.04 191.845 356.636 193.503 350.358 195.034C339.434 199.753 328.259 204.09 316.959 208.044C296.116 215.315 270.376 231.387 243.129 248.352C216.51 264.934 189.012 282.027 162.519 293.507C132.385 306.518 108.654 309.579 89.8196 302.946C79.9003 299.502 71.6133 294.655 64.5819 288.15C58.3038 282.41 53.0303 275.394 48.5101 266.848C40.2231 250.903 35.954 232.535 31.5594 212.892C23.398 177.176 15.111 140.312 -20.6738 120.413C-30.9698 114.673 -44.4048 111.995 -61.8577 111.867C-77.4272 111.74 -95.6335 113.908 -117.858 118.245C-158.791 126.281 -206.127 140.95 -251.831 155.236C-348.513 185.212 -439.67 213.529 -456.872 175.645L-456.997 175.518H-456.872C-444.441 177.048 -430.88 176.793 -415.311 174.88C-401.499 173.094 -386.432 170.033 -369.23 165.441C-337.212 156.767 -303.813 144.394 -268.405 131.383C-216.423 112.25 -162.683 92.3512 -113.84 85.0805C-87.4721 81.1262 -64.7456 81.2538 -44.5303 85.208C-33.481 87.3765 -23.185 90.8205 -13.768 95.2849C-3.84867 100.132 5.44281 106.255 13.7298 113.781C36.7074 134.445 44.8689 164.038 52.6536 192.738C59.0572 216.08 65.0841 238.275 78.7702 252.944C86.1783 260.853 95.0931 265.955 106.268 268.634C118.573 271.567 133.389 271.567 151.344 268.378C173.317 264.552 192.779 252.306 211.613 240.316C223.165 233.045 235.093 225.52 247.398 220.035C270.752 209.703 294.86 205.366 318.214 201.156C328.636 199.243 339.434 197.33 350.107 194.779C380.367 181.895 409.623 166.716 438.125 151.92C458.34 141.46 478.932 130.746 499.901 120.924C523.757 106.893 548.493 94.0094 575.363 85.5907C591.309 80.616 609.766 73.9831 629.354 66.9675C689.874 45.1554 763.201 18.7514 819.201 21.1749ZM1240.33 226.412C1208.69 200.774 1172.78 180.492 1130.47 164.42C1090.66 149.369 1048.48 139.164 1008.92 130.363C970.251 121.817 945.013 97.9636 920.655 74.876C908.601 63.5235 897.3 52.8088 884.367 43.7523C869.802 33.4203 855.74 27.1701 840.421 23.9812C782.914 11.8633 697.91 42.4768 629.605 67.0951C610.017 74.1107 591.56 80.7436 575.614 85.7182C549.497 93.8818 525.264 106.382 502.035 119.903C524.511 109.444 547.488 99.877 571.219 92.3512C580.762 89.2898 592.188 85.4631 604.242 81.3813C643.542 67.988 697.282 49.7475 746.627 40.8185C773.497 35.9714 796.852 34.3132 815.937 35.8439C838.287 37.6296 855.865 43.8799 868.17 54.2119C878.592 62.8857 884.744 74.3658 890.645 85.4631C898.179 99.3667 905.964 113.781 922.036 123.347C941.246 134.7 965.731 137.506 989.336 140.057C997.749 140.95 1005.66 141.843 1013.19 143.118C1035.17 146.69 1057.89 152.94 1082.63 162.124C1104.73 170.288 1126.45 179.982 1147.42 189.421C1177.17 202.815 1207.69 216.591 1240.33 226.412ZM121.838 270.802C116.313 270.547 111.165 269.909 106.268 268.761C95.0931 266.082 86.1783 260.98 78.7702 253.072C64.9585 238.403 58.9316 216.208 52.528 192.865C44.7433 164.165 36.5819 134.572 13.7298 114.036C5.44281 106.637 -3.84867 100.387 -13.768 95.5401C-23.185 90.948 -33.481 87.6316 -44.5303 85.4631C-64.7456 81.5089 -87.3465 81.3813 -113.84 85.3356C-162.808 92.6063 -216.423 112.377 -268.405 131.638C-303.813 144.777 -337.212 157.022 -369.23 165.696C-386.432 170.288 -401.499 173.477 -415.311 175.263C-430.755 177.176 -444.315 177.431 -456.746 176.028C-439.419 213.402 -348.387 185.212 -251.957 155.364C-206.252 141.205 -158.916 126.536 -117.858 118.373C-95.7591 114.036 -77.4272 111.867 -61.8577 111.995C-44.2792 112.122 -30.8442 114.929 -20.5483 120.541C15.2365 140.44 23.6491 177.303 31.685 213.147C36.0796 232.663 40.3487 251.158 48.6357 266.975C53.1558 275.522 58.3039 282.41 64.7074 288.15C71.7388 294.655 80.0258 299.375 89.9451 302.946C108.654 309.579 132.385 306.39 162.519 293.507C189.012 282.154 216.51 264.934 243.129 248.352C270.376 231.387 296.116 215.315 316.959 208.044C327.883 204.218 338.681 200.008 349.228 195.544C338.932 197.968 328.51 199.753 318.465 201.667C295.111 205.876 271.004 210.213 247.775 220.545C235.47 225.902 223.542 233.556 211.99 240.826C193.156 252.817 173.569 265.062 151.595 268.889C140.42 270.419 130.627 271.185 121.838 270.802ZM351.488 194.396C357.389 192.993 363.416 191.462 369.318 189.549C406.484 178.069 439.883 157.532 472.277 137.634C480.815 132.404 489.479 127.046 498.143 121.944C477.802 131.511 457.963 141.843 438.376 152.047C410.25 166.589 381.371 181.64 351.488 194.396Z" fill="white" fill-opacity="0.2"/>
<path d="M850.591 0.383545C857.622 0.638657 864.654 1.40399 871.308 2.67955C890.017 6.12356 901.066 9.56758 908.223 14.4147C915.003 19.0067 917.891 24.7467 921.909 32.5277C926.429 41.329 932.08 52.1713 945.766 67.2229C964.349 87.5043 975.273 89.8003 991.847 93.2443C999.255 94.775 1007.54 96.5608 1018.09 100.132C1037.68 106.893 1057.26 112.633 1076.1 117.99C1134.99 134.955 1190.61 151.155 1239.95 199.626L1240.21 199.881L1239.83 199.754C1183.2 184.957 1123.81 163.528 1066.3 142.736C1041.95 133.935 1018.97 125.644 996.116 117.735C960.205 105.362 942.501 81.8918 925.425 59.0593C910.358 38.9055 896.044 19.8996 870.178 8.54713C821.963 -12.6272 718.752 26.5325 643.416 55.2326C619.057 64.5442 597.963 72.4527 582.268 77.1722C545.73 88.0145 511.828 105.617 479.057 122.71C447.541 139.164 414.895 156.129 380.241 166.717C354.626 174.625 323.236 182.278 291.72 188.401C257.317 195.034 225.55 199.371 200.061 200.774C185.747 201.539 172.438 200.391 159.254 197.33C147.577 194.524 136.276 190.314 124.85 184.192C103.631 172.967 85.0475 157.277 66.9668 142.098C52.5273 129.98 37.7112 117.352 21.765 107.403C3.93535 96.1781 -13.6431 89.4176 -31.5983 86.6114C-68.8898 80.8714 -135.437 104.724 -206.002 129.98C-259.365 149.114 -314.612 168.885 -360.944 177.176C-385.93 181.641 -406.02 182.406 -422.218 179.472C-431.007 177.814 -438.792 175.135 -445.195 171.309C-451.975 167.227 -457.5 161.869 -461.644 155.364L-461.644 155.109H-461.518C-402.504 149.879 -338.217 132.659 -276.065 115.949C-232.872 104.342 -188.172 92.3514 -145.105 84.3154C-96.7643 75.2589 -55.706 72.3251 -19.7956 75.2589C4.0609 77.1722 25.9085 84.4429 46.8771 97.1985C65.5856 108.551 81.783 123.22 97.3525 137.251C108.653 147.456 120.456 158.043 132.886 167.099C146.823 177.304 160.258 184.574 174.07 189.422C186.501 193.758 203.075 195.544 223.415 194.651C240.868 193.886 261.084 191.08 283.684 186.488C333.281 176.283 376.976 160.721 389.155 156.129C423.182 143.501 455.451 128.067 486.591 113.143C529.281 92.7341 573.478 71.5598 622.322 57.6562C640.528 52.4264 660.241 45.6659 681.084 38.3952C736.205 19.3894 797.73 -1.91246 850.591 0.383545ZM1239.58 199.498C1190.36 151.155 1134.86 135.083 1076.1 118.118C1057.26 112.633 1037.8 107.02 1018.09 100.26C1007.54 96.5608 999.255 94.9025 991.847 93.3719C975.273 89.9279 964.223 87.6318 945.64 67.3504C931.829 52.2988 926.304 41.4566 921.784 32.6552C917.766 24.8743 914.878 19.2618 908.098 14.6698C901.066 9.82269 890.017 6.37868 871.308 2.93466C814.429 -7.39737 743.613 17.0934 681.084 38.6503C660.241 45.921 640.528 52.6815 622.322 57.9113C573.478 71.8149 529.407 92.9892 486.591 113.398C455.451 128.322 423.182 143.756 389.155 156.385C376.976 160.977 333.281 176.538 283.684 186.743C261.084 191.335 240.868 194.141 223.415 194.906C203.075 195.799 186.375 194.014 173.944 189.677C160.133 184.83 146.698 177.559 132.761 167.227C120.33 158.17 108.527 147.583 97.2269 137.379C81.5318 123.22 65.3345 108.679 46.7515 97.3261C25.7829 84.5705 4.0609 77.4274 -19.7956 75.3865C-55.706 72.4527 -96.7643 75.3865 -145.105 84.4429C-188.172 92.479 -232.872 104.469 -276.065 116.077C-338.092 132.787 -402.253 150.134 -461.267 155.364C-457.123 161.869 -451.724 167.099 -444.944 171.053C-438.54 174.88 -430.881 177.559 -422.092 179.217C-405.895 182.151 -385.93 181.385 -360.818 176.921C-314.486 168.63 -259.365 148.859 -205.877 129.725C-140.334 106.255 -78.0558 83.9327 -39.6342 85.7185C-36.7463 85.8461 -34.1095 86.1012 -31.4727 86.4838C-13.392 89.2901 4.06092 96.0505 22.0161 107.275C37.9623 117.225 52.904 129.853 67.3435 141.971C85.2986 157.15 104.007 172.839 125.227 184.064C136.653 190.059 147.828 194.396 159.505 197.202C172.563 200.264 185.873 201.412 200.187 200.646C225.675 199.243 257.442 195.034 291.846 188.274C323.362 182.151 354.877 174.497 380.366 166.589C415.021 156.002 447.541 138.909 479.182 122.582C511.954 105.49 545.855 87.887 582.393 77.0447C598.088 72.4527 619.057 64.4167 643.541 55.1051C719.003 26.405 822.214 -12.7547 870.555 8.41957C896.42 19.7721 910.734 38.9055 925.802 59.0593C942.878 81.7643 960.456 105.235 996.367 117.608C1019.22 125.516 1042.32 133.807 1066.56 142.608C1123.81 163.273 1183.08 184.702 1239.58 199.498Z" fill="white" fill-opacity="0.2"/>
</g>
</svg>
