<svg width="1920" height="710" viewBox="0 0 1920 710" fill="none" xmlns="http://www.w3.org/2000/svg">
<path d="M1889.32 413.958C1895.9 414.305 1902.83 415.344 1910.28 417.075C1929.32 421.751 1950.45 431.102 1974.87 445.995C2019.55 473.009 2066.13 512.665 2103.71 544.701C2144.92 579.681 2177.3 607.388 2186.83 600.981L2187 601.154C2167.95 613.968 2126.04 578.122 2077.38 536.735C2018.85 486.862 1952.7 430.409 1908.2 442.877C1881.01 450.497 1861.79 470.238 1841.35 490.845C1819.71 513.011 1797.2 535.696 1763.95 543.835C1702.13 558.727 1629.57 534.311 1576.75 516.474C1504.89 492.231 1441.85 473.702 1384.02 459.675C1315.09 443.051 1252.06 432.487 1191.28 427.292C1176.91 426.08 1162.71 425.214 1148.68 424.522C1024.86 419.153 910.053 437.682 798.705 480.628C757.664 496.387 704.501 530.847 648.048 567.04C589.344 604.79 523.02 647.563 460.333 675.79C388.468 708.172 331.842 716.831 287.164 702.284C269.328 696.57 253.223 686.872 239.023 673.712C238.158 673.019 237.292 672.326 236.426 671.634C227.594 664.707 220.494 656.568 214.26 646.524C210.797 640.983 207.853 635.095 205.429 629.034C200.234 619.51 195.385 609.12 191.056 598.037C180.146 570.157 171.314 551.801 162.31 538.64C152.612 524.613 142.395 515.955 129.927 511.279C104.298 501.582 67.9326 508.855 13.2112 519.591C2.12838 521.842 -9.1276 524.267 -20.2104 526.691C-49.8223 533.098 -80.4732 539.852 -108.18 541.584C-123.073 542.45 -135.887 541.757 -147.49 539.679C-160.477 537.255 -171.387 532.925 -180.911 526.345C-191.301 519.245 -199.96 509.721 -206.54 497.599C-213.64 484.784 -218.835 468.506 -221.952 449.631V449.285L-221.779 449.458C-160.131 481.494 -95.0194 477.858 -32.1591 474.394C-5.66421 473.009 21.5233 471.45 47.845 472.663C77.1105 474.048 102.22 479.07 124.386 487.728C135.815 492.231 145.339 497.945 153.478 505.218C160.751 511.799 166.985 519.418 172.18 528.596C181.878 545.74 187.073 565.827 192.095 585.222C195.904 599.768 199.714 614.834 205.602 628.861C213.741 643.753 222.919 656.741 233.136 667.304C235.04 669.382 237.119 671.46 239.197 673.365C248.374 680.119 259.111 685.487 271.579 689.47C303.096 699.687 334.786 702.804 368.554 699.167C398.512 695.877 429.509 687.046 462.931 672.499C525.272 645.312 587.093 601.327 647.009 558.727C687.011 530.328 728.399 500.889 769.093 477.165C814.81 450.497 854.985 433.526 892.216 425.561C944.86 414.305 995.945 408.071 1048.07 406.512C1095 405.127 1141.93 407.724 1191.8 414.305C1284.96 426.6 1373.11 450.843 1466.62 476.645C1530.17 494.135 1595.97 512.318 1665.93 527.211C1709.57 536.562 1775.55 550.589 1810.36 511.452C1821.96 498.465 1823.52 484.438 1824.9 470.758C1826.81 452.055 1828.71 434.565 1855.21 420.712C1864.91 415.69 1876.51 413.266 1889.32 413.958ZM2183.02 602.02C2177.82 601.846 2169.34 597.344 2157.22 588.686C2142.84 578.296 2124.66 562.71 2103.53 544.874C2065.96 513.011 2019.37 473.182 1974.7 446.341C1950.28 431.622 1929.15 422.097 1910.1 417.422C1888.63 412.227 1870.1 413.439 1855.04 421.231C1828.54 434.912 1826.81 452.575 1824.9 471.104C1823.52 484.784 1821.96 498.811 1810.36 511.972C1775.38 551.108 1709.23 537.081 1665.59 527.73C1595.63 512.838 1529.82 494.655 1466.27 477.165C1372.76 451.363 1284.62 427.119 1191.45 414.824C1141.58 408.244 1094.48 405.646 1047.72 407.032C995.425 408.417 944.513 414.651 891.87 426.08C854.812 434.046 814.637 450.843 768.92 477.511C728.225 501.409 686.838 530.674 646.836 559.074C586.92 601.673 525.098 645.658 462.758 672.846C429.163 687.565 398.339 696.224 368.207 699.687C334.439 703.497 302.75 700.206 271.233 689.989C259.457 686.18 249.414 681.331 240.582 675.097C254.262 687.565 269.847 696.57 286.991 702.111C331.669 716.657 388.295 707.826 459.987 675.616C522.674 647.39 589.171 604.617 647.702 566.866C704.155 530.501 757.491 496.213 798.359 480.455C922.348 432.66 1050.84 415.17 1191.11 427.119C1252.06 432.314 1315.09 442.878 1384.02 459.502C1441.85 473.528 1504.89 492.057 1576.75 516.301C1629.57 534.137 1702.13 558.554 1763.78 543.662C1796.85 535.696 1819.36 512.838 1841.01 490.845C1861.44 470.065 1880.84 450.324 1908.02 442.704C1952.7 430.063 2019.03 486.689 2077.56 536.562C2101.63 556.996 2124.31 576.391 2143.19 589.032C2162.93 602.02 2176.26 606.349 2184.92 602.193C2184.4 602.02 2183.71 602.02 2183.02 602.02ZM-112.336 476.472C-149.221 474.914 -186.106 468.333 -221.952 449.804C-215.891 486.516 -202.557 511.452 -181.084 525.999C-171.56 532.406 -160.65 536.735 -147.836 539.159C-136.407 541.411 -123.592 541.93 -108.7 541.064C-80.9927 539.506 -50.515 532.752 -20.9031 526.345C-9.82027 523.92 1.43569 521.496 12.5185 519.245C67.413 508.335 103.605 501.235 129.407 510.933C141.876 515.608 152.266 524.44 161.963 538.467C170.968 551.628 179.973 569.983 190.882 597.864C194.865 608.081 199.195 617.778 204.043 626.61C198.675 613.276 195.038 599.249 191.575 585.395C186.553 566.001 181.358 545.74 171.661 528.769C166.466 519.591 160.405 511.972 152.958 505.565C144.82 498.291 135.295 492.577 123.866 488.075C101.7 479.416 76.7642 474.567 47.4986 473.009C21.3501 471.624 -6.01056 473.182 -32.3322 474.741C-58.6539 476.126 -85.4951 477.684 -112.336 476.472ZM236.945 671.98C235.56 670.595 234.001 669.209 232.616 667.651C223.092 657.607 214.26 645.485 206.468 631.458C208.719 636.653 211.316 641.675 214.26 646.524C220.321 656.395 227.594 664.534 236.253 671.46C236.426 671.634 236.599 671.807 236.945 671.98Z" fill="white" fill-opacity="0.15"/>
<path d="M1841.7 365.99C1862.48 366.856 1888.28 375.168 1919.11 390.927C1963.44 413.612 2012.1 448.072 2055.05 478.723C2097.82 509.201 2134.88 535.35 2159.29 544.701V545.047C2113.4 537.081 2068.73 504.179 2025.61 472.143C2000.32 453.441 1974 434.046 1948.03 420.192C1934 412.746 1921.19 407.378 1908.89 403.914C1895.04 399.932 1882.05 398.373 1869.24 399.239C1831.83 401.317 1806.03 417.248 1783.69 436.297C1784.56 447.553 1784.04 459.328 1776.59 471.97C1769.14 484.611 1760.31 493.789 1749.75 500.023C1740.4 505.565 1729.66 508.682 1717.37 509.547C1707.15 510.24 1696.59 509.201 1685.68 507.469C1678.23 509.547 1670.78 510.933 1662.82 511.452C1647.06 512.665 1630.44 511.106 1611.73 506.777C1544.72 491.192 1476.66 468.853 1411.03 447.207C1377.44 436.124 1342.63 424.695 1308.69 414.478C1275.79 404.434 1242.19 398.2 1206.17 395.083C1174.14 392.312 1140.71 392.312 1104 394.91C1035.95 399.758 969.104 412.919 898.451 426.773L888.58 428.678C837.841 438.721 789.701 454.826 741.04 478.204C697.228 499.33 653.59 526.172 607.7 560.113C604.064 562.883 600.254 565.654 596.098 568.771C574.798 584.703 548.476 604.444 519.557 622.973C485.789 644.792 455.658 660.378 427.431 670.768C392.451 683.755 360.761 688.258 332.881 684.275C317.123 682.024 302.403 677.002 288.896 669.382C274.523 661.243 261.189 649.814 249.241 635.441C248.028 634.056 246.989 632.497 245.95 631.112C213.048 604.271 198.848 577.603 186.034 554.052C175.817 535.003 166.985 518.552 150.534 505.045C132.525 489.979 107.242 480.455 71.0498 475.087C61.1791 473.528 50.789 471.45 40.0525 468.853C28.9697 470.584 17.3674 472.662 5.41877 474.74C-40.2978 482.879 -91.9021 492.057 -134.329 487.382C-182.989 482.014 -212.601 458.982 -224.723 417.422V417.248H-224.549C-171.387 405.819 -101.426 427.119 -33.7174 447.726C-7.91523 455.519 17.0211 463.138 40.2257 468.68C54.9451 466.255 68.7986 464.524 81.4399 463.658C84.3838 463.485 87.3276 463.311 90.2715 463.138C115.554 461.406 139.278 459.848 160.924 464.697C172.527 467.294 182.397 471.623 191.229 477.684C201.1 484.438 209.412 493.616 216.858 505.218C228.98 524.613 229.499 545.567 230.019 565.654C230.538 587.473 231.058 609.985 246.297 631.112C248.548 632.844 250.799 634.749 253.223 636.48C279.372 656.395 308.118 668.17 338.423 671.807C365.437 674.924 394.356 671.807 424.661 662.109C471.589 647.217 522.501 617.258 580.166 570.503C623.632 535.176 663.114 503.833 705.714 477.858C751.603 449.977 797.147 430.929 849.097 417.941C909.36 402.875 974.125 387.81 1038.54 380.017C1111.62 371.012 1174.31 372.398 1230.24 384C1308.69 400.451 1386.96 423.829 1462.81 446.341C1517.18 462.619 1573.46 479.416 1629.22 493.27C1634.07 494.482 1639.09 495.867 1643.77 497.079C1657.8 500.716 1672 504.526 1685.85 506.777C1691.39 505.218 1696.76 503.313 1702.13 500.889C1725.33 490.499 1743.69 473.009 1761.35 456.211C1768.62 449.458 1775.9 442.531 1783.52 435.951C1783.34 433.007 1783 430.236 1782.65 427.465C1781.61 417.768 1780.57 408.59 1783.34 399.585C1786.46 389.541 1794.08 381.229 1807.24 373.61C1816.59 367.895 1828.02 365.298 1841.7 365.99ZM2157.91 544.354C2133.32 534.657 2096.95 508.855 2054.87 478.897C2011.93 448.419 1963.27 413.785 1918.93 391.273C1868.02 365.298 1831.31 359.583 1807.07 373.956C1794.08 381.576 1786.46 389.888 1783.34 399.758C1780.57 408.59 1781.61 417.768 1782.65 427.465C1783 430.236 1783.34 433.007 1783.52 435.777C1805.86 416.729 1831.66 400.971 1869.06 398.719C1881.88 398.027 1894.86 399.585 1908.89 403.395C1921.36 406.858 1934.17 412.227 1948.03 419.673C1974 433.526 2000.15 452.921 2025.61 471.623C2068.38 503.313 2112.54 535.869 2157.91 544.354ZM1684.98 506.95C1671.3 504.699 1657.28 500.889 1643.6 497.252C1638.75 496.04 1633.9 494.655 1629.05 493.443C1573.29 479.416 1517.01 462.619 1462.63 446.514C1386.96 424.002 1308.51 400.624 1230.24 384.173C1174.31 372.398 1111.62 371.185 1038.72 380.19C974.299 388.156 909.533 403.049 849.271 418.114C797.32 431.102 751.777 450.151 705.887 478.031C663.287 504.006 623.805 535.35 580.339 570.676C522.674 617.605 471.763 647.563 424.834 662.456C394.529 671.98 365.437 675.27 338.423 672.153C307.945 668.516 279.199 656.568 253.05 636.827C250.972 635.268 248.894 633.71 246.989 631.978C247.855 633.19 248.721 634.229 249.76 635.441C261.536 649.814 274.87 661.07 289.243 669.209C302.75 676.829 317.469 681.85 333.227 683.928C360.934 687.911 392.798 683.236 427.605 670.421C455.658 660.031 485.789 644.446 519.73 622.627C548.65 604.098 574.971 584.356 596.271 568.425C600.254 565.481 604.064 562.537 607.873 559.766C653.763 525.652 697.402 498.984 741.213 477.684C789.874 454.307 838.015 438.029 888.753 427.985L898.624 426.08C969.277 412.227 1036.12 399.066 1104.35 394.217C1141.06 391.619 1174.48 391.619 1206.52 394.39C1242.54 397.507 1276.13 403.741 1309.03 413.785C1342.98 424.002 1377.78 435.431 1411.38 446.514C1477.01 468.16 1545.06 490.326 1612.08 505.911C1630.78 510.24 1647.41 511.799 1662.99 510.586C1670.44 510.24 1677.71 509.028 1684.98 506.95ZM1705.59 509.028C1709.57 509.201 1713.56 509.201 1717.37 508.855C1729.83 507.989 1740.4 504.872 1749.75 499.33C1760.31 493.096 1768.97 483.918 1776.42 471.45C1783.86 458.982 1784.38 447.38 1783.52 436.124C1775.9 442.531 1768.62 449.458 1761.52 456.211C1743.69 473.009 1725.33 490.499 1702.13 500.889C1696.93 503.313 1691.74 505.218 1686.37 506.777C1692.78 507.989 1699.18 508.855 1705.59 509.028ZM39.5331 468.68C16.5016 463.138 -8.0884 455.692 -33.7174 447.899C-101.426 427.292 -171.213 406.166 -224.203 417.422C-217.796 439.414 -206.194 456.385 -189.916 467.814C-175.37 478.204 -157.014 484.438 -133.982 487.035C-91.5558 491.711 -39.7783 482.533 5.76513 474.394C17.1943 472.489 28.4502 470.584 39.5331 468.68ZM245.431 630.419C230.711 609.466 230.192 587.3 229.672 565.654C229.153 545.567 228.807 524.786 216.685 505.391C209.412 493.789 201.1 484.784 191.229 477.858C182.397 471.797 172.527 467.467 160.924 464.87C139.452 460.021 115.554 461.58 90.2715 463.311C87.3276 463.485 84.3838 463.658 81.4399 463.831C68.9717 464.697 55.2914 466.428 40.9184 468.68C51.3085 471.104 61.5255 473.182 71.2229 474.74C107.415 480.282 132.698 489.806 150.881 504.872C167.332 518.552 176.163 535.003 186.38 554.052C199.022 577.43 213.221 603.751 245.431 630.419Z" fill="white" fill-opacity="0.15"/>
<path d="M1814.17 343.478C1836.51 344.517 1864.21 354.042 1898.85 372.744C1932.44 390.927 1968.29 415.17 2002.92 438.721C2049.85 470.584 2094.18 500.716 2128.47 512.318V512.664C2091.76 506.084 2047.6 476.126 2000.84 444.263C1967.08 421.404 1932.27 397.68 1898.85 382.095C1880.84 373.783 1864.91 368.415 1850.19 365.99C1833.56 363.22 1818.84 364.085 1805.34 368.588C1787.5 374.475 1777.63 380.71 1774.34 387.983C1771.22 394.909 1774.51 402.356 1778.15 410.841C1783.34 422.79 1789.23 436.124 1780.4 453.441C1757.54 497.425 1708.88 489.633 1661.78 482.013C1660.39 481.84 1658.83 481.494 1657.45 481.321C1614.5 474.394 1571.73 465.389 1529.3 455.345C1495.88 452.575 1460.56 446.687 1423.5 437.509C1388.35 428.677 1351.29 416.902 1313.71 402.529C1308.34 400.451 1303.15 398.373 1297.78 396.295C1243.58 383.134 1188.85 371.705 1134.48 364.778C1085.13 358.371 1039.93 355.946 996.118 357.505C947.111 359.237 901.048 365.644 855.331 377.419C803.381 390.753 759.223 408.07 716.796 431.968C678.006 453.787 639.736 481.84 596.098 520.111C573.412 540.025 552.632 557.861 530.813 574.659C505.53 593.88 482.499 608.253 460.506 618.644C434.012 631.112 408.902 638.212 383.273 640.117C354.873 642.195 325.954 637.692 297.208 626.609C276.428 618.644 261.362 609.292 250.106 597.344C239.716 586.434 233.136 574.312 225.516 560.286C220.148 550.415 214.26 539.332 206.121 527.557C190.536 504.525 175.47 490.499 157.461 482.013C140.837 474.048 123.347 471.623 101.181 468.333C85.7689 466.082 68.452 463.657 48.1913 458.636C31.9134 454.653 16.155 448.245 0.742991 442.185C-16.5739 435.258 -34.4103 427.985 -52.7662 424.521C-70.6026 421.058 -91.2097 421.751 -113.202 422.443C-136.06 423.136 -159.785 424.002 -180.738 419.673C-204.462 414.824 -221.606 404.261 -233.035 387.117L-233.381 386.77L-232.862 386.944C-217.969 394.044 -204.462 396.814 -190.435 395.429C-177.967 394.217 -166.538 389.887 -154.59 385.385C-138.658 379.324 -122.207 373.09 -100.734 372.917C-65.2344 372.744 -44.4541 386.944 -20.3836 403.395C-10.6862 410.148 -0.64236 416.902 11.1331 423.309C33.1256 435.258 57.8887 444.782 86.4616 452.228C112.091 458.982 138.585 463.484 164.041 467.814C208.719 475.433 254.955 483.399 299.286 503.14C371.151 535.003 427.951 541.93 483.018 525.306C507.089 518.032 531.679 506.257 560.771 488.247C587.959 471.277 617.397 449.631 645.797 428.677C683.028 401.317 715.411 383.653 751.257 371.185C784.159 359.756 817.234 353.522 867.626 344.517C871.609 343.825 875.765 343.132 879.748 342.266C997.849 320.966 1100.02 302.61 1214.83 359.237C1242.54 372.917 1270.59 385.385 1298.12 396.468C1335.36 405.473 1372.41 415.17 1408.95 424.868C1448.61 435.258 1488.78 445.994 1529.65 455.692C1572.08 459.155 1611.56 457.25 1647.58 450.15C1686.89 442.358 1709.23 417.248 1730.87 392.831C1752.52 368.588 1772.78 345.556 1807.93 344.171C1809.66 343.305 1811.92 343.305 1814.17 343.478ZM2126.56 511.972C2092.62 499.85 2048.98 470.238 2002.75 438.894C1968.11 415.343 1932.27 391.1 1898.67 372.917C1860.58 352.31 1830.79 342.786 1807.59 343.651C1772.61 345.037 1752.35 367.895 1730.7 392.139C1709.05 416.556 1686.72 441.665 1647.41 449.458C1611.91 456.558 1572.94 458.462 1531.21 455.172C1572.94 465.043 1615.2 474.048 1657.62 480.801C1659.01 480.974 1660.57 481.321 1661.95 481.494C1709.05 489.113 1757.71 496.906 1780.4 453.094C1789.23 435.95 1783.34 422.616 1778.15 410.841C1774.34 402.356 1771.05 394.909 1774.34 387.809C1777.63 380.536 1787.5 374.302 1805.51 368.415C1819.02 363.912 1833.74 363.046 1850.53 365.817C1865.25 368.241 1881.36 373.61 1899.37 381.922C1932.79 397.507 1967.6 421.231 2001.36 444.089C2046.91 475.26 2090.2 504.698 2126.56 511.972ZM1295.87 395.256C1268.86 384.346 1241.5 372.051 1214.31 358.717C1099.5 302.264 997.503 320.62 879.402 341.92C875.419 342.612 871.436 343.305 867.28 344.171C816.888 353.176 783.813 359.583 750.91 370.839C715.238 383.134 682.855 400.797 645.624 428.158C617.224 449.111 587.785 470.757 560.598 487.728C531.679 505.911 506.916 517.686 482.845 524.959C427.604 541.583 370.805 534.657 298.767 502.794C254.609 483.226 208.372 475.26 163.695 467.467C138.066 463.138 111.744 458.462 86.1152 451.882C57.3692 444.436 32.7792 434.911 10.6136 422.963C-1.1619 416.556 -11.2057 409.629 -20.9031 403.048C-44.9736 386.597 -65.5807 372.397 -101.08 372.571C-122.38 372.744 -138.831 378.978 -154.763 385.039C-166.884 389.541 -178.14 393.87 -190.782 395.256C-204.635 396.641 -218.142 394.044 -232.862 386.944C-221.433 403.741 -204.462 414.304 -181.084 418.98C-160.131 423.136 -136.407 422.443 -113.548 421.751C-91.7292 421.058 -70.9489 420.365 -53.1126 423.829C-34.9298 427.465 -16.9203 434.565 0.396632 441.492C15.8087 447.726 31.567 453.96 47.8449 457.943C67.9325 462.792 85.4225 465.389 100.661 467.64C143.954 473.874 172.527 478.03 205.948 527.037C214.087 538.986 220.148 550.069 225.343 559.766C232.962 573.793 239.543 585.915 249.933 596.824C261.189 608.773 276.255 617.951 297.035 625.917C325.781 636.999 354.7 641.502 382.927 639.424C408.382 637.519 433.665 630.592 459.987 618.124C481.979 607.734 505.011 593.361 530.293 574.139C552.286 557.515 572.893 539.679 595.578 519.591C639.217 481.321 677.66 453.267 716.45 431.448C759.049 407.378 803.034 390.061 855.158 376.9C900.875 365.298 946.938 358.717 995.944 356.985C1039.76 355.427 1084.95 357.851 1134.31 364.259C1188.16 371.012 1242.19 382.268 1295.87 395.256ZM1527.4 454.653C1487.22 445.128 1447.57 434.565 1408.61 424.348C1372.59 414.824 1336.22 405.3 1299.51 396.468C1304.18 398.373 1309.03 400.278 1313.71 402.009C1351.29 416.556 1388.35 428.331 1423.5 436.989C1459.86 445.994 1494.5 451.882 1527.4 454.653Z" fill="white" fill-opacity="0.15"/>
<path d="M1120.45 242.521C1134.13 243.04 1147.47 245.465 1161.32 249.794C1198.55 261.396 1221.41 283.908 1245.65 307.632C1260.89 322.525 1276.65 338.11 1296.57 350.752C1315.96 363.047 1341.59 373.437 1375.18 382.441C1404.45 390.234 1434.41 395.602 1458.48 399.931C1495.88 406.685 1528.27 409.975 1557.18 410.322C1596.15 410.841 1629.05 405.646 1655.03 394.736C1675.98 386.078 1691.91 373.956 1707.32 362.181C1724.81 348.847 1741.61 336.205 1764.12 329.279C1772.09 325.123 1782.65 322.006 1797.54 319.927C1829.58 315.425 1865.77 324.257 1908.72 346.422C1914.78 349.539 1920.67 352.83 1926.55 356.293C1973.14 380.017 2017.47 413.092 2057.12 442.358C2070.46 452.228 2082.93 461.58 2094.87 470.065L2094.7 470.238C2071.5 457.424 2045.35 438.375 2017.81 418.287C1988.2 396.814 1957.72 374.649 1926.55 356.466C1879.45 332.396 1829.93 317.676 1780.57 325.642C1774.86 326.508 1769.32 327.893 1764.29 329.452C1751.13 336.205 1744.73 345.556 1736.93 356.986C1729.14 368.242 1720.48 381.229 1702.47 395.256C1683.77 409.975 1660.57 419.153 1631.47 423.656C1605.85 427.465 1579.35 427.292 1553.72 426.946C1551.99 426.946 1550.26 426.946 1548.53 426.946C1515.62 426.599 1485.49 424.348 1456.4 419.846C1427.65 415.517 1400.64 409.109 1373.63 400.451C1323.06 384.173 1273.88 359.929 1218.99 324.257C1162.53 287.545 1107.98 272.999 1047.2 278.886C1021.4 281.311 995.425 287.372 969.277 295.511C946.938 307.806 923.906 319.754 899.489 328.24C875.073 336.725 851.522 343.998 828.837 351.098C803.208 359.064 778.618 366.683 754.374 375.515C707.445 394.39 663.287 416.209 617.744 452.055C602.332 464.177 587.612 476.992 573.239 489.46C536.354 521.496 501.721 551.801 463.45 563.922C443.016 570.503 423.275 571.369 403.014 566.52C380.502 561.152 357.99 549.03 334.093 529.462C321.279 519.072 310.889 504.872 301.191 490.326C300.498 489.46 299.633 488.421 298.94 487.555C278.16 462.792 258.592 439.587 222.572 423.482C201.619 414.304 179.107 408.07 156.422 403.222C148.11 403.568 139.625 404.088 130.966 404.78C96.3323 407.205 60.6595 409.629 27.7574 398.892C14.2502 394.563 0.743096 388.502 -12.4177 382.788C-35.1029 372.744 -58.6538 362.354 -83.9365 359.756C-100.561 358.025 -120.995 363.047 -142.814 368.242C-162.728 373.09 -183.335 378.112 -201.691 377.939C-222.645 377.766 -237.71 371.012 -247.927 356.986L-248.101 356.812H-247.754C-224.55 358.89 -203.596 349.713 -181.257 340.015C-156.321 329.105 -130.519 318.023 -99.6949 322.005C-68.1781 326.162 -38.9126 340.188 -10.686 353.869C3.5138 360.622 18.2331 367.722 32.9525 373.437C61.6985 384.519 92.8689 390.58 123 396.295C134.083 398.373 145.339 400.624 156.422 403.049C182.744 401.836 207.507 402.702 229.326 411.534C258.245 423.309 276.082 450.843 293.225 477.511C295.996 481.667 298.767 485.996 301.537 490.326C314.871 506.257 328.898 522.535 348.293 537.254C368.727 552.84 388.641 561.844 408.902 564.961C426.912 567.732 445.094 565.481 464.143 558.381C499.469 545.047 532.891 516.301 565.1 488.594C579.993 475.779 595.405 462.445 610.817 450.843C644.066 426.08 678.18 406.512 718.355 389.541C730.304 384.519 742.425 379.844 754.547 375.515C773.942 367.722 793.683 360.449 814.29 352.83C828.144 347.634 842.517 342.439 857.236 336.725C864.509 333.954 871.782 331.183 878.882 328.413C909.88 316.464 939.838 304.862 969.277 295.684C972.913 293.606 976.723 291.528 980.359 289.623C1009.11 273.691 1036.29 258.799 1065.73 249.967C1081.49 245.292 1096.56 242.867 1111.45 242.694C1114.57 242.348 1117.51 242.348 1120.45 242.521ZM1543.85 410.148C1518.39 409.109 1490.34 405.646 1458.48 400.105C1434.41 395.775 1404.28 390.407 1375.18 382.615C1341.59 373.61 1315.79 363.393 1296.39 350.925C1276.65 338.283 1260.72 322.871 1245.48 307.806C1221.24 284.082 1198.38 261.57 1161.15 249.967C1144.35 244.772 1128.07 242.348 1111.45 242.521C1096.56 242.694 1081.66 245.119 1065.9 249.794C1036.47 258.453 1009.28 273.518 980.533 289.277C977.242 291.008 973.952 292.913 970.662 294.645C996.464 286.852 1021.92 280.964 1047.38 278.54C1108.33 272.652 1162.88 287.199 1219.33 323.91C1274.23 359.583 1323.41 383.827 1373.8 400.105C1400.64 408.763 1427.65 414.997 1456.4 419.5C1485.49 424.002 1515.62 426.253 1548.53 426.599C1550.26 426.599 1551.99 426.599 1553.72 426.599C1579.35 426.946 1605.85 427.119 1631.47 423.309C1660.57 418.98 1683.77 409.629 1702.47 394.91C1720.48 380.883 1729.14 368.068 1736.93 356.639C1744.38 345.73 1750.61 336.552 1762.91 329.798C1741.09 336.898 1724.64 349.193 1707.67 362.181C1692.26 373.956 1676.15 385.905 1655.2 394.736C1629.22 405.473 1596.32 410.841 1557.18 410.322C1552.86 410.495 1548.53 410.322 1543.85 410.148ZM1922.22 354.042C1917.72 351.444 1913.39 349.02 1908.89 346.769C1866.12 324.43 1829.75 315.771 1797.89 320.274C1783.86 322.179 1773.82 325.123 1766.03 328.932C1770.7 327.547 1775.55 326.508 1780.75 325.642C1828.54 317.849 1876.51 331.357 1922.22 354.042ZM761.301 372.744C783.293 364.951 805.632 358.025 828.837 350.752C851.522 343.652 875.073 336.379 899.489 327.893C923.56 319.581 946.245 307.806 968.064 295.857C938.972 304.862 909.36 316.291 878.882 328.066C871.782 330.837 864.509 333.608 857.236 336.379C842.517 342.093 828.144 347.288 814.29 352.483C796.108 359.41 778.444 365.99 761.301 372.744ZM2092.8 468.853C2081.37 460.714 2069.59 451.882 2057.12 442.704C2019.03 414.305 1976.25 382.615 1931.4 359.064C1961.01 376.727 1989.93 397.68 2018.16 418.287C2045 437.682 2070.28 456.038 2092.8 468.853ZM155.383 402.875C144.473 400.451 133.737 398.373 123 396.295C92.8689 390.407 61.6985 384.519 32.9525 373.437C18.2331 367.722 3.5138 360.622 -10.686 353.869C-38.9126 340.361 -68.005 326.335 -99.5217 322.179C-130.173 318.023 -155.975 329.279 -180.911 340.188C-203.077 349.886 -224.03 358.89 -247.235 356.986C-237.018 370.666 -221.952 377.42 -201.345 377.593C-182.989 377.766 -162.382 372.744 -142.468 367.895C-120.648 362.7 -100.214 357.678 -83.5902 359.41C-58.3075 362.007 -34.7566 372.398 -12.0714 382.615C0.916233 388.329 14.4234 394.39 27.9306 398.719C60.6595 409.283 96.5055 406.858 130.966 404.607C139.278 403.741 147.417 403.222 155.383 402.875ZM424.314 569.117C437.302 569.637 450.289 567.905 463.623 563.576C501.721 551.454 536.528 521.15 573.239 489.113C587.612 476.645 602.505 463.658 617.744 451.709C661.209 417.595 703.116 396.295 747.447 377.939C737.577 381.576 727.879 385.385 718.182 389.541C678.007 406.512 643.892 425.907 610.817 450.67C595.578 462.099 579.993 475.433 565.1 488.421C532.891 516.301 499.643 545.047 464.143 558.208C445.094 565.308 426.912 567.559 408.729 564.788C388.295 561.671 368.381 552.666 347.947 537.081C329.418 522.881 315.737 507.469 302.75 492.057C312.101 505.911 322.145 519.072 334.266 529.115C358.164 548.684 380.676 560.805 403.188 566.174C410.287 567.905 417.214 568.771 424.314 569.117ZM299.979 488.074C297.555 484.438 295.303 480.975 293.052 477.338C275.908 450.67 258.245 423.309 229.326 411.534C207.853 402.875 183.436 401.836 157.634 403.049C179.973 407.897 202.138 413.958 222.746 423.136C258.938 439.241 278.506 462.445 299.286 487.209C299.459 487.555 299.806 487.728 299.979 488.074Z" fill="white" fill-opacity="0.15"/>
<path d="M1167.38 145.027C1193.18 146.066 1220.54 152.82 1249.98 166.846C1293.45 187.8 1315.96 221.221 1337.78 253.431C1365.83 295.165 1392.5 334.474 1460.9 341.747C1515.97 347.462 1569.31 332.396 1621.08 317.677C1661.26 306.247 1702.65 294.472 1744.38 292.74C1753.04 292.394 1761.7 292.394 1770.18 292.74C1881.18 297.416 1981.62 361.661 2067.86 422.617L2067.69 422.79C2039.63 410.322 2011.58 394.044 1981.79 376.727C1946.81 356.293 1910.62 335.34 1873.39 320.62C1831.48 304.169 1793.73 298.282 1758.23 302.611C1716.85 307.806 1680.31 320.62 1644.98 332.915C1619.18 341.92 1592.34 351.271 1564.11 357.505C1532.59 364.259 1502.46 366.164 1471.99 363.393C1426.1 359.064 1360.46 348.674 1319.6 308.845C1302.45 292.048 1290.68 270.921 1279.42 250.314C1264.7 223.646 1249.46 195.939 1221.76 177.237C1200.28 163.037 1179.5 154.378 1158.2 151.088C1139.15 148.144 1120.11 149.703 1099.85 155.59C1062.27 166.5 1027.63 190.744 990.922 216.2C977.242 225.724 963.042 235.594 948.842 244.599C901.394 274.557 847.712 293.433 795.588 311.616C752.296 326.681 707.445 342.266 666.404 364.432C631.77 382.961 602.505 403.049 576.529 420.712C535.835 448.419 500.681 472.489 461.545 479.936C440.938 483.919 420.158 483.053 397.992 477.511C373.922 471.45 348.293 459.848 319.373 442.012C271.579 412.4 222.053 389.368 163.348 369.627C110.878 351.964 57.1958 338.803 0.396432 324.95C-15.5351 321.14 -31.9861 316.984 -48.6103 312.828C-59.0005 310.23 -68.1784 307.286 -77.1832 304.516C-91.7294 299.84 -105.41 295.511 -119.61 294.126C-135.541 292.567 -150.78 294.818 -167.577 301.225C-180.045 305.901 -190.262 315.598 -200.306 324.95C-212.428 336.379 -224.03 347.115 -237.364 346.423C-237.538 346.423 -237.538 346.423 -237.711 346.423C-247.235 345.903 -256.932 339.669 -267.323 327.547L-267.669 327.201L-267.323 327.374C-239.616 334.647 -219.008 316.637 -197.016 297.589C-182.124 284.774 -166.711 271.44 -148.182 264.86C-128.268 257.76 -108.527 254.47 -87.7465 254.47C-69.3906 254.47 -50.1689 257.241 -27.4837 262.955C19.2719 274.731 69.664 289.623 118.671 306.074C171.314 323.737 221.014 342.959 262.401 361.661C288.03 373.264 310.196 384.693 329.59 394.737C369.246 415.171 400.59 431.448 435.57 434.739C453.753 436.47 472.282 434.565 492.716 429.197C514.188 423.483 538.259 413.439 566.139 398.72C623.285 368.588 684.587 345.73 743.984 323.737C806.151 300.533 870.57 276.635 929.447 244.253C947.111 234.555 964.428 224.165 981.225 213.948C1041.31 177.237 1099.33 142.256 1167.38 145.027ZM1474.93 343.132C1470.25 342.959 1465.58 342.613 1460.73 342.093C1392.15 334.82 1365.66 295.511 1337.43 253.604C1315.61 221.221 1293.1 187.973 1249.64 167.02C1142.96 115.935 1064.35 163.383 980.879 213.775C964.081 223.819 946.764 234.382 929.101 244.08C870.224 276.462 805.805 300.36 743.637 323.564C684.413 345.557 623.112 368.415 565.966 398.546C538.086 413.266 514.015 423.31 492.542 429.024C472.108 434.392 453.406 436.297 435.397 434.566C400.417 431.275 369.073 414.997 329.417 394.563C310.022 384.52 287.857 373.091 262.228 361.488C220.84 342.959 171.141 323.737 118.498 305.901C69.664 289.45 19.0987 274.557 -27.4837 262.782C-50.1689 257.067 -69.2174 254.47 -87.5733 254.297C-108.354 254.297 -127.922 257.587 -147.836 264.687C-166.365 271.267 -181.604 284.601 -196.497 297.416C-218.316 316.464 -239.096 334.301 -266.63 327.374C-256.24 339.323 -246.716 345.384 -237.538 345.903C-237.364 345.903 -237.364 345.903 -237.191 345.903C-223.857 346.423 -212.428 335.686 -200.306 324.43C-190.262 315.079 -179.872 305.382 -167.404 300.706C-150.434 294.299 -135.195 292.047 -119.263 293.606C-104.89 294.991 -91.2099 299.321 -76.6637 303.996C-67.6589 306.767 -58.481 309.884 -48.0908 312.308C-31.4666 316.464 -15.0156 320.447 0.915944 324.43C57.7153 338.284 111.398 351.444 163.868 369.108C222.399 388.849 272.098 411.88 319.893 441.492C348.812 459.329 374.441 470.931 398.512 476.992C420.677 482.533 441.458 483.399 462.065 479.416C501.201 471.97 536.354 447.899 577.049 420.192C603.024 402.529 632.463 382.442 666.923 363.913C707.964 341.92 752.815 326.162 796.107 311.096C848.231 292.913 901.914 274.211 949.362 244.253C963.562 235.248 977.762 225.378 991.442 215.853C1028.15 190.224 1062.96 166.154 1100.54 155.071C1120.8 149.183 1139.85 147.798 1158.9 150.569C1180.2 153.859 1200.98 162.517 1222.45 176.89C1250.16 195.592 1265.57 223.299 1280.29 250.141C1291.54 270.575 1303.32 291.874 1320.46 308.499C1361.33 348.327 1426.96 358.718 1472.68 363.047C1503.16 365.991 1533.29 363.913 1564.8 357.159C1592.86 351.098 1619.7 341.747 1645.5 332.569C1680.83 320.274 1717.37 307.46 1758.75 302.264C1777.8 299.84 1797.02 300.36 1817.28 303.823C1835.29 306.94 1853.82 312.308 1873.91 320.101C1911.14 334.82 1947.33 355.774 1982.31 376.208C2011.58 393.178 2039.11 409.283 2066.82 421.578C1974.18 356.293 1865.25 287.545 1744.73 292.567C1702.99 294.299 1661.61 306.074 1621.6 317.503C1573.81 331.53 1524.98 345.384 1474.93 343.132Z" fill="white" fill-opacity="0.15"/>
<path d="M1290.68 116.454C1308.51 117.147 1324.97 120.437 1340.38 125.978C1376.57 139.139 1407.22 164.941 1453.28 205.982C1469.22 220.182 1487.4 231.092 1509.22 239.577C1528.61 247.023 1550.26 252.392 1575.37 255.682C1622.12 261.916 1674.59 260.531 1725.16 259.145C1790.96 257.24 1858.85 255.509 1916.34 270.228C1947.33 278.194 1972.96 290.316 1994.44 307.113C2006.04 316.291 2016.78 326.854 2025.95 338.803C2035.65 351.271 2044.14 365.644 2051.24 381.402L2051.41 381.749L2051.06 381.576C1998.07 352.137 1942.49 326.508 1890.19 307.113C1826.46 283.562 1768.45 269.535 1717.89 265.552C1675.11 262.089 1630.78 278.54 1587.84 294.472C1564.98 302.957 1541.43 311.615 1518.91 316.984C1493.81 322.871 1472.33 323.91 1453.46 320.101C1440.3 317.33 1429.39 313.174 1419.86 307.113C1411.38 301.745 1404.28 294.991 1398.04 286.506C1386.61 270.747 1380.38 252.045 1373.97 232.131C1361.68 194.207 1348.86 154.897 1295.7 138.966C1268.34 130.827 1238.73 128.056 1207.73 130.827C1191.8 132.212 1175.69 134.983 1158.9 139.312C1136.9 146.412 1114.74 155.417 1091.53 166.5C1058.8 182.085 1027.11 200.441 996.464 218.104C954.903 242.001 911.958 266.765 864.509 286.16C799.571 312.828 742.772 339.495 685.799 370.32C632.983 398.892 579.3 431.448 516.959 472.836C492.716 488.767 472.109 499.157 453.58 504.352C436.09 509.201 421.024 509.374 407.69 504.872C389.334 498.638 374.268 483.745 360.242 458.116C353.315 445.475 347.081 430.929 340.847 414.651C333.054 408.07 325.608 401.49 318.335 395.083C264.479 348.327 217.897 307.806 164.907 281.657C137.027 267.977 108.454 258.626 77.8032 253.431C44.5548 247.716 8.53568 246.85 -32.3322 250.314C-60.7319 252.738 -96.4047 268.669 -131.038 283.908C-161.516 297.415 -193.206 311.442 -220.394 316.637C-235.113 319.408 -247.235 319.581 -257.625 317.157C-269.227 314.213 -278.405 308.152 -285.505 298.281L-285.678 297.935L-285.332 298.108C-258.144 306.247 -226.974 286.679 -196.843 267.804C-179.526 256.894 -163.248 246.677 -148.009 241.655C-97.4437 224.685 -34.5834 218.97 14.4234 215.853C95.8128 210.658 155.902 217.238 203.524 236.633C231.75 248.062 256.167 264.513 275.908 285.467C297.208 308.152 314.179 337.071 325.954 371.532C331.149 386.597 336.171 400.97 341.193 414.131C343.444 416.036 345.695 417.941 347.947 419.846C370.978 439.587 392.451 452.575 413.578 459.328C432.799 465.562 451.675 466.428 471.416 462.272C508.474 454.48 543.108 429.543 583.456 400.797C598.349 390.061 613.934 378.978 630.385 368.068C683.202 333.435 742.772 314.906 800.091 297.069C854.639 280.099 910.919 262.609 962.35 231.265C1008.93 202.865 1063.48 170.829 1120.63 150.395C1133.79 145.72 1146.6 141.737 1159.07 138.62C1171.88 134.464 1184.53 130.827 1197.17 127.883C1229.72 120.264 1256.56 116.454 1279.42 116.108C1283.06 116.108 1286.87 116.281 1290.68 116.454ZM1621.78 259.665C1605.85 258.972 1590.26 257.76 1575.37 255.682C1550.09 252.218 1528.44 247.023 1509.04 239.404C1487.22 230.919 1469.04 220.009 1453.11 205.809C1407.05 164.941 1376.57 139.139 1340.38 125.978C1321.68 119.225 1301.76 115.934 1279.25 116.281C1256.39 116.627 1229.55 120.437 1196.99 128.056C1185.56 130.654 1174.14 133.944 1162.71 137.581C1178.12 133.944 1193.01 131.347 1207.73 130.134C1238.73 127.364 1268.34 130.134 1295.87 138.273C1349.21 154.205 1362.02 193.514 1374.49 231.611C1380.9 251.526 1387.13 270.228 1398.56 285.986C1404.8 294.472 1411.9 301.225 1420.38 306.593C1429.91 312.654 1440.82 316.81 1453.98 319.581C1472.85 323.391 1494.15 322.525 1519.26 316.464C1541.77 311.096 1565.32 302.437 1588.01 293.952C1630.95 278.021 1675.29 261.57 1718.23 265.033C1768.97 269.016 1826.98 283.042 1890.71 306.593C1942.83 325.988 1998.42 351.617 2051.24 380.883C2044.14 365.298 2035.82 351.098 2026.3 338.63C2017.12 326.681 2006.56 316.118 1994.96 306.94C1973.48 290.142 1948.03 278.194 1917.03 270.228C1859.54 255.509 1791.48 257.24 1725.85 259.145C1690.87 260.184 1655.54 261.223 1621.78 259.665ZM425.007 507.296C433.665 507.642 443.016 506.43 453.233 503.66C471.762 498.465 492.369 488.248 516.613 472.143C578.954 430.756 632.636 398.2 685.453 369.627C742.425 338.803 799.225 311.962 864.163 285.467C911.611 266.072 954.557 241.309 996.118 217.411C1026.77 199.748 1058.46 181.565 1091.36 165.807C1113.18 155.417 1134.13 146.759 1154.91 139.832C1143.83 142.776 1132.4 146.412 1120.45 150.568C1063.31 171.002 1008.76 203.038 962.177 231.438C910.745 262.782 854.292 280.272 799.917 297.242C742.425 315.079 683.028 333.608 630.212 368.242C613.588 379.151 598.176 390.234 583.283 400.97C543.108 429.716 508.301 454.653 471.243 462.445C451.502 466.601 432.626 465.562 413.404 459.502C392.278 452.748 370.805 439.76 347.773 420.019C345.695 418.287 343.617 416.382 341.539 414.651C347.6 430.582 353.834 445.129 360.761 457.597C374.788 483.226 389.68 497.945 408.036 504.179C413.058 505.911 418.946 506.95 425.007 507.296ZM340.327 413.612C335.305 400.451 330.283 386.424 325.262 371.532C313.486 337.244 296.515 308.325 275.216 285.64C255.474 264.687 231.231 248.236 203.004 236.806C155.383 217.411 95.2933 210.831 14.0771 216.026C-34.9297 219.143 -97.6168 224.858 -148.182 241.828C-163.421 246.85 -179.699 257.24 -197.016 267.977C-227.147 286.852 -258.144 306.42 -285.332 298.454C-278.232 307.979 -269.227 314.04 -257.798 316.81C-247.408 319.408 -235.286 319.235 -220.74 316.291C-193.552 311.096 -162.036 297.069 -131.558 283.562C-96.9242 268.323 -61.0782 252.392 -32.6785 249.967C8.18935 246.331 44.2085 247.37 77.6301 253.084C108.281 258.279 136.854 267.457 164.907 281.311C218.07 307.459 264.652 347.808 318.508 394.736C325.435 400.797 332.881 407.205 340.327 413.612Z" fill="white" fill-opacity="0.15"/>
<path d="M1412.24 57.2302C1428.17 57.9229 1442.55 60.1741 1455.71 64.157C1468.52 67.9667 1480.12 73.5081 1490 80.4349C1500.56 87.8811 1509.74 97.2322 1517.01 108.142C1528.96 125.978 1534.15 140.005 1538.14 151.088C1542.12 161.997 1545.24 170.656 1552.86 178.968C1560.99 188.146 1573.46 196.112 1593.38 204.943C1614.16 214.121 1643.6 216.546 1669.57 218.45C1680.31 219.316 1690.52 220.009 1699.7 221.394C1758.58 229.36 1821.09 239.404 1879.63 257.76C1909.76 267.284 1936.94 278.367 1962.75 291.701C1990.97 306.247 2016.78 322.871 2041.54 342.786L2042.06 343.305L2041.37 343.132C1999.8 329.971 1960.15 311.615 1921.88 293.779C1887.76 277.847 1852.44 261.57 1816.59 249.275C1776.42 235.594 1739.19 228.494 1702.99 227.802C1669.92 227.109 1644.64 229.533 1622.12 231.611C1568.09 236.633 1535.54 239.75 1470.43 189.531C1450.69 174.292 1430.43 161.651 1410.16 151.607C1390.77 142.083 1370.86 134.81 1350.59 129.961C1313.36 120.956 1275.09 119.917 1233.53 126.325C1198.73 131.693 1160.97 142.776 1118.03 160.093C1079.76 175.505 1040.8 194.38 1003.22 212.563C949.362 238.711 893.602 265.726 838.015 283.389C821.39 288.584 804.247 293.433 787.622 298.108C759.396 306.074 730.304 314.213 702.25 325.122C694.284 329.452 686.319 333.954 678.526 338.456C662.421 347.461 645.97 356.812 629.519 365.471C621.9 371.012 614.107 376.9 606.315 382.961C566.486 413.265 525.272 444.436 485.27 447.553C466.394 449.111 450.29 446.86 436.263 440.799C423.795 435.431 413.058 427.119 403.707 415.17C386.39 393.178 376.52 363.393 365.956 331.876C354.527 297.415 342.752 261.743 320.24 237.153C299.806 214.814 273.311 198.709 241.621 189.012C214.26 180.7 182.051 177.063 145.859 178.102C116.074 178.968 83.5178 183.124 46.6329 190.57C14.943 196.978 -14.8421 204.77 -42.5491 212.216C-61.0782 217.238 -87.3998 230.226 -115.453 244.079C-142.987 257.587 -174.331 272.999 -202.557 283.042C-234.94 294.472 -258.837 296.896 -275.461 290.835C-286.198 286.852 -294.163 279.233 -299.012 268.15V267.977H-298.839C-242.559 262.435 -175.37 233.689 -104.37 203.385C-30.6005 171.868 45.767 139.312 118.152 128.576C157.288 122.861 191.402 124.073 222.226 132.212C239.023 136.715 254.955 143.468 269.674 152.127C285.086 161.305 299.806 173.08 313.14 187.107C340.327 215.853 353.488 254.47 365.956 291.874C377.385 325.469 387.949 357.332 408.209 379.671C419.119 391.619 431.587 399.931 446.826 404.78C463.797 410.322 483.365 411.707 506.916 409.109C532.198 406.339 560.079 397.853 592.115 383.307C604.41 377.766 616.878 371.532 629.173 365.124C645.104 353.522 660.516 343.132 675.236 336.205C684.067 332.049 692.899 328.239 701.904 324.776C738.962 304.342 776.54 284.947 813.598 274.211C871.609 257.413 923.041 227.282 972.74 198.017C1022.96 168.578 1074.91 137.927 1134.31 120.783C1150.24 116.108 1168.07 110.393 1187.12 104.159C1242.02 86.3226 1310.25 64.157 1370.86 58.2692C1386.27 57.0571 1399.77 56.7107 1412.24 57.2302ZM2040.85 342.613C2016.26 323.044 1990.63 306.42 1962.75 292.047C1936.94 278.713 1909.76 267.63 1879.63 258.106C1821.09 239.577 1758.58 229.706 1699.88 221.741C1690.87 220.528 1680.65 219.663 1669.74 218.797C1643.77 216.719 1614.33 214.468 1593.55 205.116C1573.64 196.285 1560.99 188.146 1552.86 178.968C1545.24 170.483 1542.12 161.824 1538.14 150.915C1533.98 139.659 1528.96 125.805 1517.01 107.969C1509.74 97.0591 1500.56 87.708 1490 80.2617C1480.12 73.3349 1468.52 67.7935 1455.71 63.9838C1432.5 57.0571 1404.97 55.1522 1371.72 58.4424C1311.11 64.3302 1242.88 86.4958 1187.99 104.159C1168.94 110.393 1151.1 116.108 1135.17 120.783C1075.78 137.927 1023.82 168.578 973.606 198.017C923.906 227.282 872.475 257.413 814.291 274.211C777.925 284.774 740.694 303.65 704.328 323.91C731.689 313.347 760.089 305.381 787.796 297.589C804.42 292.913 821.39 288.064 838.188 282.869C893.602 265.206 949.362 238.192 1003.39 212.043C1040.97 193.86 1079.93 174.985 1118.2 159.573C1161.15 142.256 1198.9 131.173 1233.71 125.805C1275.44 119.225 1313.71 120.437 1350.94 129.442C1371.03 134.29 1391.12 141.563 1410.51 151.088C1430.77 161.132 1451.21 173.773 1470.77 189.012C1501.42 212.563 1526.01 225.55 1550.43 230.745C1573.46 235.594 1594.94 233.516 1622.12 231.092C1644.46 229.014 1669.92 226.589 1702.99 227.282C1739.19 227.975 1776.42 235.075 1816.77 248.755C1852.78 261.05 1887.94 277.501 1922.05 293.259C1960.15 311.096 1999.46 329.452 2040.85 342.613ZM478.862 410.668C467.26 410.148 456.697 408.417 447.172 405.126C431.934 400.105 419.292 391.966 408.383 379.844C388.122 357.505 377.385 325.642 365.956 292.047C353.315 254.643 340.327 216.199 313.14 187.453C299.806 173.427 285.26 161.651 269.848 152.473C255.128 143.815 239.197 137.061 222.399 132.559C191.575 124.247 157.634 123.034 118.498 128.922C46.1134 139.485 -30.081 172.214 -103.851 203.731C-174.85 234.036 -242.04 262.782 -298.32 268.323C-293.471 279.233 -285.678 286.852 -275.115 290.662C-258.491 296.723 -234.593 294.125 -202.384 282.869C-174.157 272.999 -142.814 257.587 -115.28 243.906C-87.3998 230.226 -60.905 217.065 -42.3759 212.043C-14.8421 204.597 15.1161 196.804 46.806 190.397C83.691 182.951 116.247 178.968 146.032 177.929C182.051 176.717 214.433 180.526 241.794 188.839C273.484 198.536 300.152 214.641 320.586 236.98C343.098 261.57 355.047 297.242 366.476 331.703C376.866 363.22 386.737 393.005 404.053 414.997C413.405 426.773 423.968 435.085 436.436 440.453C450.463 446.514 466.394 448.765 485.27 447.207C525.272 444.089 566.313 412.746 606.142 382.615C613.588 377.073 620.688 371.532 627.961 366.337C616.185 372.571 604.237 378.458 592.461 383.827C560.425 398.373 532.545 406.685 507.089 409.629C497.218 410.668 487.694 411.014 478.862 410.668ZM631.424 364.259C647.356 355.773 663.114 346.942 678.699 338.11C685.972 333.954 693.245 329.971 700.692 325.815C692.38 329.105 684.067 332.569 675.929 336.378C661.556 343.305 646.836 353.176 631.424 364.259Z" fill="white" fill-opacity="0.15"/>
<path d="M1454.5 28.6572C1464.71 29.1768 1474.58 30.2158 1483.93 32.1206C1505.23 36.4498 1524.46 45.1083 1544.72 59.135C1562.55 71.43 1578.14 85.9761 1594.76 101.561C1628.36 132.905 1663.16 165.114 1716.5 176.717C1771.22 188.665 1829.41 202.346 1884.3 222.953C1942.83 244.772 1992.7 272.479 2036.34 307.632L2036.86 308.152L2036.17 307.979C1990.8 294.471 1948.55 275.769 1907.51 257.76C1878.59 244.945 1848.63 231.784 1818.15 220.702C1784.04 208.233 1752.69 199.921 1722.39 195.073C1711.82 193.341 1700.91 192.129 1689.49 190.916C1656.93 187.28 1623.16 183.643 1596.49 168.058C1574.16 155.071 1563.42 135.329 1553.03 116.454C1544.72 101.388 1536.23 85.803 1522.03 74.0275C1505.06 59.8276 1480.82 51.5155 1450.17 49.0912C1423.67 47.0131 1391.64 49.2643 1354.58 55.8448C1286.69 67.9666 1212.41 92.7297 1158.2 110.912C1141.58 116.454 1125.82 121.822 1112.66 125.805C1079.07 136.195 1046.51 149.702 1014.47 164.422C1001.49 171.868 988.671 179.661 976.03 187.28C931.352 214.294 885.289 242.174 834.031 257.76C825.373 260.357 816.541 262.608 807.883 264.686C792.817 271.094 777.405 276.981 761.82 282.35C733.074 292.22 697.574 314.04 659.997 337.071C623.285 359.583 585.361 382.788 548.822 398.373C507.262 416.036 474.533 420.192 448.558 411.187C434.877 406.512 423.448 399.931 413.751 391.1C405.092 383.307 397.819 373.783 391.585 362.18C380.156 340.534 374.268 315.598 368.207 288.93C356.951 240.443 345.522 190.397 296.169 163.383C281.969 155.59 263.44 151.953 239.37 151.78C217.897 151.607 192.787 154.551 162.136 160.439C105.683 171.348 40.3986 191.263 -22.6348 210.658C-155.975 251.352 -281.695 289.796 -305.42 238.365L-305.593 238.192H-305.42C-288.276 240.27 -269.574 239.923 -248.101 237.326C-229.052 234.901 -208.272 230.745 -184.548 224.511C-140.39 212.736 -94.3268 195.938 -45.4931 178.275C26.1988 152.3 100.315 125.285 167.678 115.415C204.043 110.047 235.387 110.22 263.267 115.588C278.506 118.532 292.706 123.207 305.693 129.268C319.374 135.849 332.188 144.161 343.617 154.378C375.307 182.431 386.563 222.606 397.3 261.569C406.131 293.259 414.443 323.391 433.319 343.305C443.536 354.042 455.831 360.968 471.243 364.605C488.213 368.588 508.647 368.588 533.41 364.259C563.715 359.063 590.556 342.439 616.531 326.161C632.463 316.291 648.914 306.074 665.885 298.628C698.094 284.601 731.342 278.713 763.552 272.999C777.925 270.401 792.817 267.803 807.537 264.34C849.27 246.85 889.619 226.243 928.928 206.155C956.808 191.956 985.208 177.409 1014.13 164.075C1047.03 145.027 1081.14 127.537 1118.2 116.108C1140.19 109.354 1165.65 100.349 1192.66 90.8249C1276.13 61.213 1377.26 25.367 1454.5 28.6572ZM2035.3 307.286C1991.67 272.479 1942.14 244.945 1883.78 223.126C1828.89 202.692 1770.7 188.838 1716.15 176.89C1662.82 165.287 1628.01 132.905 1594.42 101.561C1577.79 86.1493 1562.21 71.6031 1544.37 59.3081C1524.28 45.2815 1504.89 36.7962 1483.76 32.467C1404.45 16.0159 1287.21 57.5765 1193.01 90.998C1166 100.522 1140.54 109.527 1118.55 116.281C1082.53 127.364 1049.11 144.334 1017.07 162.69C1048.07 148.49 1079.76 135.502 1112.49 125.285C1125.65 121.129 1141.41 115.934 1158.03 110.393C1212.23 92.2102 1286.35 67.4471 1354.4 55.3253C1391.46 48.7448 1423.67 46.4936 1449.99 48.5717C1480.82 50.996 1505.06 59.4813 1522.03 73.508C1536.4 85.2835 1544.89 100.869 1553.03 115.934C1563.42 134.81 1574.16 154.378 1596.32 167.366C1622.82 182.778 1656.58 186.587 1689.14 190.051C1700.74 191.263 1711.65 192.475 1722.04 194.207C1752.35 199.055 1783.69 207.541 1817.8 220.009C1848.28 231.092 1878.24 244.252 1907.16 257.067C1948.2 275.25 1990.28 293.952 2035.3 307.286ZM492.716 367.549C485.096 367.202 477.996 366.337 471.243 364.778C455.831 361.141 443.536 354.215 433.319 343.478C414.27 323.564 405.958 293.432 397.126 261.743C386.39 222.78 375.134 182.604 343.617 154.724C332.188 144.68 319.374 136.195 305.693 129.615C292.706 123.381 278.506 118.878 263.267 115.934C235.387 110.566 204.216 110.393 167.678 115.761C100.142 125.632 26.1988 152.473 -45.4931 178.621C-94.3268 196.458 -140.39 213.082 -184.548 224.858C-208.272 231.092 -229.052 235.421 -248.101 237.845C-269.4 240.443 -288.103 240.789 -305.246 238.884C-281.349 289.623 -155.802 251.352 -22.808 210.831C40.2255 191.609 105.51 171.695 162.136 160.612C192.614 154.724 217.897 151.78 239.37 151.953C263.613 152.127 282.142 155.936 296.342 163.556C345.695 190.57 357.298 240.616 368.38 289.276C374.441 315.771 380.329 340.881 391.758 362.354C397.992 373.956 405.092 383.307 413.924 391.1C423.621 399.931 435.05 406.339 448.731 411.187C474.533 420.192 507.262 415.863 548.822 398.373C585.361 382.961 623.285 359.583 659.997 337.071C697.574 314.04 733.074 292.22 761.82 282.35C776.886 277.155 791.778 271.44 806.324 265.379C792.125 268.669 777.752 271.094 763.898 273.691C731.689 279.406 698.44 285.294 666.404 299.32C649.433 306.593 632.982 316.983 617.051 326.854C591.076 343.132 564.061 359.756 533.757 364.951C518.345 367.029 504.838 368.068 492.716 367.549ZM809.441 263.821C817.58 261.916 825.893 259.838 834.031 257.24C885.289 241.655 931.352 213.775 976.03 186.76C987.805 179.661 999.754 172.387 1011.7 165.461C983.649 178.448 956.289 192.475 929.274 206.329C890.485 226.07 850.656 246.504 809.441 263.821Z" fill="white" fill-opacity="0.15"/>
<path d="M1497.79 0.431141C1507.49 0.777479 1517.18 1.81649 1526.36 3.54818C1552.16 8.22374 1567.4 12.8993 1577.27 19.4797C1586.62 25.7138 1590.61 33.5064 1596.15 44.0697C1602.38 56.0184 1610.17 70.7377 1629.05 91.1716C1654.68 118.705 1669.74 121.823 1692.6 126.498C1702.82 128.576 1714.25 131 1728.8 135.849C1755.81 145.027 1782.82 152.82 1808.8 160.093C1890.02 183.124 1966.73 205.117 2034.78 270.921L2035.13 271.267L2034.61 271.094C1956.51 251.006 1874.6 221.914 1795.29 193.688C1761.7 181.739 1730.01 170.483 1698.49 159.747C1648.96 142.949 1624.55 111.086 1601 80.0888C1580.22 52.7281 1560.47 26.926 1524.8 11.514C1458.31 -17.2321 1315.96 35.9308 1212.06 74.8938C1178.46 87.5351 1149.37 98.2716 1127.73 104.679C1077.33 119.398 1030.58 143.295 985.381 166.5C941.916 188.839 896.892 211.87 849.097 226.243C813.771 236.98 770.479 247.37 727.013 255.682C679.565 264.687 635.753 270.575 600.6 272.479C580.859 273.518 562.503 271.96 544.32 267.804C528.215 263.994 512.63 258.28 496.872 249.967C467.606 234.729 441.977 213.429 417.041 192.822C397.126 176.371 376.693 159.227 354.7 145.72C330.11 130.481 305.866 121.303 281.103 117.493C229.672 109.701 137.893 142.083 40.5718 176.371C-33.025 202.346 -109.219 229.187 -173.119 240.443C-207.579 246.504 -235.286 247.543 -257.625 243.56C-269.747 241.309 -280.483 237.673 -289.315 232.477C-298.666 226.936 -306.285 219.663 -312 210.831L-312 210.485H-311.827C-230.437 203.385 -141.775 180.007 -56.0564 157.322C3.51367 141.564 65.1618 125.286 124.559 114.376C191.229 102.081 247.855 98.0984 297.381 102.081C330.283 104.679 360.415 114.549 389.334 131.866C415.136 147.278 437.475 167.193 458.948 186.241C474.533 200.095 490.811 214.468 507.955 226.763C527.176 240.616 545.705 250.487 564.754 257.067C581.898 262.955 604.756 265.38 632.809 264.167C656.88 263.128 684.76 259.319 715.93 253.085C784.332 239.231 844.595 218.104 861.392 211.87C908.321 194.727 952.825 173.773 995.771 153.512C1054.65 125.805 1115.6 97.0594 1182.97 78.184C1208.08 71.084 1235.26 61.9061 1264.01 52.0355C1340.03 26.2333 1424.88 -2.6859 1497.79 0.431141ZM2034.26 270.748C1966.38 205.117 1889.84 183.297 1808.8 160.266C1782.82 152.82 1755.98 145.2 1728.8 136.022C1714.25 131 1702.82 128.749 1692.6 126.671C1669.74 121.996 1654.51 118.879 1628.88 91.3448C1609.83 70.9109 1602.21 56.1915 1595.97 44.2429C1590.43 33.6796 1586.45 26.0601 1577.1 19.8261C1567.4 13.2456 1552.16 8.57008 1526.36 3.89452C1447.92 -10.1322 1350.25 23.1163 1264.01 52.3818C1235.26 62.2524 1208.08 71.4304 1182.97 78.5303C1115.6 97.4057 1054.82 126.152 995.771 153.859C952.825 174.12 908.321 195.073 861.392 212.217C844.595 218.451 784.332 239.577 715.93 253.431C684.76 259.665 656.88 263.475 632.809 264.514C604.756 265.726 581.725 263.302 564.581 257.414C545.532 250.833 527.003 240.963 507.781 226.936C490.638 214.641 474.36 200.268 458.775 186.415C437.129 167.193 414.79 147.452 389.161 132.039C360.242 114.723 330.283 105.025 297.381 102.254C247.855 98.2716 191.229 102.254 124.559 114.549C65.1618 125.459 3.51367 141.737 -56.0564 157.495C-141.602 180.18 -230.091 203.731 -311.48 210.831C-305.766 219.663 -298.32 226.763 -288.969 232.131C-280.137 237.326 -269.574 240.963 -257.452 243.214C-235.113 247.197 -207.579 246.158 -172.945 240.097C-109.046 228.841 -33.025 202 40.745 176.024C131.139 144.161 217.031 113.857 270.021 116.281C274.003 116.454 277.64 116.801 281.277 117.32C306.213 121.13 330.283 130.308 355.046 145.547C377.039 159.054 397.646 176.198 417.56 192.649C442.324 213.256 468.126 234.555 497.391 249.794C513.15 257.933 528.562 263.821 544.666 267.631C562.676 271.787 581.032 273.345 600.773 272.306C635.926 270.401 679.738 264.687 727.186 255.509C770.652 247.197 814.117 236.807 849.27 226.07C897.065 211.697 941.916 188.493 985.554 166.327C1030.75 143.122 1077.51 119.225 1127.9 104.506C1149.55 98.2716 1178.46 87.3619 1212.23 74.7206C1316.31 35.7576 1458.65 -17.4053 1525.32 11.3408C1560.99 26.7528 1580.74 52.7281 1601.52 80.0888C1625.07 110.913 1649.31 142.776 1698.84 159.573C1730.35 170.31 1762.22 181.566 1795.64 193.514C1874.6 221.568 1956.34 250.66 2034.26 270.748Z" fill="white" fill-opacity="0.15"/>
</svg>
