<svg width="32" height="32" viewBox="0 0 32 32" fill="none" xmlns="http://www.w3.org/2000/svg">
<path d="M24.5986 7.17871C22.5527 5.12793 19.8281 4 16.9326 4C10.9561 4 6.09277 8.86328 6.09277 14.8398C6.09277 16.749 6.59082 18.6143 7.53809 20.2598L6 25.875L11.7471 24.3662C13.3291 25.2305 15.1113 25.6846 16.9277 25.6846H16.9326C22.9043 25.6846 27.875 20.8213 27.875 14.8447C27.875 11.9492 26.6445 9.22949 24.5986 7.17871ZM16.9326 23.8584C15.3115 23.8584 13.7246 23.4238 12.3428 22.6035L12.0156 22.4082L8.60742 23.3018L9.51562 19.9766L9.30078 19.6348C8.39746 18.1992 7.92383 16.5439 7.92383 14.8398C7.92383 9.87402 11.9668 5.83105 16.9375 5.83105C19.3447 5.83105 21.6055 6.76855 23.3047 8.47266C25.0039 10.1768 26.0488 12.4375 26.0439 14.8447C26.0439 19.8154 21.8984 23.8584 16.9326 23.8584ZM21.874 17.1104C21.6055 16.9736 20.2725 16.3193 20.0234 16.2314C19.7744 16.1387 19.5938 16.0947 19.4131 16.3682C19.2324 16.6416 18.7148 17.2471 18.5537 17.4326C18.3975 17.6133 18.2363 17.6377 17.9678 17.501C16.376 16.7051 15.3311 16.0801 14.2813 14.2783C14.0029 13.7998 14.5596 13.834 15.0771 12.7988C15.165 12.6182 15.1211 12.4619 15.0527 12.3252C14.9844 12.1885 14.4424 10.8555 14.2178 10.3135C13.998 9.78613 13.7734 9.85938 13.6074 9.84961C13.4512 9.83984 13.2705 9.83984 13.0898 9.83984C12.9092 9.83984 12.6162 9.9082 12.3672 10.1768C12.1182 10.4502 11.4199 11.1045 11.4199 12.4375C11.4199 13.7705 12.3916 15.0596 12.5234 15.2402C12.6602 15.4209 14.4326 18.1553 17.1523 19.332C18.8711 20.0742 19.5449 20.1377 20.4043 20.0107C20.9268 19.9326 22.0059 19.3564 22.2305 18.7217C22.4551 18.0869 22.4551 17.5449 22.3867 17.4326C22.3232 17.3105 22.1426 17.2422 21.874 17.1104Z" fill="white"/>
</svg>
