<svg width="40" height="40" viewBox="0 0 40 40" fill="none" xmlns="http://www.w3.org/2000/svg">
<path d="M30.4127 17.1947C30.4127 10.8918 26.3113 5.74868 19.5783 5.64954V5.64914C19.5556 5.6489 19.5364 5.64826 19.5236 5.64753C19.52 5.64733 19.5166 5.64692 19.5136 5.64673C19.4753 5.64852 19.4421 5.64915 19.4213 5.64914C12.6885 5.7488 8.58732 10.8919 8.5873 17.1947C8.5873 21.3063 11.2676 25.5513 14.1448 28.8914C16.3386 31.4381 18.5532 33.3514 19.5043 34.136C21.3702 32.6522 23.9559 30.5576 26.1519 27.8657C28.5438 24.9334 30.4127 21.3652 30.4127 17.1947ZM17.5166 11.9979C18.4639 11.591 19.5063 11.4846 20.5118 11.692C21.5173 11.8995 22.441 12.4116 23.166 13.1634V13.1638C23.8909 13.9158 24.3847 14.8737 24.5847 15.9166C24.7846 16.9595 24.6818 18.0407 24.2894 19.023C23.897 20.0053 23.2325 20.8447 22.3801 21.4354C21.5809 21.9891 20.6499 22.301 19.6918 22.3377L19.5 22.3413C18.8192 22.3413 18.1452 22.2023 17.5163 21.9321C16.8874 21.662 16.3161 21.2658 15.8348 20.7666C15.3535 20.2674 14.9714 19.6749 14.711 19.0226L14.6637 18.8996C14.4343 18.2828 14.3168 17.627 14.3169 16.9652C14.3169 15.9018 14.6208 14.8622 15.1903 13.9781L15.3 13.8145C15.8617 13.0089 16.6287 12.3793 17.5166 11.9979ZM32 17.1947C32 21.9004 29.8885 25.8341 27.3637 28.9292C24.8412 32.0213 21.8452 34.349 19.9829 35.8301C19.698 36.0566 19.302 36.0566 19.0171 35.8301C18.8837 35.7239 15.9078 33.4093 12.9609 29.9882C10.0475 26.6061 7 21.9594 7 17.1947C7.00002 10.088 11.7082 4.11703 19.3989 4.00328H19.4368C19.5102 3.9972 19.5716 4.00119 19.5922 4.00248C19.5977 4.00282 19.604 4.00313 19.6062 4.00328C19.607 4.00333 19.6076 4.00365 19.6081 4.00368C19.6072 4.00364 19.606 4.00333 19.6046 4.00328H19.6008C27.2915 4.11651 32 10.088 32 17.1947ZM15.9042 16.9652C15.9041 17.3937 15.975 17.8186 16.1138 18.2212L16.1778 18.3924L16.2494 18.5604C16.4257 18.9469 16.6649 19.2996 16.9571 19.6026C17.291 19.949 17.6876 20.2239 18.1239 20.4113C18.5602 20.5987 19.0278 20.695 19.5 20.695C20.2112 20.6951 20.9066 20.4766 21.4981 20.0668C22.0896 19.657 22.5508 19.0744 22.823 18.3928C23.0953 17.7113 23.1663 16.9613 23.0276 16.2377C22.8889 15.5142 22.5466 14.8495 22.0437 14.3278C21.5408 13.8061 20.8998 13.4509 20.2022 13.3069C19.5045 13.163 18.7815 13.2368 18.1243 13.5191C17.4671 13.8014 16.9055 14.2795 16.5102 14.8929C16.1151 15.5063 15.9042 16.2275 15.9042 16.9652Z" fill="#F30505"/>
</svg>
