<svg width="63" height="78" viewBox="0 0 63 78" fill="none" xmlns="http://www.w3.org/2000/svg">
<path fill-rule="evenodd" clip-rule="evenodd" d="M31.274 2.00768C31.35 2.00768 31.425 2.00768 31.5 2.00168C31.575 1.99568 31.649 2.00768 31.726 2.00768C49.9 2.26568 61 15.7687 61 32.0597C61 53.6267 40.938 68.5147 31.5 75.7517C30.869 75.2677 2 53.6267 2 32.0597C2 15.7687 13.1 2.26668 31.274 2.00768ZM31.5 42.5647C33.6881 42.5649 35.8271 41.9162 37.6465 40.7007C39.466 39.4852 40.8841 37.7575 41.7216 35.736C42.5591 33.7145 42.7783 31.4901 42.3516 29.344C41.9248 27.1979 40.8712 25.2266 39.3241 23.6793C37.7769 22.132 35.8057 21.0783 33.6597 20.6513C31.5136 20.2244 29.2892 20.4434 27.2676 21.2807C25.246 22.118 23.5182 23.536 22.3025 25.3553C21.0869 27.1746 20.438 29.3136 20.438 31.5017C20.4379 32.9544 20.7239 34.393 21.2798 35.7352C21.8356 37.0774 22.6504 38.297 23.6776 39.3243C24.7048 40.3516 25.9244 41.1666 27.2665 41.7225C28.6087 42.2785 30.0472 42.5647 31.5 42.5647Z" stroke="#FE2D74" stroke-width="3" stroke-linecap="round" stroke-linejoin="round"/>
</svg>
