<svg width="40" height="40" viewBox="0 0 40 40" fill="none" xmlns="http://www.w3.org/2000/svg">
<path d="M11.6611 18.329C11.6611 18.0578 11.7152 17.7893 11.8207 17.5392L11.8623 17.4467C11.9651 17.2332 12.1048 17.0388 12.2747 16.873L14.92 14.2737L14.9216 14.2721C14.964 14.2307 14.9964 14.1795 15.0158 14.1235C15.035 14.0677 15.0408 14.0082 15.0331 13.9498L14.23 8.0063L14.2227 7.96792C14.2013 7.87978 14.1513 7.80069 14.0797 7.74371C13.998 7.67863 13.8943 7.64702 13.7901 7.65564C13.7881 7.6558 13.786 7.6563 13.784 7.65645L7.17732 8.15456C5.86977 15.1056 6.81065 22.4281 12.2897 27.8134C17.7619 33.192 25.1912 34.1062 32.273 32.8418L32.3449 25.8726C32.3448 25.7702 32.3059 25.6717 32.2358 25.5971C32.1652 25.5221 32.0686 25.4767 31.966 25.4706C31.964 25.4705 31.9618 25.4708 31.9599 25.4706L26.4205 25.1066H26.4193C26.3591 25.1026 26.2988 25.1113 26.2424 25.1321V25.1325C26.1859 25.1533 26.1343 25.1857 26.0913 25.2278L23.4105 27.8626L23.4088 27.8647C23.0193 28.2451 22.4961 28.4577 21.9517 28.4577C21.4073 28.4577 20.8845 28.245 20.4949 27.8647L20.4929 27.8626L12.2723 19.7829V19.7825C12.1036 19.6173 11.9646 19.4242 11.8623 19.2117L11.8207 19.1192C11.7152 18.869 11.6611 18.6002 11.6611 18.329ZM13.3158 18.329C13.3158 18.3796 13.3257 18.4299 13.3453 18.4764L13.3619 18.5108C13.3739 18.5328 13.3881 18.5537 13.4043 18.573L13.4301 18.6008L13.4321 18.6029L21.6507 26.6806C21.7312 26.7591 21.8393 26.803 21.9517 26.803C22.0642 26.803 22.1723 26.7591 22.2527 26.6806L24.9331 24.0462L24.9347 24.0446C25.1442 23.8397 25.3946 23.6814 25.6695 23.58L25.7733 23.5444C26.0177 23.4686 26.2742 23.4384 26.53 23.4556H26.5296L32.0686 23.8191H32.0682C32.591 23.8512 33.0819 24.0816 33.4409 24.4631L33.5067 24.5362C33.8254 24.9092 34.0011 25.385 34 25.8779C34 25.8801 34 25.8825 34 25.8847L33.9257 33.0413C33.9256 33.0436 33.9257 33.0459 33.9257 33.0482C33.9201 33.3405 33.826 33.6232 33.657 33.8594L33.5803 33.9576C33.3632 34.2116 33.0645 34.3821 32.7359 34.4403L32.7355 34.4399C25.3082 35.8023 17.1715 34.9321 11.1299 28.9938C5.07378 23.0415 4.16907 14.9986 5.58281 7.68109L5.58362 7.67786C5.64514 7.36649 5.80734 7.08383 6.04537 6.87393H6.04578C6.28264 6.66515 6.58133 6.54016 6.89615 6.51721V6.5168H6.89979L6.901 6.5164V6.5168L13.6535 6.00697C13.6555 6.00681 13.6576 6.00632 13.6596 6.00616V6.00657C14.1819 5.96487 14.7007 6.12279 15.1107 6.44934L15.1103 6.44974C15.496 6.75694 15.7585 7.19098 15.8516 7.67301L15.8677 7.77037L15.869 7.77724L16.6729 13.7284L16.6733 13.7292C16.7153 14.0433 16.6833 14.3631 16.58 14.6628C16.4769 14.9617 16.3053 15.2321 16.0794 15.4534L16.0798 15.4538L13.4321 18.0555L13.4301 18.0575C13.3939 18.0928 13.3649 18.1353 13.3453 18.1819C13.3257 18.2283 13.3158 18.2783 13.3158 18.329Z" fill="#F30505"/>
</svg>
