<svg width="70" height="70" viewBox="0 0 70 70" fill="none" xmlns="http://www.w3.org/2000/svg">
<path fill-rule="evenodd" clip-rule="evenodd" d="M3.37423 4.44419C3.4378 4.12245 3.60554 3.8306 3.85152 3.61371C4.09751 3.39682 4.40807 3.26696 4.73523 3.24419L21.0852 2.01019C21.8448 1.94737 22.5997 2.17678 23.1958 2.6516C23.792 3.12641 24.1845 3.81084 24.2932 4.56519L26.2372 18.9502C26.2975 19.401 26.2517 19.8597 26.1034 20.2898C25.9552 20.7198 25.7086 21.1093 25.3832 21.4272L18.9832 27.7162C18.7047 27.9879 18.4833 28.3127 18.3322 28.6712C18.181 29.0298 18.1032 29.415 18.1032 29.8042C18.1032 30.1933 18.181 30.5785 18.3322 30.9371C18.4833 31.2957 18.7047 31.6204 18.9832 31.8922L38.8552 51.4232C39.4233 51.9779 40.1858 52.2884 40.9797 52.2884C41.7737 52.2884 42.5362 51.9779 43.1042 51.4232L49.5882 45.0502C49.8936 44.7516 50.2585 44.5209 50.6592 44.3731C51.0598 44.2252 51.4871 44.1636 51.9132 44.1922L65.3042 45.0712C66.0628 45.1156 66.7756 45.4488 67.2963 46.0022C67.8169 46.5556 68.106 47.2873 68.1042 48.0472L67.9252 65.3472C67.9187 65.691 67.793 66.0218 67.5695 66.2832C67.3461 66.5446 67.0388 66.7202 66.7002 66.7802C49.1002 70.0112 30.1922 67.8892 16.2212 54.1572C2.22823 40.4042 0.0312339 21.7472 3.37423 4.44419Z" stroke="#FE2D74" stroke-width="3" stroke-linecap="round" stroke-linejoin="round"/>
</svg>
