<svg width="40" height="40" viewBox="0 0 40 40" fill="none" xmlns="http://www.w3.org/2000/svg">
<g clip-path="url(#clip0_2237_5449)">
<path d="M34.9125 7.38494C35.3101 7.10062 35.8615 7.19482 36.144 7.59501C36.4264 7.9952 36.3333 8.55027 35.9357 8.83459L20.5691 19.8233C20.2629 20.0422 19.8525 20.0423 19.5463 19.8233L4.18017 8.83459C3.78262 8.5503 3.6891 7.99519 3.97146 7.59501C4.25391 7.19486 4.80541 7.10074 5.20299 7.38494L20.0577 18.0082L34.9125 7.38494Z" fill="#F30505"/>
<path d="M35.3489 9.20443C35.3489 8.53348 34.7273 7.82373 33.7409 7.77995L33.6443 7.77778H6.47124C5.42897 7.77778 4.76624 8.5118 4.76623 9.20443V30.6224C4.76634 31.3133 5.4287 32.0477 6.47124 32.0477L33.6443 32.0486C34.6865 32.0485 35.3488 31.3144 35.3489 30.6224V9.20443ZM37.1151 30.6224C37.115 32.4875 35.4605 33.8263 33.6443 33.8264L6.47124 33.8255C4.65527 33.8255 3.0001 32.4869 3 30.6224V9.20443C3.00001 7.33885 4.65487 6 6.47124 6H33.6443L33.8138 6.00391C35.5622 6.08414 37.1151 7.39711 37.1151 9.20443V30.6224Z" fill="#F30505"/>
</g>
<defs>
<clipPath id="clip0_2237_5449">
<rect width="34" height="28" fill="white" transform="translate(3 6)"/>
</clipPath>
</defs>
</svg>
