<svg width="57" height="48" viewBox="0 0 57 48" fill="none" xmlns="http://www.w3.org/2000/svg">
<path d="M54.2342 16.5078C53.2711 16.0483 52.1488 16.1808 51.3182 16.8435L43.3302 23.2764H39.9017V20.2809C39.9017 19.8037 39.5218 19.4237 39.0446 19.4237C38.5674 19.4237 38.1875 19.8037 38.1875 20.2809V24.1335V35.983V41.5057C38.1875 43.3436 36.6941 44.8458 34.8474 44.8458H6.42095C4.58299 44.8458 3.08082 43.3525 3.08082 41.5057V22.1365C3.08082 21.6593 2.70086 21.2794 2.2237 21.2794C1.74654 21.2794 1.36658 21.6593 1.36658 22.1365V41.5057C1.36658 44.2891 3.62867 46.5601 6.42095 46.5601H34.8562C37.6396 46.5601 39.9106 44.298 39.9106 41.5057V36.8401H43.339L51.3271 43.2729C51.8307 43.6794 52.4316 43.8827 53.0501 43.8827C53.4566 43.8827 53.8631 43.7943 54.243 43.6087C55.2062 43.1492 55.8071 42.1949 55.8071 41.1257V18.9908C55.7982 17.9216 55.1974 16.9673 54.2342 16.5078ZM39.9017 24.9906H42.7735V35.1259H39.9017V24.9906ZM54.084 41.1257C54.084 41.5322 53.8631 41.8856 53.492 42.0624C53.1208 42.2391 52.7144 42.1949 52.3874 41.9298L44.4878 35.5677V24.5488L52.3874 18.1867C52.7055 17.9304 53.1208 17.8774 53.492 18.0541C53.8631 18.2308 54.084 18.5843 54.084 18.9908V41.1257Z" fill="white" stroke="white"/>
<path d="M11.8817 23.5149C16.6621 23.5149 20.7445 20.5106 22.3704 16.2957C23.8637 19.3088 26.9653 21.3942 30.5528 21.3942C35.5895 21.3942 39.6895 17.2942 39.6895 12.2575C39.6895 7.22076 35.5895 3.12071 30.5528 3.12071C26.9653 3.12071 23.8637 5.20608 22.3704 8.21926C20.7445 4.00435 16.6621 1 11.8817 1C5.67859 1 0.633057 6.04553 0.633057 12.2486C0.633057 18.4517 5.66975 23.5149 11.8817 23.5149ZM30.5528 4.83496C34.644 4.83496 37.9753 8.16625 37.9753 12.2575C37.9753 16.3487 34.644 19.68 30.5528 19.68C26.4616 19.68 23.1303 16.3487 23.1303 12.2575C23.1303 8.16625 26.4616 4.83496 30.5528 4.83496ZM11.8817 2.72308C17.1393 2.72308 21.4249 6.99985 21.4249 12.2663C21.4249 17.5239 17.1481 21.8095 11.8817 21.8095C6.62407 21.8095 2.33846 17.5327 2.33846 12.2663C2.33846 6.99985 6.61524 2.72308 11.8817 2.72308Z" fill="white" stroke="white"/>
<path d="M11.8817 17.9569C15.0186 17.9569 17.5723 15.4032 17.5723 12.2663C17.5723 9.12944 15.0186 6.57574 11.8817 6.57574C8.74486 6.57574 6.19116 9.12944 6.19116 12.2663C6.19116 15.4032 8.73602 17.9569 11.8817 17.9569ZM11.8817 8.28115C14.0731 8.28115 15.8581 10.0661 15.8581 12.2575C15.8581 14.4489 14.0731 16.2338 11.8817 16.2338C9.69034 16.2338 7.90541 14.4489 7.90541 12.2575C7.90541 10.0661 9.6815 8.28115 11.8817 8.28115Z" fill="white" stroke="white"/>
<path d="M30.5528 16.9672C33.1506 16.9672 35.2625 14.8554 35.2625 12.2575C35.2625 9.65961 33.1506 7.54773 30.5528 7.54773C27.9549 7.54773 25.843 9.65961 25.843 12.2575C25.843 14.8554 27.9549 16.9672 30.5528 16.9672ZM30.5528 9.26197C32.2052 9.26197 33.5483 10.6051 33.5483 12.2575C33.5483 13.9099 32.2052 15.253 30.5528 15.253C28.9004 15.253 27.5573 13.9099 27.5573 12.2575C27.5573 10.6051 28.9004 9.26197 30.5528 9.26197Z" fill="white" stroke="white"/>
<path d="M20.2231 25.4589C19.2246 24.7608 17.9345 24.6813 16.8476 25.2468C15.7696 25.8123 15.098 26.9169 15.098 28.1363V37.3084C15.098 38.5278 15.7696 39.6323 16.8476 40.1978C17.3248 40.4452 17.8461 40.569 18.3586 40.569C19.0125 40.569 19.6576 40.3746 20.2142 39.9858L26.8238 35.3997C27.6986 34.79 28.2288 33.7915 28.2288 32.7223C28.2288 31.6531 27.7074 30.6546 26.8238 30.0449L20.2231 25.4589ZM25.8518 34.0036L19.2423 38.5896C18.7563 38.9254 18.1642 38.9607 17.6429 38.6868C17.1215 38.4129 16.8123 37.9004 16.8123 37.3172V28.1363C16.8123 27.5531 17.1215 27.0317 17.6429 26.7666C17.8726 26.6429 18.12 26.5899 18.3675 26.5899C18.6767 26.5899 18.9772 26.6871 19.2511 26.8727L25.8606 31.4587C26.2848 31.7503 26.5234 32.2186 26.5234 32.7311C26.5145 33.2437 26.276 33.712 25.8518 34.0036Z" fill="white" stroke="white"/>
</svg>
