<svg width="70" height="58" viewBox="0 0 70 58" fill="none" xmlns="http://www.w3.org/2000/svg">
<path fill-rule="evenodd" clip-rule="evenodd" d="M64.4275 15.0616C63.9201 14.9254 63.6182 14.4033 63.7542 13.895C63.8902 13.3866 64.4111 13.084 64.9184 13.2203L68.2942 14.1267C68.8015 14.263 69.1034 14.785 68.9674 15.2934C68.8314 15.8017 68.3105 16.1043 67.8032 15.968L64.4275 15.0616ZM60.4288 5.58225C60.2928 6.09063 59.7719 6.39321 59.2646 6.25691C58.7573 6.12062 58.4554 5.5986 58.5914 5.09022L59.4958 1.70734C59.6318 1.19896 60.1527 0.896381 60.66 1.03268C61.1674 1.16897 61.4693 1.69099 61.3333 2.19937L60.4288 5.58225ZM62.8525 10.3758C62.3982 10.6375 61.8188 10.4807 61.5577 10.0255C61.2966 9.57027 61.453 8.98965 61.9072 8.72796L64.9334 6.97656C65.3877 6.71487 65.9671 6.87161 66.2282 7.32684C66.4893 7.78207 66.3329 8.36269 65.8787 8.62438L62.8525 10.3758ZM48.0603 24.7687L52.0412 30.1633L54.0324 29.9984L50.2799 23.4848L48.0603 24.7687ZM46.1888 23.6524L45.8406 23.8541L45.842 23.8555C44.8859 24.4075 43.7869 24.5179 42.7873 24.2494C41.789 23.9809 40.8927 23.3348 40.3405 22.3753L40.3391 22.3767C39.7883 21.4185 39.6781 20.3172 39.9461 19.3155C40.214 18.315 40.8587 17.4168 41.8162 16.8635L41.8148 16.8621L45.3021 14.8449L49.3306 21.8369L46.1888 23.6524ZM52.1609 22.9423L64.082 21.3831V21.3817C64.2017 21.3667 64.32 21.3272 64.4315 21.2631C64.8858 21.0014 65.0422 20.4208 64.7811 19.9656L59.742 11.2181C59.7325 11.2004 59.7243 11.1827 59.7134 11.1649L54.6567 2.38883C54.5955 2.2757 54.5084 2.17211 54.3996 2.08897C53.9821 1.77004 53.3864 1.85046 53.0681 2.26752L45.0083 12.8182L40.8682 15.2143L40.8655 15.2157L40.8641 15.2143C39.451 16.0321 38.5017 17.3528 38.1086 18.8221C37.7237 20.26 37.8747 21.8438 38.6486 23.2394C38.6717 23.2926 38.7002 23.343 38.7329 23.3907C39.5081 24.6992 40.7172 25.6042 42.0705 26.0253C41.9903 26.118 41.91 26.2161 41.8325 26.317L37.5428 31.9201H18.344C18.11 31.9201 18.1005 31.9201 18.0842 31.9201C15.8564 31.8738 6.01895 31.6666 4.1026 40.9348L1.01931 55.8565C0.914581 56.3717 1.24644 56.8732 1.75919 56.9782C1.82311 56.9918 1.88568 56.9973 1.94824 56.9973V57H9.65716C10.1386 57 10.5371 56.6415 10.601 56.1754L10.9411 54.5644L10.9343 56.0418C10.9329 56.5666 11.3545 56.9932 11.8795 56.9959H11.8836V57H32.2331C32.7594 57 33.1851 56.5734 33.1851 56.0459V44.3885C33.1851 43.4849 33.5537 42.663 34.1481 42.0674C34.7424 41.4718 35.5625 41.1024 36.4643 41.1024H39.1436C41.9943 41.1024 42.979 39.8062 44.3133 38.048L44.5445 37.7454L49.0504 31.8602C49.4231 31.3736 49.6774 30.8679 49.8284 30.3595L50.8335 31.7211C51.0361 31.9951 51.3585 32.1287 51.674 32.1028V32.1055L55.6849 31.7729C56.2085 31.7293 56.5989 31.2686 56.5553 30.7439C56.5417 30.5776 56.486 30.4236 56.3989 30.2941L52.1609 22.9423ZM53.7128 4.55866L46.79 13.6196L51.1341 21.1595L62.4281 19.6821L58.1004 12.1694C58.0895 12.1531 58.08 12.1367 58.0705 12.1204L53.7128 4.55866ZM22.8513 10.2858C25.5932 10.2858 28.0767 11.3994 29.8747 13.2012C31.6727 15.003 32.7839 17.4904 32.7839 20.2395C32.7839 22.9873 31.6727 25.476 29.8747 27.2779C28.0767 29.0797 25.5945 30.1933 22.8513 30.1933C20.1093 30.1933 17.6258 29.0797 15.8278 27.2779C14.0298 25.4774 12.9186 22.9886 12.9186 20.2395C12.9186 17.4918 14.0298 15.003 15.8278 13.2012C17.6258 11.3994 20.1093 10.2858 22.8513 10.2858ZM28.5282 14.5492C29.9808 16.0048 30.8798 18.0166 30.8798 20.2382C30.8798 22.4598 29.9808 24.4715 28.5282 25.9272C27.0757 27.3828 25.0682 28.2837 22.8513 28.2837C20.6343 28.2837 18.6269 27.3828 17.1743 25.9272C15.7217 24.4715 14.8227 22.4598 14.8227 20.2382C14.8227 18.0166 15.7217 16.0048 17.1743 14.5492C18.6269 13.0935 20.6343 12.1926 22.8513 12.1926C25.0682 12.194 27.0757 13.0935 28.5282 14.5492ZM43.3422 27.4728C44.1365 26.4342 45.1103 26.1889 45.9535 26.4206C46.3004 26.516 46.6363 26.6932 46.9382 26.9303C47.2442 27.1702 47.5067 27.4673 47.7039 27.8013C48.2045 28.6477 48.2793 29.7408 47.5407 30.7057L43.0348 36.591L42.8036 36.8936C41.7971 38.2184 41.0559 39.1956 39.1436 39.1956H36.4643C35.0362 39.1956 33.74 39.779 32.8016 40.7194C31.8631 41.6599 31.281 42.9588 31.281 44.3899V55.0932H12.8357L12.8792 45.3385C12.9064 44.8751 12.5922 44.4485 12.1243 44.3517C11.6102 44.244 11.1084 44.5752 11.0009 45.0891L8.88871 55.0932H3.11519L5.96319 41.3137C7.5572 33.6007 16.1107 33.7792 18.0475 33.8201C18.2624 33.8242 18.2488 33.8283 18.344 33.8283H38.0093V33.8256C38.2949 33.8256 38.5778 33.6961 38.7642 33.4507L43.3422 27.4728Z" fill="white" stroke="white" stroke-width="0.8"/>
</svg>
