<svg width="58" height="47" viewBox="0 0 58 47" fill="none" xmlns="http://www.w3.org/2000/svg">
<path d="M34.6942 18.2607C35.6675 18.2607 36.5939 18.2607 37.5812 18.2607C37.5812 17.2649 37.5812 16.3344 37.5812 15.3991C36.5915 15.3991 35.6534 15.3991 34.6942 15.3991C34.6942 16.3762 34.6942 17.3068 34.6942 18.2607Z" fill="white" stroke="white" stroke-width="0.5"/>
<path d="M53.4141 15.4015C52.3963 15.4015 51.4582 15.4015 50.5154 15.4015C50.5154 16.3833 50.5154 17.3115 50.5154 18.2375C51.5074 18.2375 52.4502 18.2375 53.4141 18.2375C53.4141 17.2766 53.4141 16.3577 53.4141 15.4015Z" fill="white" stroke="white" stroke-width="0.5"/>
<path d="M42.8535 15.4038C41.8404 15.4038 40.9046 15.4038 39.9783 15.4038C39.9783 16.3879 39.9783 17.3185 39.9783 18.2328C40.968 18.2328 41.9061 18.2328 42.8535 18.2328C42.8535 17.2696 42.8535 16.3553 42.8535 15.4038Z" fill="white" stroke="white" stroke-width="0.5"/>
<path d="M48.1373 15.39C47.1617 15.39 46.226 15.39 45.2527 15.39C45.2527 16.3578 45.2527 17.286 45.2527 18.2469C46.2307 18.2469 47.1688 18.2469 48.1373 18.2469C48.1373 17.2814 48.1373 16.3508 48.1373 15.39Z" fill="white" stroke="white" stroke-width="0.5"/>
<path d="M34.6942 36.3375C35.6675 36.3375 36.5939 36.3375 37.5812 36.3375C37.5812 35.3441 37.5812 34.4111 37.5812 33.4759C36.5915 33.4759 35.6534 33.4759 34.6942 33.4759C34.6942 34.453 34.6942 35.3859 34.6942 36.3375Z" fill="white" stroke="white" stroke-width="0.5"/>
<path d="M42.8535 33.4829C41.8404 33.4829 40.9046 33.4829 39.9783 33.4829C39.9783 34.467 39.9783 35.3976 39.9783 36.3119C40.968 36.3119 41.9061 36.3119 42.8535 36.3119C42.8535 35.3487 42.8535 34.4321 42.8535 33.4829Z" fill="white" stroke="white" stroke-width="0.5"/>
<path d="M56.0572 10.2786H33.1254L33.123 7.17972C33.1183 5.56747 32.3538 4.81369 30.7168 4.81369L23.5403 4.81602V1.52172C23.5403 1.00757 23.1182 0.591125 22.6022 0.591125H11.2372C10.7189 0.591125 10.2991 1.00989 10.2991 1.52172V4.81602L3.15783 4.82067C1.79993 4.82532 0.979098 5.60237 0.962681 6.90054L0.955646 7.55196C0.943919 8.29178 0.943919 8.29178 0.9533 8.93389L0.960336 9.73653C0.979098 11.0882 1.83746 12.0746 3.04995 12.1398L3.08747 36.9075C1.54196 37.0378 0.9533 37.7706 0.955646 39.4783V43.8451C0.955646 44.5709 1.026 45.3108 1.5443 45.8272C2.06026 46.3391 2.78494 46.4089 3.50727 46.4089H25.5455L30.8294 46.4042C32.3186 46.3996 33.0902 45.6435 33.1207 44.1568C33.1277 43.9126 33.1277 43.6659 33.1254 43.4217V42.5004V40.916H47.3258C47.3399 40.9137 47.3587 40.916 47.3727 40.916C47.8934 40.916 48.3108 40.4973 48.3108 39.9855C48.3108 39.8691 48.2897 39.7598 48.2522 39.6574C48.1842 37.3333 48.8268 35.5791 50.2574 34.1576C51.7302 32.6989 53.6392 32.0591 56.0079 32.1917C56.28 32.2034 56.5168 32.1173 56.7044 31.9405C56.8921 31.7637 56.9999 31.5194 56.9999 31.2635V11.2092C56.9976 10.6974 56.5755 10.2786 56.0572 10.2786ZM31.2445 36.8656H4.96367V33.6551H22.0816C22.5999 33.6551 23.0197 33.2363 23.0197 32.7245V16.823C23.0197 16.3088 22.5976 15.8924 22.0816 15.8924H4.96367V12.1444H31.2445V36.8656ZM4.96367 17.7559H21.1412V31.7916H4.96367V17.7559ZM21.6618 2.45464V4.81834H12.1753V2.45464H21.6618ZM2.83888 9.71559L2.8295 8.91295C2.82011 8.29178 2.82011 8.29178 2.83184 7.57755L2.8506 6.73071C2.8506 6.73071 2.92565 6.68418 3.16487 6.68418L11.2372 6.67953H26.1459C26.1506 6.67953 26.1553 6.6772 26.16 6.6772L28.592 6.67488L30.7144 6.6772C31.0357 6.6772 31.1694 6.73304 31.1929 6.70279C31.2093 6.74467 31.2421 6.87263 31.2421 7.18438L31.2468 9.99942C31.2468 10.0064 31.2421 10.0134 31.2421 10.0204V10.2832L4.02557 10.2786L3.40408 10.2879L3.15079 10.2809C2.85295 10.2646 2.83888 9.7691 2.83888 9.71559ZM31.2421 44.115C31.2374 44.3755 31.2046 44.4849 31.2116 44.5012C31.1741 44.5128 31.0686 44.543 30.8223 44.543L22.0112 44.5477H3.48851C3.04995 44.5477 2.89985 44.5081 2.89047 44.5314C2.87171 44.4825 2.8295 44.315 2.83184 43.8521V39.476C2.8295 38.9851 2.87406 38.8222 2.84357 38.8222C2.89047 38.8013 3.05464 38.7571 3.57763 38.7524L4.02557 38.7291H31.2445V42.5027C31.2445 42.5027 31.2468 42.5074 31.2468 42.512V43.4356L31.2421 44.115ZM55.1191 30.3189C52.6425 30.3771 50.5623 31.2262 48.9276 32.8432C47.2695 34.488 46.4299 36.5283 46.369 39.0549H33.123V12.1468H34.6943C34.7014 12.1468 34.7084 12.1421 34.7178 12.1421H55.1191V30.3189Z" fill="white" stroke="white" stroke-width="0.5"/>
<path d="M28.6765 35.5023C29.1948 35.5023 29.6146 35.0835 29.6146 34.5717V14.2964C29.6146 13.7822 29.1925 13.3658 28.6765 13.3658C28.1605 13.3658 27.7384 13.7845 27.7384 14.2964V34.5693C27.7384 35.0835 28.1605 35.5023 28.6765 35.5023Z" fill="white" stroke="white" stroke-width="0.5"/>
</svg>
