<svg width="46" height="56" viewBox="0 0 46 56" fill="none" xmlns="http://www.w3.org/2000/svg">
<path d="M8.56772 2.79957H4.9787C4.26506 2.8004 3.58088 3.08506 3.07626 3.59111C2.57163 4.09715 2.28777 4.78326 2.28694 5.49891V6.55346C1.76254 6.74004 1.30856 7.08477 0.98727 7.54035C0.665983 7.99593 0.493133 8.54004 0.492432 9.09804V30.6928C0.493233 31.4085 0.777086 32.0946 1.28172 32.6006C1.78635 33.1067 2.47054 33.3913 3.1842 33.3922H16.643V34.2919C16.6427 34.6105 16.6988 34.9266 16.8089 35.2255L2.98702 50.4718C2.74653 50.7336 2.56005 51.0406 2.43831 51.375C2.31658 51.7093 2.262 52.0646 2.27772 52.4202C2.29344 52.7758 2.37915 53.1248 2.52991 53.4471C2.68066 53.7693 2.89349 54.0585 3.15615 54.298C3.4188 54.5374 3.72609 54.7224 4.06033 54.8423C4.39456 54.9622 4.74914 55.0146 5.10365 54.9965C5.45817 54.9784 5.80561 54.8902 6.12598 54.7369C6.44635 54.5836 6.73333 54.3683 6.97038 54.1033L20.232 39.4745V52.2876C20.232 53.0035 20.5156 53.6901 21.0204 54.1963C21.5252 54.7025 22.2099 54.9869 22.9238 54.9869C23.6377 54.9869 24.3224 54.7025 24.8272 54.1963C25.332 53.6901 25.6156 53.0035 25.6156 52.2876V39.4745L38.8772 54.1033C39.1143 54.3683 39.4012 54.5836 39.7216 54.7369C40.042 54.8902 40.3894 54.9784 40.7439 54.9965C41.0984 55.0146 41.453 54.9622 41.7873 54.8423C42.1215 54.7224 42.4288 54.5374 42.6914 54.298C42.9541 54.0585 43.1669 53.7693 43.3177 53.4471C43.4684 53.1248 43.5541 52.7758 43.5699 52.4202C43.5856 52.0646 43.531 51.7093 43.4093 51.375C43.2875 51.0406 43.1011 50.7336 42.8606 50.4718L29.0387 35.2255C29.1488 34.9266 29.2049 34.6105 29.2046 34.2919V33.3922H42.6634C43.377 33.3913 44.0612 33.1067 44.5659 32.6006C45.0705 32.0946 45.3544 31.4085 45.3552 30.6928V9.09804C45.3544 8.38237 45.0705 7.69625 44.5659 7.1902C44.0612 6.68415 43.377 6.3995 42.6634 6.39869H32.543L31.362 2.84568C31.1838 2.30795 30.8412 1.8402 30.3828 1.50887C29.9244 1.17755 29.3735 0.999495 28.8084 1H17.0391C16.4741 0.999503 15.9232 1.17757 15.4648 1.50892C15.0064 1.84027 14.6638 2.30804 14.4856 2.84579L13.3046 6.39869H11.2595V5.49891C11.2587 4.78326 10.9748 4.09715 10.4702 3.59111C9.96554 3.08506 9.28137 2.8004 8.56772 2.79957ZM4.9787 4.59913H8.56772C8.80561 4.5994 9.03367 4.69428 9.20188 4.86297C9.37009 5.03165 9.46471 5.26036 9.46498 5.49891V6.39869H4.08145V5.49891C4.08172 5.26036 4.17633 5.03165 4.34454 4.86297C4.51275 4.69428 4.74082 4.5994 4.9787 4.59913ZM5.64256 52.8928C5.56378 52.9819 5.46812 53.0545 5.36115 53.1063C5.25418 53.1581 5.13802 53.1881 5.0194 53.1945C4.90079 53.2009 4.78209 53.1836 4.67018 53.1437C4.55827 53.1038 4.45538 53.0419 4.36749 52.9618C4.2796 52.8817 4.20844 52.7848 4.15816 52.6769C4.10788 52.569 4.07946 52.4521 4.07456 52.3331C4.06967 52.2141 4.08838 52.0953 4.12963 51.9836C4.17088 51.8719 4.23384 51.7695 4.31485 51.6824L17.9712 36.618C18.3841 36.8627 18.8551 36.9917 19.3348 36.9913H20.058L5.64256 52.8928ZM22.9238 53.1874C22.6859 53.1871 22.4578 53.0922 22.2896 52.9235C22.1214 52.7548 22.0268 52.5261 22.0265 52.2876V36.9913H23.821V52.2876C23.8208 52.5261 23.7262 52.7548 23.558 52.9235C23.3897 53.0922 23.1617 53.1871 22.9238 53.1874ZM41.7651 52.3303C41.7567 52.5081 41.6958 52.6793 41.5903 52.8224C41.4848 52.9654 41.3394 53.0739 41.1724 53.1341C41.0054 53.1943 40.8244 53.2035 40.6522 53.1605C40.48 53.1175 40.3244 53.0243 40.205 52.8927L25.7896 36.9913H26.5128C26.9925 36.9917 27.4635 36.8627 27.8764 36.618L41.5327 51.6824C41.6123 51.7696 41.6738 51.8718 41.7137 51.983C41.7536 52.0942 41.7711 52.2123 41.7651 52.3303ZM27.4101 34.2919C27.4098 34.5305 27.3152 34.7592 27.147 34.9279C26.9788 35.0966 26.7507 35.1914 26.5128 35.1917H19.3348C19.0969 35.1914 18.8688 35.0966 18.7006 34.9279C18.5324 34.7592 18.4378 34.5305 18.4375 34.2919V33.3922H27.4101V34.2919ZM42.6634 31.5926H3.1842C2.94631 31.5923 2.71825 31.4974 2.55004 31.3288C2.38183 31.1601 2.28721 30.9314 2.28694 30.6928V17.1961H13.4271C13.0116 18.6682 12.942 20.2168 13.2239 21.7204C13.5057 23.224 14.1313 24.6415 15.0515 25.8618C15.9717 27.0821 17.1615 28.0718 18.5274 28.7533C19.8933 29.4348 21.3982 29.7895 22.9238 29.7895C24.4494 29.7895 25.9543 29.4348 27.3202 28.7533C28.6861 28.0718 29.8758 27.0821 30.7961 25.8618C31.7163 24.6415 32.3419 23.224 32.6237 21.7204C32.9055 20.2168 32.836 18.6682 32.4204 17.1961H43.5606V30.6928C43.5604 30.9314 43.4658 31.1601 43.2976 31.3288C43.1293 31.4974 42.9013 31.5923 42.6634 31.5926ZM14.8485 19.8954C14.8485 18.2938 15.3221 16.7281 16.2094 15.3964C17.0968 14.0647 18.3579 13.0267 19.8335 12.4138C21.3091 11.8009 22.9328 11.6405 24.4992 11.953C26.0657 12.2655 27.5045 13.0367 28.6339 14.1692C29.7632 15.3018 30.5323 16.7447 30.8439 18.3156C31.1555 19.8864 30.9956 21.5147 30.3844 22.9944C29.7732 24.4741 28.7382 25.7389 27.4102 26.6287C26.0822 27.5185 24.5209 27.9935 22.9238 27.9935C20.7828 27.9911 18.7302 27.1371 17.2164 25.6189C15.7025 24.1008 14.8509 22.0424 14.8485 19.8954ZM43.5606 9.09804V15.3965H31.7137C30.8871 13.7716 29.6287 12.4075 28.0776 11.4548C26.5264 10.502 24.7428 9.99783 22.9238 9.99783C21.1048 9.99783 19.3212 10.502 17.77 11.4548C16.2188 12.4075 14.9604 13.7716 14.1338 15.3965H2.28694V9.09804C2.28721 8.85948 2.38183 8.63078 2.55004 8.46209C2.71825 8.29341 2.94631 8.19852 3.1842 8.19826H42.6634C42.9013 8.19852 43.1293 8.29341 43.2976 8.46209C43.4658 8.63078 43.5604 8.85948 43.5606 9.09804ZM16.1879 3.4149C16.2473 3.23563 16.3615 3.07968 16.5143 2.96921C16.6671 2.85875 16.8508 2.79939 17.0391 2.79957H28.8084C28.9968 2.79938 29.1804 2.85872 29.3333 2.96917C29.4861 3.07961 29.6003 3.23554 29.6597 3.41479L30.6514 6.39869H15.1962L16.1879 3.4149Z" fill="white" stroke="white" stroke-width="0.5"/>
<path d="M22.9238 26.194C24.1661 26.194 25.3804 25.8246 26.4133 25.1325C27.4461 24.4404 28.2512 23.4567 28.7265 22.3058C29.2019 21.1549 29.3263 19.8885 29.0839 18.6668C28.8416 17.445 28.2434 16.3227 27.365 15.4418C26.4866 14.561 25.3675 13.9611 24.1492 13.7181C22.9308 13.475 21.668 13.5998 20.5203 14.0765C19.3726 14.5532 18.3917 15.3605 17.7016 16.3963C17.0114 17.4321 16.6431 18.6498 16.6431 19.8955C16.645 21.5654 17.3073 23.1663 18.4848 24.3471C19.6622 25.5279 21.2587 26.1921 22.9238 26.194ZM22.9238 15.3966C23.8111 15.3966 24.6785 15.6605 25.4163 16.1548C26.1541 16.6492 26.7291 17.3518 27.0686 18.1739C27.4082 18.9959 27.497 19.9005 27.3239 20.7732C27.1508 21.6459 26.7235 22.4475 26.0961 23.0767C25.4687 23.7059 24.6693 24.1344 23.7991 24.308C22.9288 24.4816 22.0268 24.3925 21.207 24.052C20.3873 23.7115 19.6866 23.1348 19.1936 22.395C18.7007 21.6551 18.4376 20.7853 18.4376 19.8955C18.4389 18.7027 18.912 17.5592 19.753 16.7158C20.5941 15.8724 21.7344 15.398 22.9238 15.3966Z" fill="white" stroke="white" stroke-width="0.5"/>
</svg>
