<svg width="54" height="54" viewBox="0 0 54 54" fill="none" xmlns="http://www.w3.org/2000/svg">
<path fill-rule="evenodd" clip-rule="evenodd" d="M34.0234 19.9008C34.0336 20.0674 33.978 20.2314 33.8686 20.358C33.7592 20.4846 33.6045 20.5639 33.4373 20.5789C33.2701 20.5939 33.1036 20.5436 32.9732 20.4386C32.8427 20.3335 32.7585 20.1821 32.7384 20.0163L32.5682 18.1726C32.5528 18.0031 32.6057 17.8346 32.7152 17.704C32.8248 17.5733 32.982 17.4913 33.1523 17.476C33.3226 17.4607 33.4921 17.5133 33.6234 17.6222C33.7548 17.7312 33.8372 17.8876 33.8526 18.057L34.0234 19.9008ZM36.924 35.328C37.3334 35.328 37.7335 35.4487 38.0739 35.675C38.4143 35.9012 38.6796 36.2227 38.8363 36.5989C38.9929 36.9751 39.0339 37.389 38.9541 37.7883C38.8742 38.1877 38.6771 38.5545 38.3876 38.8424C38.0981 39.1303 37.7293 39.3264 37.3278 39.4058C36.9263 39.4853 36.5101 39.4445 36.1319 39.2887C35.7537 39.1329 35.4304 38.869 35.203 38.5305C34.9755 38.1919 34.8541 37.7939 34.8541 37.3867C34.8548 36.8409 35.073 36.3176 35.4611 35.9317C35.8491 35.5457 36.3752 35.3286 36.924 35.328ZM37.4718 36.8413C37.3634 36.7335 37.2253 36.6601 37.075 36.6304C36.9247 36.6007 36.7689 36.616 36.6273 36.6743C36.4857 36.7327 36.3647 36.8315 36.2796 36.9582C36.1944 37.085 36.149 37.234 36.149 37.3864C36.149 37.5388 36.1944 37.6879 36.2796 37.8146C36.3647 37.9413 36.4857 38.0401 36.6273 38.0985C36.7689 38.1568 36.9247 38.1721 37.075 38.1424C37.2253 38.1127 37.3634 38.0393 37.4718 37.9316C37.6171 37.7869 37.6987 37.5909 37.6987 37.3864C37.6987 37.182 37.6171 36.9859 37.4718 36.8413ZM43.3973 43.9147C44.0087 42.6959 44.8001 41.575 45.7454 40.5894C46.2203 40.129 46.8417 39.8474 47.5027 39.7932C48.1637 39.739 48.8231 39.9156 49.3675 40.2925C50.1767 40.8247 50.9581 41.3976 51.7086 42.0091V34.7155C51.7068 34.2857 51.5342 33.874 51.2286 33.5701C50.9229 33.2662 50.5089 33.0947 50.0768 33.0931H34.6241C34.1919 33.0947 33.7779 33.2662 33.4723 33.5701C33.1666 33.874 32.9941 34.2857 32.9923 34.7155V50.085C32.9923 50.179 33.0007 50.2727 33.0172 50.3652C33.731 48.316 34.5539 46.3061 35.4827 44.344C36.2489 42.855 37.1296 41.6283 38.6377 41.3238C40.5507 40.9396 42.1291 42.231 43.3949 43.917L43.3973 43.9147ZM51.7086 43.5876V50.0873C51.7069 50.5173 51.5345 50.9291 51.2288 51.2331C50.9231 51.5371 50.509 51.7087 50.0768 51.7103H47.8036C46.7222 49.447 45.5239 47.2407 44.2135 45.1003C45.0268 43.6396 45.8348 42.231 46.604 41.5474C46.8718 41.2808 47.2239 41.114 47.6009 41.0754C48.4217 41.028 49.3146 41.7878 50.0599 42.3702C50.5334 42.74 51.0638 43.1549 51.708 43.59L51.7086 43.5876ZM46.3641 51.708H34.6212C34.389 51.7083 34.1596 51.6586 33.9485 51.5624C34.729 49.3061 35.6248 47.0908 36.6324 44.9253C37.1982 43.8274 37.8575 42.7874 38.8928 42.5788C40.0778 42.3413 41.1543 43.1884 42.0629 44.2989C43.4995 46.056 45.2132 49.4124 46.3617 51.708H46.3641ZM34.6235 31.8028C33.848 31.8047 33.1048 32.1119 32.5565 32.6573C32.0081 33.2027 31.6992 33.9419 31.6974 34.7132V50.0827C31.6974 50.8548 32.0051 51.5954 32.5532 52.1423C33.1012 52.6891 33.8449 52.9976 34.6212 53H50.0739C50.8495 52.9982 51.5928 52.6909 52.1411 52.1453C52.6895 51.5998 52.9983 50.8605 53 50.089V34.7196C52.9982 33.9483 52.6893 33.2091 52.1409 32.6637C51.5926 32.1182 50.8494 31.811 50.0739 31.8092L34.6235 31.8028ZM9.78653 46.0086L16.6996 42.4014L9.78653 38.7942V46.0086ZM17.7092 43.3236L10.0259 47.3324C9.86615 47.4163 9.68728 47.4577 9.5067 47.4524C9.32612 47.4472 9.14999 47.3955 8.99548 47.3024C8.84097 47.2093 8.71334 47.0779 8.62504 46.9212C8.53674 46.7644 8.49078 46.5876 8.49164 46.4079V38.3932C8.49078 38.2135 8.53674 38.0367 8.62504 37.8799C8.71334 37.7232 8.84097 37.5919 8.99548 37.4988C9.14999 37.4056 9.32612 37.3539 9.5067 37.3487C9.68728 37.3434 9.86615 37.3848 10.0259 37.4687L17.7092 41.4769C17.8787 41.5649 18.0207 41.6973 18.1199 41.8599C18.219 42.0225 18.2714 42.209 18.2714 42.3991C18.2714 42.5892 18.219 42.7757 18.1199 42.9383C18.0207 43.1009 17.8787 43.2334 17.7092 43.3213V43.3236ZM2.77938 34.6335C9.02884 34.0303 15.3223 34.0303 21.5718 34.6335C22.0454 34.6591 22.4919 34.8614 22.822 35.2001C23.1522 35.5388 23.3418 35.9889 23.3529 36.4605V48.3424C23.3419 48.8137 23.1526 49.2635 22.8228 49.6021C22.4929 49.9406 22.0468 50.143 21.5736 50.1688C15.3241 50.772 9.03059 50.772 2.78112 50.1688C2.30743 50.1434 1.86082 49.9412 1.5306 49.6024C1.20038 49.2637 1.01088 48.8135 1 48.3418V36.4605C1.01115 35.9889 1.20073 35.5388 1.5309 35.2001C1.86107 34.8614 2.30753 34.6591 2.78112 34.6335H2.77938ZM21.4504 35.9116C21.6022 35.9116 21.7486 35.9678 21.861 36.0693C21.9735 36.1707 22.0439 36.3102 22.0586 36.4605V48.3424C22.0439 48.4927 21.9735 48.6322 21.8611 48.7338C21.7487 48.8354 21.6023 48.8917 21.4504 48.8918C15.2817 49.4876 9.06949 49.4876 2.9008 48.8918C2.74896 48.8916 2.60264 48.8352 2.49025 48.7336C2.37786 48.6321 2.3074 48.4927 2.29256 48.3424V36.4605C2.30741 36.3102 2.37789 36.1709 2.49029 36.0694C2.6027 35.968 2.74901 35.9117 2.9008 35.9116C9.06949 35.3159 15.2817 35.3159 21.4504 35.9116ZM41.5563 19.1253C41.4249 19.0167 41.3422 18.8606 41.3265 18.6913C41.3109 18.5221 41.3634 18.3535 41.4727 18.2228C41.5819 18.0921 41.7389 18.0099 41.909 17.9943C42.0792 17.9787 42.2486 18.031 42.3801 18.1396L45.1377 20.4202C45.2045 20.4735 45.26 20.5395 45.3008 20.6144C45.3417 20.6893 45.3671 20.7715 45.3757 20.8562C45.3843 20.941 45.3758 21.0266 45.3507 21.1081C45.3256 21.1895 45.2845 21.2652 45.2297 21.3307C45.1749 21.3961 45.1076 21.4501 45.0316 21.4894C44.9556 21.5287 44.8725 21.5525 44.7871 21.5596C44.7018 21.5666 44.6159 21.5566 44.5344 21.5302C44.453 21.5038 44.3776 21.4616 44.3128 21.4059L41.5563 19.1253ZM41.6475 10.2163C41.5365 10.3412 41.3809 10.4183 41.2137 10.431C41.0465 10.4438 40.8809 10.3913 40.752 10.2846C40.623 10.178 40.541 10.0256 40.5231 9.85976C40.5053 9.69392 40.5531 9.5277 40.6564 9.39635L42.9494 6.65354C43.0026 6.58593 43.0688 6.52963 43.1443 6.48798C43.2198 6.44632 43.3028 6.42015 43.3887 6.41103C43.4745 6.4019 43.5613 6.41 43.6439 6.43484C43.7265 6.45969 43.8032 6.50077 43.8696 6.55566C43.9359 6.61056 43.9905 6.67814 44.0301 6.7544C44.0697 6.83066 44.0936 6.91406 44.1002 6.99965C44.1068 7.08523 44.096 7.17127 44.0686 7.25265C44.0412 7.33403 43.9976 7.40911 43.9404 7.47344L41.6475 10.2163ZM43.4559 14.6919C43.2884 14.702 43.1235 14.6468 42.9962 14.5379C42.8689 14.4291 42.7892 14.2752 42.7741 14.1089C42.759 13.9427 42.8096 13.7771 42.9152 13.6473C43.0208 13.5175 43.1731 13.4338 43.3398 13.4138L46.9107 13.0873C46.9951 13.0797 47.0801 13.0888 47.1609 13.1138C47.2417 13.1389 47.3168 13.1796 47.3818 13.2336C47.4469 13.2875 47.5006 13.3537 47.5399 13.4283C47.5792 13.5029 47.6034 13.5844 47.611 13.6683C47.6187 13.7522 47.6096 13.8368 47.5844 13.9172C47.5591 13.9976 47.5182 14.0722 47.464 14.1369C47.4098 14.2016 47.3432 14.255 47.2682 14.2941C47.1932 14.3332 47.1112 14.3573 47.0269 14.3649L43.4559 14.6919ZM16.8744 22.7325L33.6354 27.1065C33.7895 27.4457 34.014 27.7487 34.2941 27.9956C34.5742 28.2425 34.9037 28.4278 35.2608 28.5392C35.6179 28.6507 35.9947 28.6858 36.3664 28.6423C36.7381 28.5989 37.0964 28.4777 37.4178 28.2869C37.9121 27.9639 38.3015 27.5051 38.5386 26.9662C38.7758 26.4273 38.8506 25.8315 38.7539 25.2512L38.2601 19.914C39.2403 19.3464 40.0372 18.5121 40.5569 17.5094C41.0766 16.5066 41.2976 15.3771 41.1939 14.2537C41.0901 13.1303 40.666 12.0597 39.9713 11.1679C39.2766 10.276 38.3403 9.6001 37.2725 9.21955L36.7788 3.88357C36.4447 0.271741 32.2963 0.150403 31.4342 2.97411L14.9179 10.712L8.61306 11.2898C7.57929 11.3868 6.62619 11.887 5.96214 12.681C5.2981 13.4749 4.97712 14.4981 5.0694 15.5268L5.44177 19.5552C5.53714 20.5568 6.01709 21.4832 6.78176 22.1417C7.54643 22.8002 8.53693 23.1402 9.54719 23.0908L10.1543 29.6303C10.1892 30.002 10.3707 30.3448 10.6591 30.5836C10.9475 30.8225 11.3193 30.938 11.6931 30.9049L13.5852 30.7316C13.959 30.697 14.3037 30.5165 14.5439 30.2296C14.7841 29.9427 14.9002 29.5729 14.8667 29.201L14.4706 24.9132C15.0759 24.9244 15.6626 24.7047 16.1102 24.2992C16.5578 23.8937 16.8323 23.3331 16.8773 22.7325H16.8744ZM14.348 23.6172L14.2597 22.6615L15.59 22.5401C15.593 22.6963 15.5616 22.8513 15.4979 22.9941C15.4343 23.1369 15.3399 23.2641 15.2215 23.3668C15.1031 23.4694 14.9636 23.545 14.8127 23.5883C14.6617 23.6316 14.5031 23.6414 14.348 23.6172ZM10.831 22.9752L12.9752 22.7793L13.5817 29.3166C13.5846 29.3501 13.574 29.3835 13.5522 29.4092C13.5305 29.435 13.4993 29.4512 13.4655 29.4541L11.5735 29.6274C11.5397 29.6303 11.5062 29.6198 11.4803 29.5981C11.4544 29.5764 11.4382 29.5454 11.4352 29.5119L10.831 22.9752ZM36.9391 19.6431C36.9355 19.6193 36.9334 19.5954 36.9327 19.5714L35.4926 3.99913C35.2602 1.49552 32.3521 1.82776 32.5833 4.32905L33.5988 15.3136C33.6142 15.483 33.5613 15.6516 33.4517 15.7822C33.3422 15.9128 33.185 15.9948 33.0146 16.0101C32.8443 16.0255 32.6748 15.9729 32.5435 15.8639C32.4122 15.7549 32.3297 15.5986 32.3143 15.4292L31.3 4.45559L15.759 11.7359L16.6473 21.3441L33.2618 25.6776L32.9603 22.4176C32.9502 22.251 33.0057 22.087 33.1151 21.9604C33.2245 21.8338 33.3792 21.7545 33.5464 21.7395C33.7136 21.7245 33.8801 21.7748 34.0106 21.8798C34.1411 21.9849 34.2253 22.1363 34.2453 22.3021L34.5532 25.6354C34.7856 28.1344 37.7007 27.875 37.4689 25.3673L36.9391 19.6431ZM38.5134 18.1234L38.0591 17.7479L37.405 10.6739C38.0617 11.0119 38.6282 11.5003 39.0579 12.0989C39.4875 12.6974 39.7681 13.3889 39.8763 14.1165C39.9846 14.844 39.9174 15.5867 39.6805 16.2834C39.4435 16.98 39.0435 17.6107 38.5134 18.1234ZM15.3448 21.2742L9.58495 21.7988C8.89126 21.8599 8.2014 21.6458 7.66577 21.2031C7.13015 20.7605 6.79221 20.1251 6.72562 19.4356L6.35325 15.4078C6.29148 14.7178 6.50656 14.0316 6.95158 13.4988C7.3966 12.966 8.03542 12.6299 8.72866 12.5639L14.4909 12.0369L15.3448 21.2742Z" fill="white" stroke="white"/>
</svg>
