<svg width="56" height="48" viewBox="0 0 56 48" fill="none" xmlns="http://www.w3.org/2000/svg">
<path d="M19.6309 14.7621C19.5241 15.0929 19.611 15.4507 19.8608 15.6941L23.2416 18.988L22.4435 23.6413C22.3858 23.9808 22.5272 24.3299 22.8056 24.5307C22.9616 24.6445 23.1445 24.7033 23.3377 24.7033C23.4839 24.7033 23.6302 24.6677 23.7613 24.6008L27.9397 22.4023L32.1203 24.6019C32.4301 24.7584 32.7975 24.7303 33.0749 24.5307C33.3518 24.3288 33.4942 23.9802 33.4376 23.6424L32.6394 18.9875L36.0203 15.6936C36.2685 15.4486 36.3559 15.0919 36.248 14.7605C36.1401 14.4308 35.8584 14.1939 35.5162 14.1437L30.8446 13.4643L28.7546 9.22977C28.5992 8.91786 28.2873 8.72467 27.9403 8.72467C27.5927 8.72467 27.2803 8.9184 27.126 9.23085L25.0354 13.4638L20.3638 14.1432C20.02 14.1944 19.7399 14.4313 19.6309 14.7621ZM31.0275 18.021C30.8117 18.2299 30.7156 18.5315 30.768 18.8256L31.3346 22.1352L28.3617 20.5713C28.2317 20.5039 28.0854 20.4683 27.9403 20.4683C27.7929 20.4683 27.6467 20.5039 27.5161 20.5713L24.5454 22.1352L25.112 18.8267C25.1633 18.5315 25.0656 18.2309 24.8519 18.0221L22.4478 15.6784L25.7688 15.1949C26.0639 15.1534 26.3197 14.9672 26.4541 14.6979L27.9392 11.6867L29.4243 14.6979C29.557 14.9672 29.815 15.1534 30.1096 15.1938L33.4311 15.6779L31.0275 18.021Z" fill="white" stroke="white" stroke-width="0.3"/>
<path d="M5.14003 15.4054L6.70822 18.3248C6.86687 18.62 7.17338 18.8035 7.5085 18.8035H7.5344H7.53872C7.88193 18.7927 8.19492 18.5828 8.33684 18.2681L9.69997 15.2489L12.9621 14.6585C13.3042 14.5959 13.5762 14.3498 13.6728 14.0153C13.7683 13.6855 13.6652 13.3234 13.4111 13.0936L10.96 10.8622L11.4068 7.57954C11.4538 7.23417 11.3043 6.89852 11.0145 6.70263C10.7328 6.51106 10.3492 6.49811 10.0567 6.66809L7.17824 8.31021L4.19458 6.871C3.89023 6.72044 3.50762 6.76199 3.23942 6.97245C2.96583 7.18615 2.83901 7.53044 2.90917 7.87203L3.58101 11.1169L1.28917 13.5118C1.04903 13.7638 0.972945 14.1237 1.09167 14.4513C1.20931 14.7724 1.50557 15.005 1.84608 15.0417L5.14003 15.4054ZM5.06232 9.30638L6.81938 10.1536C7.08434 10.2788 7.40974 10.2723 7.66445 10.1234L9.35838 9.1569L9.09503 11.0893C9.05456 11.3856 9.16249 11.6829 9.38428 11.8853L10.8273 13.1977L8.9067 13.5452C8.6126 13.5987 8.36328 13.7924 8.24025 14.0655L7.43781 15.8436L6.51556 14.1243C6.3758 13.8636 6.11407 13.6866 5.81458 13.6521L3.87566 13.4373L5.22421 12.0289C5.43143 11.8141 5.51831 11.5097 5.45841 11.2156L5.06232 9.30638Z" fill="white" stroke="white" stroke-width="0.3"/>
<path d="M54.703 24.9176L52.2514 22.6879L52.6999 19.4036C52.7463 19.0599 52.5968 18.7242 52.307 18.5267C52.0216 18.3362 51.6406 18.3249 51.3465 18.4932L48.4702 20.1337L45.486 18.694C45.1817 18.551 44.8017 18.5871 44.5325 18.7971C44.2594 19.0108 44.1326 19.3545 44.2 19.6972L44.8735 22.942L42.5828 25.3353C42.3437 25.583 42.2654 25.9521 42.3842 26.277C42.5061 26.6035 42.7954 26.8296 43.1386 26.8673L46.4325 27.2311L48.0013 30.15C48.1588 30.4451 48.4653 30.6286 48.801 30.6286H48.828H48.8328C49.1766 30.6162 49.4901 30.4058 49.6293 30.0938L50.9941 27.0729L54.2535 26.4842C54.5989 26.4216 54.8725 26.1739 54.9653 25.8399C55.0597 25.5112 54.9577 25.1486 54.703 24.9176ZM46.3548 21.1321L48.1119 21.9798C48.3752 22.105 48.7044 22.0969 48.9559 21.9496L50.6503 20.9821L50.3865 22.9156C50.346 23.214 50.455 23.5113 50.6779 23.7099L52.1192 25.0234L50.203 25.3709C49.9056 25.4211 49.6547 25.6159 49.5344 25.8917L48.7309 27.6692L47.8075 25.9505C47.6656 25.6882 47.4044 25.5107 47.106 25.4767L45.1676 25.263L46.5146 23.8562C46.7202 23.6436 46.8087 23.3403 46.7515 23.0419L46.3548 21.1321Z" fill="white" stroke="white" stroke-width="0.3"/>
<path d="M35.7198 10.5352C37.5335 10.5352 39.011 9.06037 39.011 7.2461C39.011 5.43184 37.534 3.95593 35.7198 3.95593C33.9055 3.95593 32.4307 5.43184 32.4307 7.2461C32.4307 9.06037 33.9055 10.5352 35.7198 10.5352ZM35.7198 5.77397C36.5314 5.77397 37.1924 6.43503 37.1924 7.24664C37.1924 8.0588 36.5314 8.71824 35.7198 8.71824C34.9092 8.71824 34.2492 8.0588 34.2492 7.24664C34.2492 6.43449 34.9092 5.77397 35.7198 5.77397Z" fill="white" stroke="white" stroke-width="0.3"/>
<path d="M9.26834 37.5047C7.45462 37.5047 5.97925 38.9795 5.97925 40.7938C5.97925 42.6081 7.45462 44.0829 9.26834 44.0829C11.0826 44.0829 12.558 42.6081 12.558 40.7938C12.558 38.9795 11.0826 37.5047 9.26834 37.5047ZM9.26834 42.2654C8.45673 42.2654 7.79621 41.6054 7.79621 40.7938C7.79621 39.9822 8.45673 39.3211 9.26834 39.3211C10.08 39.3211 10.7405 39.9822 10.7405 40.7938C10.7405 41.6054 10.0805 42.2654 9.26834 42.2654Z" fill="white" stroke="white" stroke-width="0.3"/>
<path d="M46.7866 33.7784C44.9713 33.7784 43.4954 35.2543 43.4954 37.0686C43.4954 38.8828 44.9707 40.3571 46.7866 40.3571C48.6003 40.3571 50.0757 38.8828 50.0757 37.0686C50.0757 35.2543 48.6009 33.7784 46.7866 33.7784ZM46.7866 38.5396C45.9745 38.5396 45.315 37.8796 45.315 37.068C45.315 36.2559 45.9745 35.5953 46.7866 35.5953C47.5982 35.5953 48.2582 36.2564 48.2582 37.068C48.2582 37.8802 47.5982 38.5396 46.7866 38.5396Z" fill="white" stroke="white" stroke-width="0.3"/>
<path d="M7.28303 28.0184C7.28303 26.475 8.53876 25.2187 10.0827 25.2187C10.5835 25.2187 10.9914 24.8108 10.9914 24.3105C10.9914 23.8097 10.584 23.4018 10.0827 23.4018C8.55172 23.4018 7.29652 22.1558 7.28465 20.6243C7.28087 20.1262 6.87128 19.722 6.3732 19.722C5.87565 19.722 5.46769 20.1273 5.46445 20.6243C5.45258 22.1536 4.19846 23.4002 2.63836 23.4012C2.13704 23.4012 1.72961 23.8092 1.72961 24.3121C1.72961 24.6683 1.95464 24.9937 2.29515 25.1362C2.33725 25.1561 2.37556 25.1642 2.4333 25.1793C2.46946 25.1918 2.51803 25.2096 2.57954 25.215L2.66643 25.2187C4.20979 25.2187 5.46553 26.475 5.46553 28.0184C5.46553 28.5186 5.87295 28.9266 6.37428 28.9266C6.8756 28.9266 7.28303 28.5186 7.28303 28.0184ZM6.37428 25.2705C6.10284 24.9047 5.7769 24.5798 5.41102 24.3078C5.77744 24.0348 6.10284 23.7099 6.37428 23.344C6.64571 23.7099 6.97166 24.0364 7.33753 24.3078C6.9722 24.5798 6.64679 24.9052 6.37428 25.2705Z" fill="white" stroke="white" stroke-width="0.3"/>
<path d="M14.8243 5.93097C14.8556 5.94447 14.8896 5.95418 14.9582 5.97145C14.9954 5.98386 15.044 6.00167 15.1044 6.00706L15.1913 6.01084C16.7346 6.01084 17.9909 7.26712 17.9909 8.81048C17.9909 9.31073 18.3973 9.71869 18.8991 9.71869C19.3994 9.71869 19.8073 9.31073 19.8073 8.81048C19.8073 7.26712 21.0642 6.01084 22.6086 6.01084C23.1088 6.01084 23.5168 5.60287 23.5168 5.10209C23.5168 4.60023 23.1094 4.1928 22.6086 4.1928C21.0782 4.1928 19.8224 2.94624 19.8095 1.41582C19.8063 0.918818 19.3972 0.51355 18.898 0.51355C18.4 0.51355 17.9931 0.918818 17.9888 1.41582C17.9774 2.94624 16.7217 4.1928 15.1643 4.1928C14.6624 4.1928 14.255 4.60023 14.255 5.10371C14.255 5.46041 14.4795 5.78527 14.8243 5.93097ZM17.9353 5.10047C18.3023 4.82741 18.6277 4.50255 18.8991 4.13668C19.1706 4.50255 19.496 4.82849 19.8629 5.10047C19.497 5.37245 19.1706 5.69731 18.8991 6.06319C18.6277 5.69731 18.3023 5.37191 17.9353 5.10047Z" fill="white" stroke="white" stroke-width="0.3"/>
<path d="M42.5262 9.62052C42.5688 9.63995 42.6061 9.64966 42.6665 9.66531C42.7026 9.67827 42.7572 9.69715 42.8165 9.70039L42.9023 9.70471C44.4451 9.70471 45.7009 10.9604 45.7009 12.5038C45.7009 13.0057 46.1078 13.4136 46.608 13.4136C47.1099 13.4136 47.5189 13.0057 47.5189 12.5038C47.5189 10.961 48.7741 9.70471 50.318 9.70471C50.8188 9.70471 51.2262 9.29728 51.2262 8.79542C51.2262 8.29463 50.8188 7.88721 50.318 7.88721C48.7871 7.88721 47.5319 6.64064 47.5189 5.10969C47.5151 4.61215 47.1066 4.2085 46.608 4.2085C46.111 4.2085 45.7047 4.61215 45.7009 5.10969C45.6885 6.63903 44.4338 7.88505 42.8732 7.88613C42.3729 7.88613 41.965 8.29409 41.965 8.79758C41.965 9.15428 42.1905 9.47968 42.5262 9.62052ZM45.6475 8.79434C46.0122 8.52128 46.3371 8.19642 46.6091 7.82947C46.8816 8.19642 47.2065 8.52236 47.5713 8.79434C47.2065 9.0647 46.8816 9.3901 46.6091 9.75705C46.3371 9.39118 46.0122 9.06578 45.6475 8.79434Z" fill="white" stroke="white" stroke-width="0.3"/>
<path d="M27.9397 26.5828C27.4389 26.5828 27.0304 26.9903 27.0304 27.4921V46.5791C27.0304 47.0799 27.4389 47.4862 27.9397 47.4862C28.4399 47.4862 28.849 47.0799 28.849 46.5791V27.4921C28.849 26.9903 28.4405 26.5828 27.9397 26.5828Z" fill="white" stroke="white" stroke-width="0.3"/>
<path d="M44.579 17.1489C44.7587 16.9859 44.8645 16.762 44.8764 16.5191C44.8888 16.2779 44.8051 16.0453 44.6427 15.8645C44.3195 15.5089 43.7194 15.476 43.3594 15.7992C35.6216 22.7822 31.1836 32.7601 31.1836 43.1745C31.1836 44.3256 31.2392 45.4988 31.346 46.6644C31.3924 47.1339 31.7821 47.4862 32.2521 47.4862L32.3379 47.483C32.5791 47.4598 32.7982 47.3449 32.9525 47.1571C33.1069 46.9698 33.1803 46.7345 33.1581 46.4938C33.0551 45.3897 33.0027 44.2727 33.0027 43.1751C33.0022 33.2722 37.2227 23.7859 44.579 17.1489Z" fill="white" stroke="white" stroke-width="0.3"/>
<path d="M46.6626 30.1878C46.6971 29.9476 46.6372 29.708 46.492 29.5132C46.2017 29.1252 45.6043 29.0378 45.2206 29.3281C40.3655 32.9399 36.9647 38.1879 35.6458 44.1045C35.4715 44.8875 35.3334 45.6819 35.2346 46.4654C35.1742 46.963 35.5271 47.4179 36.0171 47.4794C36.0565 47.4843 36.0981 47.4864 36.138 47.4864C36.5935 47.4864 36.9793 47.1454 37.037 46.6921C37.1325 45.9479 37.261 45.2102 37.4202 44.5006C38.6419 39.0098 41.7972 34.1396 46.3053 30.7857C46.4996 30.6405 46.6275 30.4279 46.6626 30.1878Z" fill="white" stroke="white" stroke-width="0.3"/>
<path d="M10.6243 29.3271C10.2368 29.0405 9.64161 29.1274 9.3529 29.5143C9.05394 29.9158 9.13813 30.4862 9.53962 30.7857C14.0467 34.1385 17.2014 39.0087 18.4242 44.5006C18.5856 45.2275 18.7145 45.9652 18.8063 46.6921C18.8646 47.1454 19.2526 47.4864 19.7075 47.4864C19.7458 47.4864 19.7841 47.4843 19.8213 47.4794C20.0631 47.4492 20.2779 47.3278 20.4279 47.1357C20.5763 46.943 20.6416 46.7045 20.6103 46.4644C20.5072 45.6576 20.3685 44.8627 20.198 44.1045C18.8802 38.189 15.4805 32.941 10.6243 29.3271Z" fill="white" stroke="white" stroke-width="0.3"/>
<path d="M12.463 15.7994C12.1041 15.4761 11.5019 15.5069 11.1797 15.8647C11.0167 16.0455 10.9336 16.278 10.946 16.5209C10.9584 16.7632 11.0642 16.986 11.245 17.149C18.6003 23.7871 22.8197 33.2723 22.8197 43.1747C22.8197 44.2831 22.7684 45.4001 22.6654 46.4924C22.6421 46.7341 22.715 46.97 22.8683 47.1567C23.0242 47.345 23.2422 47.4599 23.4791 47.4821L23.5698 47.4864C24.0414 47.4864 24.4289 47.1324 24.4742 46.6634C24.5821 45.5092 24.6367 44.3365 24.6367 43.1747C24.6372 32.7597 20.1997 22.7823 12.463 15.7994Z" fill="white" stroke="white" stroke-width="0.3"/>
</svg>
