<svg width="61" height="46" viewBox="0 0 61 46" fill="none" xmlns="http://www.w3.org/2000/svg">
<path d="M1.88423 0.00150228C1.54622 0.033531 1.23236 0.19155 1.00437 0.444482C0.776384 0.697413 0.65077 1.02695 0.652234 1.36829L0.673476 38.2503C0.673512 38.6128 0.81675 38.9604 1.07169 39.2167C1.32662 39.4731 1.67238 39.6171 2.03292 39.6171H8.40531C8.58545 39.6197 8.76431 39.5862 8.93147 39.5187C9.09864 39.4511 9.25079 39.3509 9.37908 39.2237C9.50737 39.0965 9.60924 38.945 9.67877 38.7779C9.74831 38.6108 9.78411 38.4315 9.78411 38.2503C9.78411 38.0692 9.74831 37.8899 9.67877 37.7228C9.60924 37.5557 9.50737 37.4041 9.37908 37.2769C9.25079 37.1498 9.09864 37.0495 8.93147 36.982C8.76431 36.9144 8.58545 36.881 8.40531 36.8835H3.39236L3.37112 11.064H43.4747C43.6548 11.0665 43.8337 11.0331 44.0009 10.9655C44.168 10.898 44.3202 10.7977 44.4485 10.6706C44.5768 10.5434 44.6786 10.3918 44.7482 10.2247C44.8177 10.0576 44.8535 9.87832 44.8535 9.69718C44.8535 9.51605 44.8177 9.33672 44.7482 9.16962C44.6786 9.00252 44.5768 8.85098 44.4485 8.72381C44.3202 8.59664 44.168 8.49637 44.0009 8.42883C43.8337 8.36129 43.6548 8.32783 43.4747 8.33039H3.37112V2.73509H47.1919V14.6091H13.397C13.3546 14.6071 13.312 14.6071 13.2696 14.6091C12.9316 14.6411 12.6177 14.7991 12.3897 15.0521C12.1617 15.305 12.0361 15.6345 12.0376 15.9759V43.7388C12.0376 44.1013 12.1808 44.449 12.4358 44.7053C12.6907 44.9616 13.0365 45.1056 13.397 45.1056H59.1083C59.4688 45.1056 59.8146 44.9616 60.0695 44.7053C60.3245 44.449 60.4677 44.1013 60.4677 43.7388L60.4465 15.9759C60.4465 15.6134 60.3032 15.2658 60.0483 15.0095C59.7934 14.7531 59.4476 14.6091 59.0871 14.6091H49.9108V1.36829C49.9108 1.00581 49.7675 0.658181 49.5126 0.401866C49.2577 0.14555 48.9119 0.0015385 48.5514 0.00150228H2.01168C1.96922 -0.000500759 1.92669 -0.000500759 1.88423 0.00150228ZM6.5998 4.16595C5.849 4.16595 5.24036 4.77788 5.24036 5.53274C5.24036 6.2876 5.849 6.89953 6.5998 6.89953C7.3506 6.89953 7.95924 6.2876 7.95924 5.53274C7.95924 4.77788 7.3506 4.16595 6.5998 4.16595ZM10.7631 4.16595C10.0123 4.16595 9.40365 4.77788 9.40365 5.53274C9.40365 6.2876 10.0123 6.89953 10.7631 6.89953C11.5139 6.89953 12.1225 6.2876 12.1225 5.53274C12.1225 4.77788 11.5139 4.16595 10.7631 4.16595ZM14.9264 4.16595C14.1756 4.16595 13.5669 4.77788 13.5669 5.53274C13.5669 6.2876 14.1756 6.89953 14.9264 6.89953C15.6772 6.89953 16.2858 6.2876 16.2858 5.53274C16.2858 4.77788 15.6772 4.16595 14.9264 4.16595ZM14.7565 17.3427H47.8717C48.0783 17.4626 48.3127 17.5258 48.5514 17.5258C48.79 17.5258 49.0244 17.4626 49.2311 17.3427H57.7276L57.7489 42.3721H14.7565V17.3427ZM32.4717 20.5461C32.1337 20.5781 31.8198 20.7361 31.5919 20.9891C31.3639 21.242 31.2383 21.5715 31.2397 21.9129V32.0784C31.2397 32.3162 31.3015 32.55 31.4188 32.7565C31.5362 32.963 31.7051 33.1351 31.9089 33.2559C32.1127 33.3767 32.3443 33.4419 32.5808 33.4452C32.8174 33.4484 33.0507 33.3895 33.2576 33.2743L42.2215 28.1916C42.4339 28.0734 42.611 27.9001 42.7343 27.6898C42.8576 27.4795 42.9226 27.2398 42.9226 26.9956C42.9226 26.7515 42.8576 26.5118 42.7343 26.3015C42.611 26.0912 42.4339 25.9179 42.2215 25.7997L33.2576 20.7169C33.0188 20.5816 32.7448 20.5221 32.4717 20.5461ZM33.9586 24.2407L38.7804 26.9956L33.9586 29.7506V24.2407ZM24.1451 34.4489C23.8148 34.4908 23.5112 34.6531 23.292 34.905C23.0727 35.1569 22.953 35.481 22.9556 35.8157V36.072H18.7498C18.7074 36.07 18.6648 36.07 18.6224 36.072C18.2619 36.0891 17.9229 36.2494 17.68 36.5177C17.437 36.786 17.31 37.1404 17.3269 37.5028C17.3438 37.8653 17.5032 38.2062 17.7701 38.4505C18.0369 38.6948 18.3893 38.8225 18.7498 38.8056H22.9556V39.0619C22.9531 39.243 22.9863 39.4228 23.0535 39.5909C23.1207 39.7589 23.2204 39.9119 23.3469 40.0409C23.4734 40.1699 23.6241 40.2723 23.7903 40.3422C23.9565 40.4121 24.1349 40.4481 24.315 40.4481C24.4952 40.4481 24.6736 40.4121 24.8398 40.3422C25.006 40.2723 25.1567 40.1699 25.2832 40.0409C25.4097 39.9119 25.5094 39.7589 25.5766 39.5909C25.6438 39.4228 25.677 39.243 25.6745 39.0619V35.8157C25.676 35.6209 25.6361 35.428 25.5574 35.25C25.4787 35.072 25.363 34.9129 25.2182 34.7835C25.0734 34.6541 24.9027 34.5573 24.7176 34.4996C24.5326 34.4419 24.3374 34.4246 24.1451 34.4489ZM30.0714 36.072C29.7109 36.0919 29.373 36.2549 29.132 36.5252C28.8911 36.7956 28.7668 37.1511 28.7865 37.5135C28.8062 37.876 28.9683 38.2158 29.2372 38.4581C29.506 38.7004 29.8596 38.8254 30.2201 38.8056H53.7555C53.9356 38.8081 54.1145 38.7747 54.2817 38.7071C54.4488 38.6396 54.601 38.5393 54.7293 38.4122C54.8576 38.285 54.9594 38.1335 55.029 37.9664C55.0985 37.7993 55.1343 37.6199 55.1343 37.4388C55.1343 37.2577 55.0985 37.0783 55.029 36.9112C54.9594 36.7441 54.8576 36.5926 54.7293 36.4654C54.601 36.3382 54.4488 36.238 54.2817 36.1704C54.1145 36.1029 53.9356 36.0694 53.7555 36.072H30.2201C30.1706 36.0693 30.121 36.0693 30.0714 36.072Z" fill="white"/>
</svg>
