<svg width="58" height="53" viewBox="0 0 58 53" fill="none" xmlns="http://www.w3.org/2000/svg">
<path d="M46.4823 20.8481C45.9621 20.8481 45.5403 21.2699 45.5403 21.7901V38.7839C45.5403 39.8382 44.6825 40.696 43.6278 40.696H4.12063C3.06594 40.696 2.2081 39.8382 2.2081 38.7839V18.1164C2.2081 17.0617 3.06594 16.2039 4.12063 16.2039H28.5842C29.817 16.1897 29.825 14.3377 28.5842 14.3199L4.12063 14.3199C2.02734 14.3199 0.324097 16.0231 0.324097 18.1164V38.7839C0.324097 40.8772 2.02734 42.58 4.12063 42.58H43.6278C45.7211 42.58 47.4243 40.8772 47.4243 38.7839V21.7901C47.4243 21.2699 47.0025 20.8481 46.4823 20.8481Z" fill="white" stroke="white" stroke-width="0.6"/>
<path d="M15.8428 20.1126C15.5654 20.2842 15.3962 20.5873 15.3962 20.9139V35.986C15.3856 36.4924 15.8346 36.9385 16.3382 36.9279C16.4822 36.928 16.6266 36.8948 16.7595 36.8286L31.8316 29.2926C32.1508 29.133 32.3523 28.8069 32.3523 28.4499C32.3523 28.093 32.1508 27.7669 31.8316 27.6073L16.7595 20.0712C16.4684 19.9254 16.1211 19.9406 15.8428 20.1126ZM17.2802 22.4382L29.3041 28.4499L17.2802 34.4616V22.4382Z" fill="white" stroke="white" stroke-width="0.6"/>
<path d="M56.2473 6.44435L42.5883 1.06554C42.3666 0.978152 42.12 0.978152 41.8983 1.06554L28.2393 6.44435C27.4595 6.7221 27.4551 7.9179 28.2375 8.19681L32.522 9.887V18.0879C32.522 18.6081 32.9438 19.0299 33.464 19.0299H51.0226C51.5428 19.0299 51.9646 18.6081 51.9646 18.0879V9.88723L53.9848 9.0904V14.8585C54.0056 16.0959 55.8478 16.0971 55.8688 14.8584V8.34722L56.2478 8.19773C57.0297 7.91857 57.0297 6.72317 56.2473 6.44435ZM50.0806 10.6355V17.1458H34.406V10.6355L41.8983 13.5857C42.12 13.6731 42.3666 13.6731 42.5883 13.5857L50.0806 10.6355ZM42.2433 11.6967L31.1499 7.32334L42.2433 2.95461L53.3353 7.32242L42.2433 11.6967Z" fill="white" stroke="white" stroke-width="0.6"/>
<path d="M12.57 45.4059H1.26598C0.0312833 45.4259 0.0251082 47.2687 1.26603 47.2899L12.57 47.29C13.8047 47.27 13.8109 45.4272 12.57 45.4059Z" fill="white" stroke="white" stroke-width="0.6"/>
<path d="M6.91813 50.116H1.2661C0.0296096 50.1365 0.026701 51.9789 1.26614 52H6.91813C8.15462 51.9794 8.15752 50.137 6.91813 50.116Z" fill="white" stroke="white" stroke-width="0.6"/>
</svg>
