<svg width="56" height="43" viewBox="0 0 56 43" fill="none" xmlns="http://www.w3.org/2000/svg">
<path d="M54.9961 21.9818L42.2937 29.2957L35.5498 25.4C35.7281 24.8708 35.8187 24.3161 35.818 23.7578C35.8256 22.5339 35.402 21.3461 34.621 20.4016C33.8401 19.457 32.7514 18.8156 31.5446 18.5891C30.3378 18.3626 29.0896 18.5654 28.0175 19.1622C26.9454 19.759 26.1174 20.7118 25.6779 21.8547C25.2383 22.9975 25.2151 24.2579 25.6123 25.416C26.0095 26.5742 26.8019 27.5567 27.8513 28.1922C28.9007 28.8278 30.1407 29.0761 31.355 28.8938C32.5692 28.7116 33.6808 28.1104 34.496 27.1951L40.2245 30.4987L34.496 33.7833C33.6862 32.8802 32.5844 32.2887 31.3823 32.1114C30.1801 31.9342 28.9537 32.1826 27.9163 32.8133C26.8789 33.4441 26.0961 34.4173 25.704 35.5637C25.3119 36.7102 25.3354 37.9573 25.7704 39.0883C26.2054 40.2193 27.0243 41.1625 28.0847 41.754C29.1452 42.3455 30.3801 42.5478 31.5747 42.3257C32.7693 42.1036 33.848 41.4713 34.6233 40.5385C35.3985 39.6058 35.8213 38.4318 35.818 37.2206C35.8186 36.656 35.7281 36.095 35.5498 35.5592L42.2937 31.6827L54.9961 38.9965V36.6286L44.3571 30.4758L54.9904 24.3459L54.9961 21.9818ZM30.6086 26.8895C29.9871 26.8899 29.3794 26.7066 28.8625 26.3627C28.3455 26.0188 27.9425 25.5298 27.7044 24.9576C27.4663 24.3853 27.4038 23.7556 27.5248 23.148C27.6458 22.5403 27.9449 21.9821 28.3843 21.5439C28.8236 21.1058 29.3835 20.8073 29.993 20.6863C30.6026 20.5653 31.2345 20.6272 31.8087 20.8642C32.383 21.1012 32.8738 21.5026 33.2191 22.0177C33.5645 22.5327 33.7488 23.1383 33.7488 23.7578C33.7483 24.5879 33.4174 25.3839 32.8286 25.971C32.2399 26.5582 31.4415 26.8885 30.6086 26.8895ZM30.6086 40.3523C29.9871 40.3527 29.3794 40.1694 28.8625 39.8255C28.3455 39.4816 27.9425 38.9926 27.7044 38.4204C27.4663 37.8482 27.4038 37.2184 27.5248 36.6108C27.6458 36.0031 27.9449 35.4449 28.3843 35.0068C28.8236 34.5686 29.3835 34.2701 29.993 34.1491C30.6026 34.0281 31.2345 34.09 31.8087 34.327C32.383 34.564 32.8738 34.9654 33.2191 35.4805C33.5645 35.9955 33.7488 36.6011 33.7488 37.2206C33.7483 38.0507 33.4174 38.8467 32.8286 39.4338C32.2399 40.021 31.4415 40.3513 30.6086 40.3523Z" fill="white" stroke="white" stroke-width="0.3"/>
<path d="M50.2409 0.586487H5.13678C3.87506 0.588003 2.66545 1.08825 1.77327 1.9775C0.881098 2.86675 0.379207 4.07239 0.377686 5.32998V34.5471C0.379208 35.8045 0.88116 37.01 1.77339 37.8989C2.66562 38.7879 3.87523 39.2877 5.13678 39.2887H23.7325V37.2282H19.9946V28.5127H10.2082H2.44302V11.3796H52.9346V18.1187H55V5.32998C54.9984 4.07239 54.4966 2.86675 53.6044 1.9775C52.7122 1.08825 51.5026 0.588003 50.2409 0.586487ZM11.237 9.31153V2.64696H17.9177V9.31153H11.237ZM19.9946 2.64696H26.6772V9.31153H19.9946V2.64696ZM28.7483 9.31153V2.64696H35.4348V9.31153H28.7483ZM37.504 2.64696H44.1828V9.31153H37.504V2.64696ZM11.237 30.5751H17.9177V37.2206H11.237V30.5751ZM9.16783 30.5751V37.2378H5.14444C4.43066 37.2368 3.74637 36.9538 3.24147 36.4509C2.73656 35.9481 2.45221 35.2662 2.45069 34.5548V30.5656L9.16783 30.5751ZM2.44302 5.32998C2.44404 4.61838 2.72823 3.93624 3.23324 3.43324C3.73826 2.93024 4.42284 2.64747 5.13678 2.64696H9.16017V9.31153H2.44302V5.32998ZM46.2481 9.31153V2.64696H50.2409C50.9548 2.64747 51.6394 2.93024 52.1444 3.43324C52.6494 3.93624 52.9336 4.61838 52.9346 5.32998V9.31153H46.2481Z" fill="white" stroke="white" stroke-width="0.3"/>
</svg>
