<svg width="51" height="51" viewBox="0 0 51 51" fill="none" xmlns="http://www.w3.org/2000/svg">
<path d="M8.6084 3.52582V5.20766H42.3976V3.52582H8.6084Z" fill="white" stroke="white" stroke-width="0.6"/>
<path d="M8.6084 45.5596V47.2414H42.3976V45.5596H8.6084Z" fill="white" stroke="white" stroke-width="0.6"/>
<path d="M45.7778 8.57129V42.1957H47.4679V8.57129H45.7778Z" fill="white" stroke="white" stroke-width="0.6"/>
<path d="M3.53821 8.57129V42.1957H5.22829V8.57129H3.53821Z" fill="white" stroke="white" stroke-width="0.6"/>
<path d="M25.5033 11.9289C23.647 11.9289 22.1232 13.4453 22.1232 15.2926C22.1232 17.1399 23.647 18.6563 25.5033 18.6563C27.3597 18.6563 28.8835 17.1399 28.8835 15.2926C28.8835 13.4453 27.3597 11.9289 25.5033 11.9289ZM25.5033 13.6107C26.4465 13.6107 27.1934 14.354 27.1934 15.2926C27.1934 16.2312 26.4465 16.9744 25.5033 16.9744C24.5602 16.9744 23.8133 16.2312 23.8133 15.2926C23.8133 14.354 24.5602 13.6107 25.5033 13.6107Z" fill="white" stroke="white" stroke-width="0.6"/>
<path d="M25.503 24.5396C25.3837 24.5402 25.2659 24.566 25.1573 24.6152C25.0488 24.6644 24.9519 24.736 24.8731 24.8251L18.1128 32.3903C18.0164 32.4972 17.9492 32.627 17.9175 32.7671C17.8859 32.9073 17.8908 33.0531 17.9319 33.1909L20.4702 41.6001C20.5231 41.7729 20.6305 41.9241 20.7765 42.0314C20.9225 42.1387 21.0994 42.1964 21.2809 42.1958H29.7251C29.9066 42.1964 30.0835 42.1387 30.2295 42.0314C30.3755 41.9241 30.4829 41.7729 30.5358 41.6001L33.0679 33.1909C33.1098 33.0537 33.1157 32.9081 33.0852 32.768C33.0546 32.6278 32.9885 32.4978 32.8932 32.3903L26.1329 24.8251C26.0541 24.736 25.9572 24.6644 25.8487 24.6152C25.7401 24.566 25.6223 24.5402 25.503 24.5396ZM25.503 26.6497L31.3154 33.1598L29.0952 40.514H21.9046L19.6906 33.1598L25.503 26.6497Z" fill="white" stroke="white" stroke-width="0.6"/>
<path d="M24.6549 26.2214V32.1109H26.345V26.2214H24.6549Z" fill="white" stroke="white" stroke-width="0.6"/>
<path d="M39.0177 11.9289C37.1614 11.9289 35.6438 13.4453 35.6438 15.2926C35.6438 17.1399 37.1614 18.6563 39.0177 18.6563C40.8741 18.6563 42.3979 17.1399 42.3979 15.2926C42.3979 13.4453 40.8741 11.9289 39.0177 11.9289ZM39.0177 13.6107C39.9609 13.6107 40.7078 14.354 40.7078 15.2926C40.7078 16.2312 39.9609 16.9744 39.0177 16.9744C38.0745 16.9744 37.3276 16.2312 37.3276 15.2926C37.3276 14.354 38.0745 13.6107 39.0177 13.6107Z" fill="white" stroke="white" stroke-width="0.6"/>
<path d="M11.9823 11.9289C10.126 11.9289 8.6084 13.4453 8.6084 15.2926C8.6084 17.1399 10.126 18.6563 11.9823 18.6563C13.8387 18.6563 15.3625 17.1399 15.3625 15.2926C15.3625 13.4453 13.8387 11.9289 11.9823 11.9289ZM11.9823 13.6107C12.9255 13.6107 13.6724 14.354 13.6724 15.2926C13.6724 16.2312 12.9255 16.9744 11.9823 16.9744C11.0391 16.9744 10.2985 16.2312 10.2985 15.2926C10.2985 14.354 11.0391 13.6107 11.9823 13.6107Z" fill="white" stroke="white" stroke-width="0.6"/>
<path d="M22.7966 14.7651C17.4563 16.0135 13.6726 20.7626 13.6726 26.2215H15.3627C15.3627 21.534 18.5976 17.4755 23.1832 16.4035L22.7966 14.7651Z" fill="white" stroke="white" stroke-width="0.6"/>
<path d="M28.216 14.7651L27.8293 16.4035C32.4124 17.4775 35.6437 21.536 35.6436 26.2215H37.3275C37.3275 20.765 33.5532 16.0158 28.216 14.7651Z" fill="white" stroke="white" stroke-width="0.6"/>
<path d="M36.4854 25.3837C34.629 25.3837 33.1052 26.9001 33.1052 28.7473C33.1052 30.5946 34.629 32.111 36.4854 32.111C38.3417 32.111 39.8656 30.5946 39.8656 28.7473C39.8656 26.9001 38.3417 25.3837 36.4854 25.3837ZM36.4854 27.0655C37.4286 27.0655 38.1755 27.8088 38.1755 28.7473C38.1755 29.6859 37.4286 30.4292 36.4854 30.4292C35.5422 30.4292 34.7953 29.6859 34.7953 28.7473C34.7953 27.8088 35.5422 27.0655 36.4854 27.0655Z" fill="white" stroke="white" stroke-width="0.6"/>
<path d="M14.5208 25.3837C12.6644 25.3837 11.1406 26.9001 11.1406 28.7473C11.1406 30.5946 12.6644 32.111 14.5208 32.111C16.3771 32.111 17.901 30.5946 17.901 28.7473C17.901 26.9001 16.3771 25.3837 14.5208 25.3837ZM14.5208 27.0655C15.464 27.0655 16.2109 27.8088 16.2109 28.7473C16.2109 29.6859 15.464 30.4292 14.5208 30.4292C13.5776 30.4292 12.8307 29.6859 12.8307 28.7473C12.8307 27.8088 13.5776 27.0655 14.5208 27.0655Z" fill="white" stroke="white" stroke-width="0.6"/>
<path d="M28.0353 14.4547V16.1366H36.4857V14.4547H28.0353Z" fill="white" stroke="white" stroke-width="0.6"/>
<path d="M14.5208 14.4547V16.1366H22.9712V14.4547H14.5208Z" fill="white" stroke="white" stroke-width="0.6"/>
<path d="M42.3977 1C42.2867 1.00039 42.1769 1.02253 42.0746 1.06516C41.9722 1.1078 41.8792 1.17008 41.8011 1.24846C41.7229 1.32683 41.661 1.41977 41.6189 1.52196C41.5768 1.62415 41.5554 1.73359 41.5558 1.84402V8.57139C41.5566 8.79335 41.6455 9.00599 41.8033 9.16294C41.961 9.3199 42.1747 9.40842 42.3977 9.4092H49.1581C49.3811 9.40842 49.5948 9.3199 49.7525 9.16294C49.9102 9.00599 49.9992 8.79335 50 8.57139V1.84402C50.0004 1.73359 49.979 1.62415 49.9369 1.52196C49.8948 1.41977 49.8329 1.32683 49.7547 1.24846C49.6765 1.17008 49.5836 1.1078 49.4812 1.06516C49.3788 1.02253 49.269 1.00039 49.1581 1H42.3977ZM43.2459 2.68184H48.3161V7.72736H43.2459V2.68184Z" fill="white" stroke="white" stroke-width="0.6"/>
<path d="M42.3977 41.3579C42.1747 41.3587 41.961 41.4472 41.8033 41.6042C41.6455 41.7611 41.5566 41.9738 41.5558 42.1957V48.9231C41.5566 49.1451 41.6455 49.3577 41.8033 49.5146C41.961 49.6716 42.1747 49.7601 42.3977 49.7609H49.1581C49.3811 49.7601 49.5948 49.6716 49.7525 49.5146C49.9102 49.3577 49.9992 49.1451 50 48.9231V42.1957C49.9992 41.9738 49.9102 41.7611 49.7525 41.6042C49.5948 41.4472 49.3811 41.3587 49.1581 41.3579H42.3977ZM43.2459 43.0398H48.3161V48.0853H43.2459V43.0398Z" fill="white" stroke="white" stroke-width="0.6"/>
<path d="M1.84817 1.00001C1.73666 0.99958 1.62618 1.02112 1.52308 1.06339C1.41999 1.10565 1.32632 1.1678 1.24747 1.24626C1.16863 1.32472 1.10617 1.41794 1.0637 1.52053C1.02122 1.62313 0.999578 1.73307 1.00001 1.84403V8.57139C1.0004 8.68183 1.02265 8.7911 1.06549 8.89298C1.10833 8.99486 1.17092 9.08734 1.24968 9.16514C1.32844 9.24294 1.42184 9.30454 1.52453 9.34642C1.62722 9.3883 1.73719 9.40963 1.84817 9.40921H8.60851C8.83156 9.40842 9.04524 9.3199 9.20297 9.16295C9.36069 9.006 9.44964 8.79335 9.45043 8.57139V1.84403C9.45086 1.73359 9.42942 1.62416 9.38733 1.52197C9.34525 1.41978 9.28335 1.32684 9.20517 1.24846C9.12698 1.17008 9.03405 1.1078 8.93167 1.06517C8.8293 1.02254 8.71948 1.0004 8.60851 1.00001H1.84817ZM2.69009 2.68185H7.76035V7.72737H2.69009V2.68185Z" fill="white" stroke="white" stroke-width="0.6"/>
<path d="M1.84816 41.3579C1.73718 41.3575 1.62721 41.3788 1.52452 41.4207C1.42183 41.4626 1.32844 41.5242 1.24967 41.602C1.17091 41.6798 1.10832 41.7723 1.06548 41.8741C1.02264 41.976 1.00039 42.0853 1 42.1957V48.9231C1.00039 49.0335 1.02264 49.1428 1.06548 49.2447C1.10832 49.3466 1.17091 49.439 1.24967 49.5168C1.32844 49.5946 1.42183 49.6562 1.52452 49.6981C1.62721 49.74 1.73718 49.7613 1.84816 49.7609H8.6085C8.83155 49.7601 9.04524 49.6716 9.20296 49.5147C9.36068 49.3577 9.44964 49.1451 9.45043 48.9231V42.1957C9.44964 41.9738 9.36068 41.7611 9.20296 41.6042C9.04524 41.4472 8.83155 41.3587 8.6085 41.3579H1.84816ZM2.69009 43.0398H7.76034V48.0853H2.69009V43.0398Z" fill="white" stroke="white" stroke-width="0.6"/>
</svg>
