<svg width="55" height="52" viewBox="0 0 55 52" fill="none" xmlns="http://www.w3.org/2000/svg">
<path d="M52.7737 48.948H37.2097V47.446C37.2097 46.0921 36.1039 44.99 34.7455 44.99H28.1348V40.537C36.3487 40.1237 42.9087 33.3532 42.9087 25.0653V10.3398C42.9087 9.9058 42.556 9.55389 42.1202 9.55389C41.6843 9.55389 41.3317 9.9058 41.3317 10.3398V25.0653C41.3317 32.7516 35.0582 39.0049 27.3462 39.0049C19.6351 39.0049 13.3612 32.7516 13.3612 25.0653V10.3398C13.3612 9.9058 13.0081 9.55389 12.5727 9.55389C12.1372 9.55389 11.7842 9.9058 11.7842 10.3398V25.0653C11.7842 33.3532 18.3438 40.1237 26.5577 40.5369V44.99H19.9477C18.5894 44.99 17.4836 46.0921 17.4836 47.446V48.948H1.96235C1.52689 48.948 1.17383 49.2995 1.17383 49.734C1.17383 50.1684 1.52689 50.5199 1.96235 50.5199C20.6597 50.5199 34.7975 50.5199 52.7737 50.5199C53.2095 50.5199 53.5622 50.1684 53.5622 49.734C53.5622 49.2995 53.2095 48.948 52.7737 48.948ZM19.0606 48.948V47.446C19.0606 46.9586 19.4588 46.5618 19.9477 46.5618H34.7455C35.2345 46.5618 35.6326 46.9586 35.6326 47.446V48.948H19.0606Z" fill="white" stroke="white"/>
<path d="M26.8002 35.8482C32.9556 36.1536 38.1775 31.2702 38.1775 25.0654C38.1779 23.6992 38.1761 30.0146 38.1814 11.7037C38.1814 5.02419 33.2172 1 27.3516 1C27.35 1 27.3485 1 27.347 1C21.9629 1.0023 16.5133 4.67984 16.5133 11.7037C16.5135 13.0404 16.5127 6.86213 16.5148 24.7749C16.5149 30.7001 21.0327 35.5642 26.8002 35.8482ZM36.6005 25.0654C36.6005 30.3524 32.1433 34.5507 26.8788 34.2778C21.9513 34.0353 18.0919 29.8612 18.0919 24.7749V21.8215H36.6005L36.6005 25.0654ZM18.0904 11.7037C18.0904 5.43239 22.8892 2.57378 27.347 2.57187C27.3485 2.57187 27.3501 2.57187 27.3516 2.57187C32.3887 2.57187 36.6044 5.92808 36.6044 11.7037V20.2469H18.0904V11.7037Z" fill="white" stroke="white"/>
<path d="M23.7325 6.3219H20.9064C20.4706 6.3219 20.1179 6.6738 20.1179 7.10783C20.1179 7.54186 20.4706 7.89377 20.9064 7.89377H23.7325C24.1683 7.89377 24.521 7.54186 24.521 7.10783C24.521 6.6738 24.1683 6.3219 23.7325 6.3219Z" fill="white" stroke="white"/>
<path d="M33.7861 6.3219H30.96C30.5242 6.3219 30.1715 6.6738 30.1715 7.10783C30.1715 7.54186 30.5242 7.89377 30.96 7.89377H33.7861C34.2219 7.89377 34.5746 7.54186 34.5746 7.10783C34.5746 6.6738 34.2219 6.3219 33.7861 6.3219Z" fill="white" stroke="white"/>
<path d="M23.7325 10.5789H20.9064C20.4706 10.5789 20.1179 10.9308 20.1179 11.3649C20.1179 11.7989 20.4706 12.1508 20.9064 12.1508H23.7325C24.1683 12.1508 24.521 11.7989 24.521 11.3649C24.521 10.9308 24.1683 10.5789 23.7325 10.5789Z" fill="white" stroke="white"/>
<path d="M33.7861 10.5789H30.96C30.5242 10.5789 30.1715 10.9308 30.1715 11.3649C30.1715 11.7989 30.5242 12.1508 30.96 12.1508H33.7861C34.2219 12.1508 34.5746 11.7989 34.5746 11.3649C34.5746 10.9308 34.2219 10.5789 33.7861 10.5789Z" fill="white" stroke="white"/>
<path d="M23.7325 14.8364H20.9064C20.4706 14.8364 20.1179 15.1883 20.1179 15.6223C20.1179 16.0563 20.4706 16.4082 20.9064 16.4082H23.7325C24.1683 16.4082 24.521 16.0563 24.521 15.6223C24.521 15.1883 24.1683 14.8364 23.7325 14.8364Z" fill="white" stroke="white"/>
<path d="M33.7861 14.8364H30.96C30.5242 14.8364 30.1715 15.1883 30.1715 15.6223C30.1715 16.0563 30.5242 16.4082 30.96 16.4082H33.7861C34.2219 16.4082 34.5746 16.0563 34.5746 15.6223C34.5746 15.1883 34.2219 14.8364 33.7861 14.8364Z" fill="white" stroke="white"/>
<path d="M46.5209 28.0552V16.4508C46.5209 16.0168 46.1682 15.6649 45.7324 15.6649C45.2965 15.6649 44.9438 16.0168 44.9438 16.4508V28.0552C44.9438 28.4892 45.2965 28.8411 45.7324 28.8411C46.1682 28.8411 46.5209 28.4892 46.5209 28.0552Z" fill="white" stroke="white"/>
<path d="M51.6494 32.64V21.0356C51.6494 20.6015 51.2967 20.2496 50.8609 20.2496C50.4251 20.2496 50.0724 20.6015 50.0724 21.0356V32.64C50.0724 33.074 50.4251 33.4259 50.8609 33.4259C51.2967 33.4259 51.6494 33.074 51.6494 32.64Z" fill="white" stroke="white"/>
<path d="M4.58619 27.493V15.8886C4.58619 15.4546 4.23313 15.1027 3.79767 15.1027C3.36221 15.1027 3.00916 15.4546 3.00916 15.8886V27.493C3.00916 27.927 3.36221 28.2789 3.79767 28.2789C4.23313 28.2789 4.58619 27.927 4.58619 27.493Z" fill="white" stroke="white"/>
<path d="M9.71473 32.0778V20.4734C9.71473 20.0393 9.36167 19.6874 8.92621 19.6874C8.49075 19.6874 8.1377 20.0393 8.1377 20.4734V32.0778C8.1377 32.5118 8.49075 32.8637 8.92621 32.8637C9.36167 32.8637 9.71473 32.5118 9.71473 32.0778Z" fill="white" stroke="white"/>
</svg>
