<?xml version="1.0" encoding="UTF-8"?>
<svg version="1.1" viewBox="0 0 1600 1600" width="1280" height="1280" xmlns="http://www.w3.org/2000/svg">
<path transform="translate(0)" d="m0 0h1600v1600h-1600v-1600z" fill="#FAFCFE"/>
<path transform="translate(510 275)" d="m0 0c1.01 5.45e-4 2.02 0.00109 3.06 0.00165 1.73-0.00629 1.73-0.00629 3.5-0.0127 1.28 0.00562 2.55 0.0112 3.86 0.017 1.35-0.00107 2.7-0.00301 4.06-0.00575 3.68-0.00486 7.37 0.00283 11 0.013 3.87 0.00879 7.73 0.00702 11.6 0.00664 6.51 9.38e-4 13 0.00963 19.5 0.0233 7.48 0.0156 15 0.021 22.5 0.0203 8-6.81e-4 16 0.0063 24 0.0154 2.28 0.00211 4.57 0.00284 6.85 0.00324 41.8 0.0143 41.8 0.0143 56 3.23 0.963 0.216 1.93 0.431 2.92 0.653 25.6 6.08 47.5 18.9 66.4 37 1.11 1.05 2.24 2.09 3.37 3.11 18.3 17 29.2 42.2 34.3 66.2 0.245 1.16 0.245 1.16 0.496 2.33 2.32 12 2.4 24.2 2.35 36.4-0.00222 2-0.00443 4.01-0.00663 6.01-0.00333 2.16-0.00918 4.31-0.0157 6.47-0.0141 4.69-0.0201 9.38-0.0252 14.1-0.0081 6.92-0.0189 13.8-0.0315 20.8-0.0344 19.3-0.048 38.6-0.0537 57.9-5.26e-4 1.55-5.26e-4 1.55-0.00106 3.13-0.0113 36.7 0.11 73.3 0.29 110 0.00622 1.27 0.0124 2.55 0.0189 3.86 0.0569 11.6 0.115 23.2 0.173 34.9 0.757 150 0.757 150 0.272 210-0.0296 3.7-0.0561 7.4-0.0821 11.1-0.382 52-0.989 97.2-38.6 137-0.758 0.822-1.52 1.64-2.3 2.49-22.1 23.2-55.7 38.1-87.7 38.9-2.81 0.0223-5.63 0.00767-8.44-0.011-1.57 7.94e-4 -3.13 0.0029-4.7 0.0062-4.2 0.00507-8.4-0.00826-12.6-0.0255-4.41-0.0152-8.82-0.0139-13.2-0.0147-7.39-0.00367-14.8-0.0186-22.2-0.0412-9.49-0.029-19-0.0392-28.5-0.0437-8.17-0.00397-16.3-0.0165-24.5-0.0303-2.63-0.0041-5.25-0.00703-7.88-0.0098-4.11-0.00488-8.22-0.0151-12.3-0.0294-1.51-0.00454-3.02-0.00736-4.53-0.00841-2.05-0.00174-4.11-0.0102-6.16-0.0191-1.15-0.00297-2.3-0.00595-3.49-0.00901-2.56-0.131-2.56-0.131-3.56-1.13-0.0986-1.75-0.126-3.51-0.126-5.26-0.00276-1.15-0.00552-2.3-0.00836-3.49 0.00206-1.28 0.00411-2.57 0.00623-3.89-0.00134-1.37-0.00313-2.74-0.00531-4.1-0.00476-3.79-0.00322-7.59-7.22e-4 -11.4 0.00162-4.12-0.0025-8.23-0.00591-12.3-0.00517-7.22-0.00657-14.4-0.00554-21.7 0.00152-10.7-0.00263-21.5-0.00787-32.2-0.00969-20.3-0.0125-40.6-0.0131-60.9-4.59e-4 -15.7-0.00251-31.3-0.0057-47-8.97e-4 -4.5-0.00179-9.01-0.00267-13.5-2.21e-4 -1.12-4.42e-4 -2.24-6.7e-4 -3.39-0.00616-31.5-0.0101-63-0.00966-94.5 1.56e-5 -1.19 3.12e-5 -2.38 4.72e-5 -3.6 8.31e-5 -6.03 1.82e-4 -12.1 2.85e-4 -18.1 1.99e-5 -1.2 3.99e-5 -2.39 6.04e-5 -3.63 4.04e-5 -2.42 8.22e-5 -4.84 1.25e-4 -7.26 6.13e-4 -37.7-0.0069-75.3-0.0206-113-0.0153-42.3-0.024-84.6-0.023-127 7.46e-5 -4.5 1.23e-4 -9.01 1.54e-4 -13.5 1.17e-5 -1.11 2.33e-5 -2.22 3.53e-5 -3.36 3.08e-5 -17.9-0.00637-35.8-0.015-53.7-0.00846-18-0.00948-35.9-0.00289-53.9 0.00371-10.7 0.00182-21.4-0.00794-32.1-0.00596-7.12-0.00475-14.2 0.00247-21.4 0.00391-4.07 0.00457-8.13-0.00346-12.2-0.00722-3.69-0.00541-7.39 0.00392-11.1 0.00256-1.97-0.00479-3.94-0.0124-5.91 0.00475-1.15 0.0095-2.31 0.0144-3.5-8.82e-5 -1-1.76e-4 -2-2.67e-4 -3.03 0.353-3.34 1.3-4.26 4.63-4.61z" fill="#F9366A"/>
<path transform="translate(1069 310)" d="m0 0c2.16 2.09 2.16 2.09 5.12 4.32 17.7 15.8 30.7 39.4 36.7 62.2 0.199 0.723 0.398 1.45 0.602 2.19 4.71 19.1 3.93 39.3 3.85 58.8-0.0127 3.76-0.0137 7.51-0.0161 11.3-0.00616 7.08-0.0225 14.2-0.0427 21.2-0.0225 8.07-0.0334 16.1-0.0434 24.2-0.0208 16.6-0.0558 33.1-0.101 49.7-12.1 0.0231-24.2 0.0409-36.3 0.0518-5.62 0.00523-11.2 0.0123-16.9 0.0236-5.42 0.0108-10.8 0.0168-16.3 0.0194-2.07 0.00185-4.15 0.00548-6.22 0.0109-2.89 0.00721-5.79 0.00826-8.68 0.0078-0.866 0.0036-1.73 0.00719-2.62 0.0109-5.91-0.0104-5.91-0.0104-7.03-1.12-0.102-1.76-0.134-3.52-0.138-5.28-0.00545-1.15-0.0109-2.29-0.0165-3.47-0.00104-1.27-0.00208-2.54-0.00316-3.84-0.00467-1.34-0.00981-2.68-0.0154-4.02-0.0113-2.89-0.0197-5.79-0.0261-8.68-0.0107-4.59-0.0309-9.17-0.0531-13.8-0.0619-13-0.116-26.1-0.149-39.1-0.0184-7.2-0.0474-14.4-0.088-21.6-0.021-3.81-0.0365-7.61-0.0388-11.4-0.00217-3.59-0.0182-7.18-0.0444-10.8-0.0105-1.93-0.00647-3.86-0.00182-5.78-0.138-14.7-3.7-26.1-13.7-37.1-8.75-8.09-19.8-11.8-31.6-12.3-12.3 0.597-24.2 5.79-33.2 14.1-8.66 10-12.2 20.2-12.1 33.2-0.00308 1.4-0.00308 1.4-0.00622 2.82-0.00568 3.14-0.00421 6.28-0.00279 9.41-0.00258 2.27-0.0056 4.53-9e-3 6.8-0.00808 6.24-0.00986 12.5-0.0106 18.7-0.00166 6.03-0.00798 12.1-0.0141 18.1-0.0161 16.2-0.022 32.3-0.0267 48.5-0.00234 7.65-0.00594 15.3-0.0097 22.9-0.0128 26.2-0.0236 52.4-0.027 78.5-2.22e-4 1.64-4.43e-4 3.29-6.65e-4 4.93-2.21e-4 1.65-4.41e-4 3.29-6.61e-4 4.94-4.43e-4 3.3-8.9e-4 6.61-0.00134 9.91-1.09e-4 0.819-2.19e-4 1.64-3.31e-4 2.48-0.00363 26.6-0.0196 53.1-0.0429 79.7-0.0246 28.1-0.0383 56.2-0.0395 84.3-1.71e-4 3.08-3.87e-4 6.17-6.34e-4 9.25-5.58e-5 0.759-1.12e-4 1.52-1.69e-4 2.3-0.00115 12.2-0.0122 24.4-0.0267 36.7-0.0144 12.3-0.0176 24.6-0.00956 36.8 0.00406 6.65 0.00295 13.3-0.0111 20-0.0127 6.09-0.0116 12.2 5.91e-4 18.3 0.00196 2.2-0.00115 4.41-0.00984 6.61-0.0111 3-0.00362 5.99 0.00839 8.99-0.0114 1.28-0.0114 1.28-0.023 2.59 0.0925 10.7 3.69 19.9 10.4 28.2 3.17 2.92 6.47 5.52 10 8-0.66 0.99-1.32 1.98-2 3-22.9-8.44-42.3-23.6-57-43-0.764-0.976-1.53-1.95-2.32-2.96-23.6-30.8-40-72.7-46.3-111-0.398-2.14-0.913-4.22-1.46-6.33-0.946-3.84-1.08-6.8-0.914-10.7h-2c-0.488-2.02-0.977-4.04-1.46-6.05-0.484-2-0.484-2-1.54-3.95-0.0981-2.16-0.129-4.32-0.131-6.47-0.00205-0.676-0.00411-1.35-0.00622-2.05-0.0057-2.29-0.00421-4.57-0.00279-6.86-0.00258-1.65-0.00559-3.29-9e-3 -4.94-0.00809-4.54-0.00986-9.09-0.0106-13.6-0.00185-4.89-0.00939-9.79-0.0161-14.7-0.0136-10.7-0.0196-21.4-0.024-32.1-0.00276-6.69-7e-3 -13.4-0.0115-20.1-0.0122-18.5-0.0225-37.1-0.0259-55.6-2.2e-4 -1.19-4.39e-4 -2.37-6.65e-4 -3.6-2.18e-4 -1.19-4.37e-4 -2.38-6.61e-4 -3.61-4.43e-4 -2.41-8.9e-4 -4.82-0.00134-7.24-2.21e-4 -1.2-4.43e-4 -2.39-6.71e-4 -3.63-0.00394-19.4-0.0214-38.7-0.0447-58.1-0.0237-19.9-0.0362-39.8-0.0373-59.6-9.15e-4 -11.2-0.00663-22.3-0.0248-33.5-0.0154-9.51-0.0205-19-0.0123-28.5 0.00389-4.85 0.00306-9.69-0.0111-14.5-0.0128-4.45-0.0115-8.9 5.91e-4 -13.3 0.00194-1.6-0.00104-3.2-0.00984-4.79-0.172-33.3 10.7-64.6 32.4-90.1 0.812-0.959 1.62-1.92 2.46-2.91 16-18.4 37.5-31.4 60.6-39.1 2.9-0.923 2.9-0.923 5.23-2.01 43.6-15.7 100-2.46 134 29.1z" fill="#00D1D0"/>
<path transform="translate(607 365)" d="m0 0c1.32 0.00157 1.32 0.00157 2.67 0.00317 0.959 0.0131 1.92 0.0263 2.91 0.0398 0.999 0.00862 2 0.0172 3.03 0.0261 3.37 0.0383 6.73 0.0982 10.1 0.161 1.86 0.029 1.86 0.029 3.76 0.0586 3.85 0.0663 7.7 0.156 11.6 0.254 1.21 0.0223 2.42 0.0446 3.66 0.0676 13 0.402 24 3.76 33.7 12.8 5.79 6.18 10.6 13.5 12.3 21.8 0.164 0.648 0.327 1.3 0.496 1.96 1.38 5.59 1.79 10.8 1.76 16.5 0.00351 0.918 0.00701 1.84 0.0106 2.78 0.00929 3.07 0.0044 6.13-4.68e-4 9.2 0.00374 2.22 0.00834 4.45 0.0137 6.67 0.0122 6.11 0.012 12.2 0.00961 18.3-3.66e-4 5.91 0.00862 11.8 0.0172 17.7 0.0193 13.6 0.025 27.2 0.0261 40.8 9.2e-4 10.5 0.00504 21 0.0114 31.5 0.0018 3.02 0.00357 6.04 0.00535 9.07 4.42e-4 0.751 8.84e-4 1.5 0.00134 2.28 0.0123 21.1 0.0202 42.3 0.0193 63.4-3.12e-5 0.796-6.23e-5 1.59-9.44e-5 2.41-1.66e-4 4.04-3.64e-4 8.07-5.69e-4 12.1-3.99e-5 0.802-7.98e-5 1.6-1.21e-4 2.43-8.09e-5 1.62-1.64e-4 3.24-2.51e-4 4.86-0.00123 25.2 0.0138 50.4 0.0411 75.6 0.0307 28.3 0.0479 56.7 0.0461 85-1.49e-4 3.02-2.47e-4 6.05-3.09e-4 9.07-2.33e-5 0.745-4.66e-5 1.49-7.06e-5 2.26-6.15e-5 12 0.0127 23.9 0.0299 35.9 0.017 12 0.0189 24.1 0.00578 36.1-0.00673 6.52-0.00665 13 0.0107 19.5 0.0157 5.97 0.0129 11.9-0.00457 17.9-0.00307 2.15 5.53e-4 4.31 0.0117 6.46 0.0825 17-0.932 33.5-12.5 47.1-9.9 9.19-20.6 14.2-34.2 14.4-1.16 0.029-1.16 0.029-2.35 0.0587-2.47 0.0593-4.93 0.106-7.4 0.152-1.62 0.0383-3.25 0.0773-4.87 0.117-3.95 0.0938-7.91 0.161-11.9 0.218-2.22 0.0391-4.44 0.102-6.66 0.168-1.35 0.0283-2.7 0.056-4.05 0.083-1.17 0.0314-2.35 0.0628-3.56 0.0952-3.57-0.364-4.63-0.617-7-3.31-0.62-3.2-0.527-6.39-0.489-9.64-0.00432-1.01-0.00863-2.01-0.0131-3.05-0.00966-3.4 0.00945-6.81 0.0282-10.2-0.00103-2.45-0.00381-4.9-0.00822-7.35-0.00556-5.35 0.00137-10.7 0.0191-16 0.0263-7.95 0.0298-15.9 0.0285-23.9-0.00161-13.4 0.0153-26.7 0.0425-40.1 0.0269-13.3 0.0451-26.5 0.0518-39.8 4.2e-4 -0.824 8.4e-4 -1.65 0.00127-2.5 0.00208-4.18 4e-3 -8.36 0.00584-12.5 0.0133-29.6 0.0444-59.3 0.0866-88.9 0.0409-28.8 0.0764-57.6 0.103-86.4 8.09e-4 -0.886 0.00162-1.77 0.00245-2.69 0.0184-20.2 0.0351-40.5 0.0504-60.7 0.0013-1.72 0.0026-3.43 0.0039-5.15 0.00129-1.71 0.00259-3.42 0.00388-5.13 6.39e-4 -0.844 0.00128-1.69 0.00194-2.56 0.0032-4.23 0.00636-8.46 0.00945-12.7 0.0146-19.9 0.0343-39.8 0.0628-59.7 0.0179-12.5 0.0326-25 0.0449-37.5 0.00795-7.91 0.0189-15.8 0.0339-23.7 0.0109-5.9 0.0167-11.8 0.0204-17.7 0.00236-2.39 0.00645-4.78 0.0124-7.17 0.00787-3.24 0.00956-6.48 0.00971-9.73 0.00377-0.933 0.00754-1.87 0.0114-2.83-0.00737-5.24-0.398-10.2-1.12-15.4 0.0284-3.32 0.392-6.58 0.75-9.88 0.0748-0.853 0.15-1.71 0.227-2.59 0.0851-0.815 0.17-1.63 0.258-2.47 0.0744-0.735 0.149-1.47 0.226-2.23 1.15-3.94 4.32-4.09 7.84-4.07z" fill="#FAFDFE"/>
<path transform="translate(837,812)" d="m0 0h3c0.164 0.965 0.164 0.965 0.332 1.95 1.08 6.16 2.35 12.2 3.79 18.3 0.509 2.16 1.01 4.32 1.47 6.49 1.93 8.81 4.49 17.3 7.34 25.9 0.237 0.712 0.475 1.42 0.719 2.16 14.6 43.4 37.6 90.7 80.5 112 3.01 1.46 6.03 2.87 9.12 4.16 0.81 0.347 1.62 0.694 2.45 1.05 2.58 0.715 3.78 0.358 6.3-0.363 1.69 0.964 3.35 1.97 5 3 6.59 2.92 12.4 3.35 19.5 2.88 0.886-0.0361 1.77-0.0722 2.68-0.109 11.6-0.65 21.6-4.86 30.1-13 9.15-10.5 11.5-22.8 11.3-36.3 0.0052-1.39 0.0126-2.78 0.022-4.16 0.0154-2.96 0.0155-5.91 3e-3 -8.87-0.0197-4.67-0.00424-9.35 0.0155-14 0.027-7.38 0.0307-14.8 0.0242-22.1-0.011-13.3 0.0136-26.5 0.0537-39.8 0.0131-4.65 0.0143-9.3 0.00587-13.9-0.00361-2.88 6.61e-4 -5.76 0.00684-8.64 0.00161-1.98-0.00688-3.95-0.0156-5.93 0.00394-1.17 0.00788-2.34 0.0119-3.54-0.00145-1.53-0.00145-1.53-0.00292-3.09 0.248-2.41 0.248-2.41 2.25-4.41 2.89-0.193 5.68-0.262 8.56-0.243 0.886-0.0019 1.77-0.0038 2.69-0.00575 2.94-0.00371 5.88 0.00701 8.82 0.0182 2.03 0.00119 4.07 0.00165 6.1 0.00139 4.27 0.00157 8.54 0.00986 12.8 0.0233 5.48 0.017 11 0.0208 16.5 0.0201 4.2 2.71e-4 8.41 0.00575 12.6 0.013 2.02 0.00319 4.05 0.00516 6.07 0.00589 2.82 0.00216 5.64 0.0109 8.46 0.0216 0.844-4.53e-4 1.69-9.06e-4 2.56-0.00137 5.76 0.0322 5.76 0.0322 6.88 1.15 0.101 1.73 0.131 3.46 0.134 5.19 0.00426 1.13 0.00853 2.25 0.0129 3.41-4.53e-4 1.25-9.06e-4 2.49-0.00137 3.78 0.00504 1.96 0.00504 1.96 0.0102 3.95 0.00887 3.59 0.0112 7.19 0.0118 10.8 7.11e-4 2.25 0.00285 4.51 0.0055 6.76 0.00927 7.88 0.0133 15.8 0.0125 23.6-5.96e-4 7.3 0.00986 14.6 0.0257 21.9 0.0132 6.29 0.0184 12.6 0.0178 18.9-2.52e-4 3.75 0.00245 7.5 0.0132 11.2 0.107 40.2 0.107 40.2-4.37 58.1-0.315 1.29-0.315 1.29-0.637 2.6-6.28 24.1-21.3 46.8-40.2 62.8-0.877 0.776-1.75 1.55-2.66 2.35-19.5 16.9-44.6 28.5-70.3 31.6-2.36-0.492-2.36-0.492-4-1-0.33 0.33-0.66 0.66-1 1-19.5 2.39-40.2 0.943-59-5-0.685-0.211-1.37-0.423-2.07-0.641-22-6.87-39.9-19-56.9-34.4-0.688-0.615-1.38-1.23-2.09-1.86-17.1-16.2-28.1-39-33.9-61.5-0.199-0.771-0.399-1.54-0.604-2.34-2.68-11.3-2.61-23-2.6-34.6-3e-3 -1.38-0.00641-2.76-0.0102-4.13-0.00873-3.7-0.0112-7.4-0.0118-11.1-7.15e-4 -2.31-0.00286-4.63-0.0055-6.94-0.00921-8.07-0.0133-16.1-0.0125-24.2 6.04e-4 -7.52-0.01-15-0.0257-22.6-0.0131-6.47-0.0184-12.9-0.0178-19.4 2.55e-4 -3.86-0.00261-7.72-0.0132-11.6-0.00964-3.62-0.00979-7.24-0.00248-10.9 0.00155-1.97-0.00682-3.93-0.0154-5.9 0.00419-1.16 0.00839-2.32 0.0127-3.52-5.45e-4 -1.01-0.00109-2.03-0.00165-3.07 0.249-2.4 0.249-2.4 2.25-4.4z" fill="#F7357C"/>
<path transform="translate(510 275)" d="m0 0c1.01 5.45e-4 2.02 0.00109 3.06 0.00165 1.73-0.00629 1.73-0.00629 3.5-0.0127 1.28 0.00562 2.55 0.0112 3.86 0.017 1.35-0.00107 2.7-0.00301 4.06-0.00575 3.68-0.00486 7.37 0.00283 11 0.013 3.87 0.00879 7.73 0.00702 11.6 0.00664 6.51 9.38e-4 13 0.00963 19.5 0.0233 7.48 0.0156 15 0.021 22.5 0.0203 8-6.81e-4 16 0.0063 24 0.0154 2.28 0.00211 4.57 0.00284 6.85 0.00324 41.8 0.0143 41.8 0.0143 56 3.23 0.963 0.216 1.93 0.431 2.92 0.653 25.6 6.08 47.5 18.9 66.4 37 1.11 1.05 2.24 2.09 3.37 3.11 18.3 17 29.2 42.2 34.3 66.2 0.245 1.16 0.245 1.16 0.496 2.33 2.42 12.5 2.4 25.3 2.37 38-2.83e-4 1.46-1.22e-4 2.92 4.43e-4 4.38 2.83e-4 3.91-0.00554 7.82-0.0126 11.7-0.00631 4.11-0.00684 8.22-0.00803 12.3-0.00309 7.76-0.0113 15.5-0.0213 23.3-0.0112 8.84-0.0167 17.7-0.0217 26.5-0.0104 18.2-0.028 36.3-0.0503 54.5-0.66-0.33-1.32-0.66-2-1v-4h-2c-1.13-4.71-2.25-9.43-3.36-14.1-0.38-1.6-0.761-3.2-1.14-4.8-0.552-2.31-1.1-4.62-1.65-6.93-0.17-0.708-0.34-1.42-0.515-2.14-0.768-3.26-1.4-6.44-1.86-9.77-0.559-3.77-1.94-6.73-3.48-10.2-0.6-2.3-1.16-4.62-1.69-6.94-2.11-8.67-6.08-16.3-10.3-24.1-0.33 0.99-0.66 1.98-1 3-0.33-0.66-0.66-1.32-1-2-0.743 0.351-1.49 0.701-2.25 1.06-2.94 1-3.95 1.15-6.75-0.0625-3.28-2.62-4.72-6.23-6.44-9.95-0.667-1.41-1.33-2.82-2-4.24-0.346-0.736-0.691-1.47-1.05-2.23-5.81-12.3-11.6-24.5-19.5-35.6-0.8-1.13-0.8-1.13-1.62-2.28-4.03-5.65-8.17-11.2-12.4-16.7-0.48-0.636-0.961-1.27-1.46-1.93-4.54-5.96-8.58-10.6-15.5-13.8-3.31-2.01-5.17-4.95-7.41-8.05-6.09-8.04-14.8-12.5-24.7-14.2-4.52-0.38-9.03-0.511-13.6-0.625-1.27-0.0372-2.54-0.0744-3.85-0.113-8.22-0.223-16.4-0.359-24.7-0.387-1.43-0.00701-1.43-0.00701-2.88-0.0142-0.876 0.00209-1.75 0.00419-2.66 0.00635-1.14 0.00169-1.14 0.00169-2.3 0.00342-2.15 0.132-4.03 0.607-6.11 1.13-2.36-0.34-2.36-0.34-4.75-0.938-0.799-0.195-1.6-0.389-2.42-0.59-0.603-0.156-1.21-0.312-1.83-0.473-0.495 1.49-0.495 1.49-1 3-2.5 1.17-2.5 1.17-5.56 2.19-1.01 0.344-2.02 0.688-3.07 1.04-0.782 0.254-1.56 0.508-2.37 0.77 0.33 0.99 0.66 1.98 1 3-0.804 0.268-1.61 0.536-2.44 0.812-1.27 0.588-1.27 0.588-2.56 1.19-0.495 1.49-0.495 1.49-1 3-2.19 1.43-2.19 1.43-5 2.88-1.49 0.781-1.49 0.781-3.01 1.58-1.48 0.766-1.48 0.766-2.99 1.55-3.02 1.63-6.02 3.3-9 5-1.05 0.577-2.1 1.15-3.19 1.75-3.32 2.66-5.14 5.51-7.38 9.09-1.82 2.74-4.11 4.83-6.43 7.16-0.955 1.49-1.89 2.99-2.81 4.5-2.96 4.53-6.07 7.56-11.2 9.5-2.82 0.365-5.15 0.255-8 0v-2c-1.32-0.33-2.64-0.66-4-1-0.33 0.99-0.66 1.98-1 3-2.29-3.44-2.26-4.73-2.29-8.78-0.0141-1.2-0.0281-2.41-0.0426-3.65-0.00555-1.34-0.0109-2.67-0.0161-4.01-0.0126-1.41-0.026-2.81-0.0402-4.22-0.0359-3.82-0.0592-7.64-0.0798-11.5-0.0231-3.99-0.0557-7.99-0.0869-12-0.0507-6.71-0.0929-13.4-0.131-20.1-0.0437-7.76-0.102-15.5-0.167-23.3-0.0558-6.66-0.104-13.3-0.145-20-0.0248-3.98-0.0523-7.96-0.0869-11.9-0.0321-3.74-0.0544-7.48-0.069-11.2-7e-3 -1.37-0.0175-2.75-0.0316-4.12-0.0186-1.87-0.0237-3.74-0.0281-5.61-0.00662-1.05-0.0132-2.1-0.0201-3.18 0.325-3.4 1.21-4.36 4.62-4.72z" fill="#3463BE"/>
<path transform="translate(590,365)" d="m0 0c1.48 0.14 2.96 0.288 4.44 0.438 0.824 0.0812 1.65 0.162 2.5 0.246 2.07 0.316 2.07 0.316 3.07 1.32 0.0045 1.37-0.0609 2.75-0.156 4.12-0.0529 0.854-0.106 1.71-0.16 2.59-0.12 1.78-0.242 3.57-0.367 5.35-0.0529 0.866-0.106 1.73-0.16 2.62-0.0535 0.779-0.107 1.56-0.162 2.36 0.00513 2.59 0.208 5 0.498 7.57 0.499 4.87 0.651 9.66 0.642 14.6 0.00227 0.865 0.00453 1.73 0.00687 2.62 0.00628 2.87 0.00551 5.74 0.00469 8.61 3e-3 2.07 0.0064 4.14 0.0102 6.21 0.0088 5.6 0.0112 11.2 0.0118 16.8 7.12e-4 3.5 0.00285 7 0.0055 10.5 0.00924 12.2 0.0133 24.4 0.0125 36.6-6.02e-4 11.4 0.00997 22.8 0.0257 34.1 0.0131 9.78 0.0184 19.6 0.0178 29.3-2.55e-4 5.84 0.00259 11.7 0.0132 17.5 0.00968 5.48 0.00976 11 0.00248 16.5-0.00105 2.01 0.00132 4.02 0.00736 6.03 0.00772 2.75 0.00308 5.49-0.00463 8.24 0.00514 0.794 0.0103 1.59 0.0156 2.41-0.0299 4.82-0.734 8.8-2.26 13.4-5.29-0.407-7.46-1.11-11-5-2.63-1.25-2.63-1.25-5-2 0.33 0.99 0.66 1.98 1 3-5.52-0.476-10.8-0.987-16-3-1.12-2-1.12-2-2-4-3.51-1.73-6.56-2.28-10.4-2.5-6.22-0.484-11.5-1.72-16.6-5.5-0.688-2.12-0.688-2.12-1-4-0.66-0.33-1.32-0.66-2-1v-2c1.65-0.33 3.3-0.66 5-1v2c1.32 0.33 2.64 0.66 4 1v2c2.6-1.88 2.6-1.88 5-4-1.65-0.66-3.3-1.32-5-2 1-3 1-3 2-4-0.99-0.66-1.98-1.32-3-2v-4h-4v3c-1.65-0.66-3.3-1.32-5-2v-2h-2v-2c-0.888-0.13-0.888-0.13-1.79-0.262-5.51-0.98-8.63-2.13-12.2-6.74v-2c-0.66 0.33-1.32 0.66-2 1 0.0877 1.58 0.196 3.17 0.312 4.75 0.087 1.32 0.087 1.32 0.176 2.67 0.58 2.92 1.68 4.28 3.51 6.58 0.188 2.75 0.188 2.75 0 5h-2c-1.98-3.47-1.98-3.47-4-7-1.98 0.33-3.96 0.66-6 1-1.14-3.42-1.21-6.19-1.31-9.8-0.0205-0.703-0.041-1.41-0.0621-2.13-0.0665-2.39-0.124-4.77-0.181-7.16-0.0209-0.841-0.0419-1.68-0.0634-2.55-0.571-23.5-0.534-46.9-0.512-70.4 0.0058-6.36 0.00234-12.7-0.00357-19.1-0.00361-4.95-0.00247-9.9 1.28e-4 -14.8 6.64e-4 -2.35-1.41e-4 -4.7-0.00248-7.04-0.00254-3.25 0.00132-6.5 0.0069-9.75-0.00202-0.955-0.00405-1.91-0.00613-2.89 0.0145-4.57 0.198-8.86 1.14-13.4 0.66 0.66 1.32 1.32 2 2 0.33-0.66 0.66-1.32 1-2 1.32 0.33 2.64 0.66 4 1v2c6.13-0.921 11.3-1.71 16-6 1.89-2.74 3.62-5.54 5.34-8.39 1.89-2.98 4.11-5.19 6.66-7.61 0.831-1.17 1.64-2.36 2.44-3.56 4.14-5.92 10.6-8.64 16.9-12 2.28-1.24 4.52-2.52 6.76-3.84 2.94-1.62 2.94-1.62 4.94-1.62 0.0825-0.619 0.165-1.24 0.25-1.88 0.75-2.12 0.75-2.12 2.81-3.38 0.639-0.248 1.28-0.495 1.94-0.75v-3c0.782-0.266 1.56-0.531 2.37-0.805 1.01-0.353 2.02-0.706 3.07-1.07 1.01-0.348 2.02-0.696 3.06-1.05 2.64-0.811 2.64-0.811 3.5-3.07z" fill="#F12C8D"/>
<path transform="translate(837,812)" d="m0 0h3c0.164 0.965 0.164 0.965 0.332 1.95 1.08 6.16 2.35 12.2 3.79 18.3 0.509 2.16 1.01 4.32 1.47 6.49 1.93 8.81 4.49 17.3 7.34 25.9 0.237 0.712 0.475 1.42 0.719 2.16 14.6 43.4 37.6 90.7 80.5 112 3.01 1.46 6.03 2.87 9.12 4.16 0.81 0.347 1.62 0.694 2.45 1.05 2.58 0.715 3.78 0.358 6.3-0.363 1.69 0.964 3.35 1.97 5 3 6.39 2.78 12 3.35 18.9 3.06 1.68-0.0598 3.35-0.111 5.03-0.152 1.09-0.0444 1.09-0.0444 2.21-0.0896 1.83 0.179 1.83 0.179 3.83 2.18 0.66-0.33 1.32-0.66 2-1 2.59 5.92 4.49 11.5 5.41 17.9 0.701 2.53 1.73 3.32 3.59 5.13 7.91 15 1.53 37.7-2.1 53.1-0.689 2.95-1.33 5.89-1.9 8.86 0.99 0.66 1.98 1.32 3 2v2c-0.639-0.186-1.28-0.371-1.94-0.562-0.681-0.144-1.36-0.289-2.06-0.438-0.33 0.33-0.66 0.66-1 1-19.5 2.39-40.2 0.943-59-5-0.685-0.211-1.37-0.423-2.07-0.641-22-6.87-39.9-19-56.9-34.4-0.688-0.615-1.38-1.23-2.09-1.86-17.1-16.2-28.1-39-33.9-61.5-0.199-0.771-0.399-1.54-0.604-2.34-2.68-11.3-2.61-23-2.6-34.6-3e-3 -1.38-0.00641-2.76-0.0102-4.13-0.00873-3.7-0.0112-7.4-0.0118-11.1-7.15e-4 -2.31-0.00286-4.63-0.0055-6.94-0.00921-8.07-0.0133-16.1-0.0125-24.2 6.04e-4 -7.52-0.01-15-0.0257-22.6-0.0131-6.47-0.0184-12.9-0.0178-19.4 2.55e-4 -3.86-0.00261-7.72-0.0132-11.6-0.00964-3.62-0.00979-7.24-0.00248-10.9 0.00155-1.97-0.00682-3.93-0.0154-5.9 0.00419-1.16 0.00839-2.32 0.0127-3.52-5.45e-4 -1.01-0.00109-2.03-0.00165-3.07 0.249-2.4 0.249-2.4 2.25-4.4z" fill="#F5824D"/>
<path transform="translate(686,389)" d="m0 0c4.99 1.28 7.67 3.24 11 7 0.612 0.633 1.22 1.27 1.86 1.92 15.4 16.3 46.1 53.7 46.1 77.1 4.03 0.843 7.01 1.03 11 0h1c0.33-0.66 0.66-1.32 1-2 6.72 9.98 10.4 20.6 13.4 32.1 0.712 3.74 0.712 3.74 2.61 6.88 0.642 3.02 1.24 6.03 1.81 9.06 1.54 7.97 3.34 15.8 5.45 23.7 0.65 2.91 0.892 5.33 0.734 8.29h2c1.9 5.61 2.28 10.5 2.23 16.4 2.92e-4 0.918 5.84e-4 1.84 8.85e-4 2.78-0.00139 3.01-0.0169 6.03-0.0326 9.04-0.00373 2.1-0.00658 4.19-0.00858 6.29-0.00762 5.51-0.0272 11-0.0494 16.5-0.0205 5.62-0.0296 11.2-0.0397 16.9-0.0214 11-0.0555 22-0.0977 33.1h-2c-0.99-3.96-1.98-7.92-3-12v5c-1.52-2.94-2.93-5.87-4-9 0.33-0.66 0.66-1.32 1-2-0.99-0.33-1.98-0.66-3-1 0.33-0.66 0.66-1.32 1-2-0.66-0.33-1.32-0.66-2-1v2h-2v-3c-5.46-0.0975-10.6 0.228-16 1v2c0.99 0.33 1.98 0.66 3 1-0.99 0.33-1.98 0.66-3 1v2c-2.35 1.17-3.95 1.2-6.57 1.32-1.34 0.0628-1.34 0.0628-2.71 0.127-0.937 0.0393-1.87 0.0786-2.84 0.119-0.945 0.0432-1.89 0.0864-2.86 0.131-2.34 0.106-4.67 0.208-7.01 0.307 0.33 0.99 0.66 1.98 1 3-1.32-0.33-2.64-0.66-4-1-0.33 0.66-0.66 1.32-1 2-2.75-0.637-5.31-1.46-7.94-2.5-3-1.15-5.87-2-9.06-2.5v-3c-0.592 0.0116-1.18 0.0232-1.79 0.0352-4.21 0.0481-8.1 0.0249-12.2-1.04-0.33 0.99-0.66 1.98-1 3-1.94-0.375-1.94-0.375-4-1-1.28-2.57-1.14-4.41-1.16-7.29-0.00979-1.13-0.0196-2.25-0.0297-3.41-0.00576-1.24-0.0115-2.49-0.0174-3.77-0.0099-1.31-0.0198-2.62-0.03-3.97-0.0272-3.62-0.0482-7.24-0.068-10.9-0.022-3.84-0.0493-7.68-0.0759-11.5-0.0503-7.4-0.095-14.8-0.138-22.2-0.0346-5.94-0.0722-11.9-0.112-17.8-0.425-64.1-0.425-64.1-0.363-95.1 0.00163-0.954 0.00327-1.91 0.00495-2.89 0.015-8.44 0.0378-16.9 0.0971-25.3 0.0189-2.91 0.0304-5.81 0.0403-8.72 0.00939-1.88 0.0298-3.77 0.0508-5.65 0.0263-8.78-0.841-16.9-4.33-25-0.353-0.838-0.706-1.68-1.07-2.54-0.266-0.606-0.531-1.21-0.805-1.84z" fill="#F12C8D"/>
<path transform="translate(772,631)" d="m0 0v3h2v-2c0.99 0.33 1.98 0.66 3 1-0.33 0.66-0.66 1.32-1 2l2 1c0.625 3.06 0.625 3.06 1 6l1-1c0.66-0.33 1.32-0.66 2-1 2.3 9.41 2.3 9.41 2 14h2c0.33 54.8 0.66 110 1 166h-2c-0.882-3.07-1.16-5.88-1.25-9.06-0.0329-0.962-0.0657-1.92-0.0996-2.91-0.0612-2.02-0.118-4.03-0.172-6.05-0.0342-0.962-0.0683-1.92-0.104-2.91-0.0251-0.875-0.0501-1.75-0.0759-2.65-0.319-2.53-1.03-4.21-2.3-6.41h-2c-1.96-3.67-3.39-6.87-4-11-0.536 0.186-1.07 0.371-1.62 0.562-2.99 0.55-5.4-0.0559-8.38-0.562-0.99 0.33-1.98 0.66-3 1-1.73 0.068-3.46 0.085-5.19 0.0625-0.901-0.00902-1.8-0.018-2.73-0.0273-1.03-0.0174-1.03-0.0174-2.08-0.0352 0.99-1.32 1.98-2.64 3-4-0.847-0.0146-1.69-0.0292-2.57-0.0442-3.16-0.0613-6.33-0.136-9.49-0.218-1.37-0.0331-2.73-0.0612-4.1-0.084-1.97-0.0338-3.94-0.0876-5.91-0.142-1.78-0.0393-1.78-0.0393-3.59-0.0793-3.66-0.474-6.16-1.61-9.34-3.43v-3c-0.701 0.33-1.4 0.66-2.12 1-3.14 1.09-5.58 1.15-8.88 1-0.33-1.65-0.66-3.3-1-5-3.05-1.01-3.05-1.01-6 0-2.62-0.938-2.62-0.938-5-2-0.33 0.99-0.66 1.98-1 3-0.99 0.99-0.99 0.99-2 2-0.925-7.53-1.14-14.9-1.11-22.5-1.46e-4 -1.21-2.92e-4 -2.42-4.43e-4 -3.67 5.73e-4 -3.29 0.00555-6.58 0.0126-9.87 0.00629-3.45 0.00684-6.9 0.00803-10.3 0.0031-6.52 0.0113-13 0.0213-19.5 0.0112-7.42 0.0167-14.8 0.0217-22.3 0.0104-15.3 0.028-30.5 0.0503-45.8 0.33 0.66 0.66 1.32 1 2h4c0.33-0.66 0.66-1.32 1-2 8.73-0.0974 17.3-0.167 26 1v1h-12v2c0.66-0.0619 1.32-0.124 2-0.188 5.35 0.334 10.3 2.65 15 5.19v-5c0.66 0.66 1.32 1.32 2 2 0.99 0.66 1.98 1.32 3 2v-2c-0.66-0.33-1.32-0.66-2-1 2.41-1.2 4.1-1.2 6.79-1.32 1.41-0.0628 1.41-0.0628 2.85-0.127 1.48-0.059 1.48-0.059 2.98-0.119 1.49-0.0648 1.49-0.0648 3.01-0.131 2.46-0.106 4.91-0.208 7.37-0.307v-2c0.66-0.33 1.32-0.66 2-1-0.66-0.33-1.32-0.66-2-1v-2c11.6-3.2 11.6-3.2 16-1z" fill="#F8357B"/>
<path transform="translate(516,565)" d="m0 0h2c0.681 0.928 1.36 1.86 2.06 2.81 3.15 4.02 7.12 4.99 11.9 6.19v2h2v2c1.65 0.66 3.3 1.32 5 2v-3h4c0.155 0.897 0.155 0.897 0.312 1.81 0.776 2.47 1.76 3.51 3.69 5.19l-3 3c1.98 0.66 3.96 1.32 6 2-0.495 1.49-0.495 1.49-1 3-1.65 0.33-3.3 0.66-5 1v-2c-1.32-0.33-2.64-0.66-4-1v-2c-1.65 0.33-3.3 0.66-5 1v2c0.99 0.33 1.98 0.66 3 1v4c3.65 1.61 7.05 2.45 11 3v2c0.99-0.33 1.98-0.66 3-1 6.31 0.672 12.2 2.62 18 5-0.99 0.33-1.98 0.66-3 1v2c4.99 0.728 9.99 1.38 15 2v-2c-0.66-0.33-1.32-0.66-2-1 4.44 0.821 7.82 2.82 11 6 2.32 0.719 4.65 1.39 7 2 0.495-0.99 0.495-0.99 1-2 0.882 29 1.13 57.9 1.07 86.9-0.0105 5.34-0.0149 10.7-0.0198 16-0.0105 10.4-0.0274 20.7-0.0488 31.1-0.66 0.33-1.32 0.66-2 1-0.652 2.02-0.652 2.02-1 4-0.598-0.33-1.2-0.66-1.81-1-2.24-1.21-2.24-1.21-5.19-1-2-3-2-3-2-5-6.75-5.25-13-5.44-21.2-5.08-3.43 0.0712-6.42-0.233-9.77-0.922v-2c-0.557-0.0258-1.11-0.0516-1.69-0.0781-6-0.446-10.1-1.97-15.3-4.92v-4h3c-0.33-0.99-0.66-1.98-1-3-0.66-0.33-1.32-0.66-2-1v-2h2v-3h-2v-2h-2v-2h-2v-2h-2v-2c-1.22 0.103-2.43 0.206-3.69 0.312-3.76 0.0334-4.2-0.219-7.31-2.81-0.66-0.825-1.32-1.65-2-2.5-0.99 0.99-0.99 0.99-2 2-0.835-0.773-0.835-0.773-1.69-1.56-2.25-1.73-2.25-1.73-5.06-1.12-0.743 0.227-1.49 0.454-2.25 0.688v5c-3.06-3.06-2.76-6.83-3.13-11-0.0847-0.931-0.169-1.86-0.257-2.82-0.973-11.9-0.759-23.8-0.593-35.8 0.0262-2.48 0.0515-4.96 0.0758-7.44 0.0659-6.46 0.145-12.9 0.227-19.4 0.0817-6.62 0.151-13.2 0.221-19.9 0.139-12.9 0.291-25.9 0.453-38.8h3v3h2c0.33-0.66 0.66-1.32 1-2h2c3 5.75 3 5.75 3 8h2c-1.04-3.29-2.17-6.37-3.62-9.5-1.38-3.5-1.73-5.78-1.38-9.5l1-1z" fill="#F7357B"/>
<path transform="translate(1029 812)" d="m0 0c0.842 0.00562 1.68 0.0112 2.55 0.017 0.886-0.0019 1.77-0.0038 2.69-0.00575 2.94-0.00371 5.88 0.00701 8.82 0.0182 2.03 0.00119 4.07 0.00165 6.1 0.00139 4.27 0.00157 8.54 0.00986 12.8 0.0233 5.48 0.017 11 0.0208 16.5 0.0201 4.2 2.71e-4 8.41 0.00575 12.6 0.013 2.02 0.00319 4.05 0.00516 6.07 0.00589 2.82 0.00216 5.64 0.0109 8.46 0.0216 0.844-4.53e-4 1.69-9.06e-4 2.56-0.00137 5.76 0.0322 5.76 0.0322 6.88 1.15 0.0961 1.63 0.122 3.27 0.12 4.9 0.00206 1.59 0.00206 1.59 0.00417 3.22-0.00539 1.76-0.00539 1.76-0.0109 3.56 1.46e-4 1.23 2.92e-4 2.46 4.43e-4 3.72-5.79e-4 3.38-0.00561 6.76-0.0126 10.1-0.00623 3.53-0.00684 7.06-0.00803 10.6-0.00311 6.69-0.0113 13.4-0.0213 20.1-0.0112 7.61-0.0167 15.2-0.0217 22.8-0.0105 15.7-0.0281 31.3-0.0503 47-1.61-0.256-3.21-0.531-4.81-0.812-0.893-0.151-1.79-0.302-2.71-0.457-2.71-0.799-3.67-1.62-5.48-3.73-1.32-1.02-2.65-2.02-4-3 0.186-0.619 0.371-1.24 0.562-1.88 0.674-2.17 0.674-2.17-0.562-4.12 0.66-0.33 1.32-0.66 2-1-1.07-0.722-2.14-1.44-3.25-2.19-2.36-1.67-3.82-2.9-5.56-5.25-2.25-2.63-4.01-3.71-7-5.38-4.59-2.6-7.58-5.51-10.8-9.65-0.681-0.762-0.681-0.762-1.38-1.54h-2v-2c-0.928-0.371-0.928-0.371-1.88-0.75-2.12-1.25-2.12-1.25-3-3.12-1.64-3.1-4.21-4.24-7.13-6.12-0.846-0.866-1.69-1.73-2.56-2.62-2.44-2.38-4.22-3.36-7.44-4.38v-2h-3c0.33-0.66 0.66-1.32 1-2-2.69-0.897-4.89-1.28-7.69-1.56-0.808-0.0838-1.62-0.168-2.45-0.254-0.922-0.0909-0.922-0.0909-1.86-0.184v-5c-1.98 0.495-1.98 0.495-4 1-1-3-1-3-1-6-0.99 0.495-0.99 0.495-2 1-0.66-0.33-1.32-0.66-2-1-0.66 2.97-1.32 5.94-2 9h-1c-0.819-3.59-1.13-6.91-1.15-10.6-0.00638-1.09-0.0128-2.19-0.0193-3.32-0.00111-1.17-0.00223-2.34-0.00337-3.55-0.00499-1.81-0.00499-1.81-0.0101-3.66-0.00506-2.55-0.00741-5.1-0.00725-7.65-0.00219-3.92-0.0204-7.83-0.0393-11.8-0.00293-2.48-0.00492-4.95-0.00586-7.43-0.00719-1.18-0.0144-2.35-0.0218-3.57 0.00308-1.08 0.00615-2.17 0.00932-3.29-0.00143-0.958-0.00285-1.92-0.00432-2.9 0.549-5.09 3.95-4.53 8.26-4.55z" fill="#F12C8D"/>
<path transform="translate(1022,948)" d="m0 0c0.0619 0.619 0.124 1.24 0.188 1.88 0.268 0.701 0.536 1.4 0.812 2.12 1.65 0.697 3.32 1.36 5 2 2.41 2.58 3 3.41 3 7 0.99-0.33 1.98-0.66 3-1 3.19 1.44 3.19 1.44 6 3v2h2c0.0619 1.01 0.124 2.02 0.188 3.06 0.541 3.86 2.13 5.97 4.48 9 3.87 5.63 5.68 12.7 7.43 19.2 0.775 1.93 0.775 1.93 3 2.46 0.629 0.0838 1.26 0.168 1.91 0.254 0.402 1.55 0.402 1.55 0.812 3.12 0.699 2.52 1.39 4.22 2.75 6.5 1.89 4.43 1.87 8.53 2.12 13.3 0.387 3.76 1.35 5.91 3.32 9.07v2h2c0.392 1.41 0.763 2.83 1.12 4.25 0.313 1.18 0.313 1.18 0.633 2.39 0.302 2.94-0.0818 3.93-1.76 6.36-16.8 16.6-46 32.7-70.1 33-2.84-0.232-4.51-0.601-6.47-2.72-0.606-3.2 0.513-5.24 1.56-8.31 3.16-13.4 5.47-26.8 4.75-40.6-0.0383-0.738-0.0767-1.48-0.116-2.24-0.323-4.64-0.993-8.84-2.63-13.2-0.99-0.33-1.98-0.66-3-1-0.833-2.65-1.49-5.17-2.06-7.88-1.23-5.84-1.23-5.84-3.94-11.1l-2 1c-0.495-1.49-0.495-1.49-1-3 0.666-0.208 1.33-0.415 2.02-0.629 11.7-3.91 21.5-9.54 28-20.4 2.97-6.8 4.99-13.9 7-21z" fill="#F9366A"/>
<path transform="translate(686,389)" d="m0 0c4.99 1.28 7.67 3.24 11 7 0.612 0.633 1.22 1.27 1.86 1.92 15.4 16.3 46.1 53.7 46.1 77.1 4.03 0.843 7.01 1.03 11 0h1c0.33-0.66 0.66-1.32 1-2 6.72 9.98 10.4 20.6 13.4 32.1 0.712 3.74 0.712 3.74 2.61 6.88 0.642 3.02 1.24 6.03 1.81 9.06 1.54 7.97 3.34 15.8 5.45 23.7 0.65 2.91 0.892 5.33 0.734 8.29h2c2.38 6.41 2.04 12.2 1.62 18.9-0.0851 1.6-0.0851 1.6-0.172 3.23-0.141 2.61-0.292 5.22-0.453 7.83h-6c-0.256-1-0.512-2.01-0.775-3.04-5.71-22.4-11.8-44.4-19.4-66.3-0.367-1.08-0.734-2.15-1.11-3.26-0.501-1.45-0.501-1.45-1.01-2.93-0.73-2.48-0.73-2.48-0.73-5.48h-2c-0.33 1.65-0.66 3.3-1 5-18.7-4.06-18.7-4.06-26.6-7.06-5.38-2.05-10.8-3.1-16.4-3.94v-2c-0.736-0.098-1.47-0.196-2.23-0.297-9.69-1.49-9.69-1.49-13.8-5.7v6h-2c0.00444-1.04 0.00888-2.09 0.0135-3.16 0.0407-9.86 0.0706-19.7 0.0902-29.6 0.0104-5.07 0.0245-10.1 0.0473-15.2 0.0218-4.9 0.0337-9.79 0.0389-14.7 0.00368-1.86 0.0109-3.72 0.0217-5.59 0.122-16.6 0.122-16.6-4.34-32.4-0.353-0.838-0.706-1.68-1.07-2.54-0.266-0.606-0.531-1.21-0.805-1.84z" fill="#B51C7E"/>
<path transform="translate(846,822)" d="m0 0h5c4 6.75 4 6.75 4 9 0.557-0.227 1.11-0.454 1.69-0.688 2.31-0.312 2.31-0.312 4.81 0.5 4.25 3.72 6.16 9 6.76 14.6 0.0387 0.78 0.0773 1.56 0.117 2.36 0.786 11.6 8.25 23.7 14.6 33.2-0.0326 1.96-0.0673 3.91-0.125 5.87 0.204 3.49 1.57 6.03 3.12 9.13 0.33 0.66 0.66 1.32 1 2h4c0.391 0.826 0.391 0.826 0.789 1.67 1.38 2.66 2.96 5.13 4.59 7.64 2.08 3.23 4.09 6.45 5.94 9.81 1.38 2.95 1.38 2.95 3.69 3.88v-2c3.27 0.0228 6.54 0.1 9.81 0.188 1.39 0.0087 1.39 0.0087 2.81 0.0176 1.34 0.0435 1.34 0.0435 2.71 0.0879 0.822 0.0157 1.64 0.0314 2.49 0.0476 2.18 0.659 2.18 0.659 3.94 2.8 1.43 3.32 1.62 5.73 1.64 9.34 0.0219 1.25 0.0438 2.49 0.0664 3.78 0.00902 1.3 0.018 2.59 0.0273 3.93 0.0983 13.9 1.56 24.7 10.5 35.8 3.17 2.92 6.47 5.52 10 8-0.66 0.99-1.32 1.98-2 3-22.9-8.44-42.3-23.6-57-43-0.764-0.976-1.53-1.95-2.32-2.96-24-31.4-40.6-74.1-46.7-113 0.99-0.66 1.98-1.32 3-2 0.33-0.99 0.66-1.98 1-3z" fill="#3463BF"/>
<path transform="translate(330 1135)" d="m0 0c11.7 0.0172 23 1.54 32.2 9.25 10.8 11.4 10.6 25.5 10.3 40.3-0.397 10.1-2.28 19-9.28 26.7-8.62 7.3-16.7 8.35-27.7 8.31-1.03 0.0161-2.06 0.0322-3.13 0.0488-0.993 6.45e-4 -1.99 0.00129-3.01 0.00195-0.898 0.00298-1.8 0.00596-2.72 0.00903-3-0.455-4.23-1.33-6.45-3.37-0.603-1.96-0.603-1.96-0.74-4.26-0.0829-1.34-0.0829-1.34-0.167-2.7-0.182-5.93-0.258-11.9-0.261-17.8-0.00322-1.41-0.00659-2.81-0.0101-4.22-0.00595-2.93-0.00784-5.86-0.00725-8.78 1.02e-4 -3.74-0.0136-7.48-0.0308-11.2-0.0111-2.9-0.0131-5.79-0.0126-8.69-0.00117-1.38-0.00557-2.76-0.0133-4.14-0.00985-1.93-0.00565-3.86-8.95e-4 -5.78-0.00143-1.09-0.00285-2.19-0.00432-3.31 0.717-8.94 2.64-10.3 11-10.3z" fill="#FAFDFE"/>
<path transform="translate(295,1131)" d="m0 0c2.18-0.374 2.18-0.374 4.92-0.372 1.03-0.00623 2.05-0.0125 3.11-0.0189 1.67 0.0138 1.67 0.0138 3.38 0.0279 1.72-7.48e-4 1.72-7.48e-4 3.48-0.00151 2.44 0.00235 4.87 0.0121 7.31 0.0286 3.7 0.0234 7.4 0.0206 11.1 0.0139 2.37 0.00558 4.74 0.0127 7.11 0.0215 1.1-9.11e-4 2.19-0.00182 3.32-0.00276 13.7 0.124 27.1 2.4 37.4 12.2 8.71 10.1 11.2 20.5 11.2 33.5-0.00564 0.922-0.0113 1.84-0.0171 2.79-0.222 12.5-2.91 23-11.6 32.4-11.6 11-23.9 12.8-39.4 12.8-1.18 0.00191-2.36 0.00383-3.57 0.0058-2.47 0.00135-4.95-0.00228-7.42-0.0107-3.8-0.0108-7.6-3.54e-5 -11.4 0.0127-2.41-0.00132-4.82-0.00388-7.23-0.00781-1.71 0.00607-1.71 0.00607-3.45 0.0123-1.05-0.0063-2.1-0.0126-3.18-0.0191-1.39-0.00239-1.39-0.00239-2.8-0.00482-2.22-0.254-2.22-0.254-4.22-2.25 2.06-2.78 3.1-3.02 6.62-3.62 1.11-0.124 2.23-0.247 3.38-0.375 1.93-1.93 1.17-5.59 1.18-8.23 0.00657-0.756 0.0131-1.51 0.0199-2.29 0.0198-2.51 0.0314-5.02 0.0414-7.54 0.00408-0.856 0.00815-1.71 0.0124-2.59 0.0209-4.53 0.0352-9.06 0.0445-13.6 0.0111-4.69 0.0455-9.37 0.0852-14.1 0.0261-3.6 0.0345-7.19 0.0381-10.8 0.00488-1.73 0.0165-3.46 0.035-5.18 0.0243-2.42 0.0235-4.83 0.0165-7.25 0.0128-0.717 0.0256-1.43 0.0388-2.17-0.0333-3.16-0.0805-4.86-2.3-7.21-2.97-1.49-5.99-2.3-9.21-3.11 0.66-0.99 1.32-1.98 2-3zm25 6c-1.1 3.93-1.13 7.74-1.15 11.8-0.00336 0.664-0.00672 1.33-0.0102 2.01-0.00946 2.18-0.0115 4.37-0.0125 6.55-0.00322 1.53-0.00658 3.05-0.0101 4.58-0.00598 3.19-0.00784 6.39-0.00725 9.58 1.02e-4 4.08-0.0136 8.17-0.0308 12.2-0.0111 3.15-0.0131 6.3-0.0126 9.45-0.00118 1.51-0.00558 3.01-0.0133 4.52-0.00984 2.11-0.00691 4.22-8.95e-4 6.32-0.00143 1.2-0.00285 2.39-0.00432 3.63 0.259 3.46 0.863 6.13 2.25 9.31 4.5 3 8.83 2.33 14.1 2.31 1.01 0.0161 2.02 0.0322 3.05 0.0488 9.14 0.00592 16.8-1.68 24-7.51 8.55-8.55 10.1-19 10.2-30.7-0.0793-14-0.154-26.4-10.3-37.2-9.24-7.68-20.5-9.23-32.2-9.31-0.743-0.00564-1.49-0.0113-2.25-0.0171-4.24-0.0688-4.24-0.0688-7.56 2.33z" fill="#292B38"/>
<path transform="translate(916 1157)" d="m0 0c4.52 3.26 6.26 6.93 7.66 12.2 0.311 3.34 0.348 6.68 0.379 10 0.017 0.956 0.034 1.91 0.0515 2.9 0.0529 3.04 0.0933 6.09 0.132 9.13 0.044 3.05 0.0908 6.09 0.143 9.14 0.0318 1.89 0.0587 3.78 0.0802 5.68 0.0651 4.16 0.17 8.07 1.21 12.1 2.31 0.66 4.62 1.32 7 2 0.33 1.65 0.66 3.3 1 5-2.06 0.109-4.12 0.186-6.19 0.25-1.15 0.0464-2.3 0.0928-3.48 0.141-4-0.469-5.5-1.59-8.33-4.39-0.66-0.99-1.32-1.98-2-3-2.44 0.866-4.65 1.75-6.77 3.25-7.24 4.9-14.8 4.82-23.2 3.75-5.62-1.86-9.89-4.9-13-10-2.22-4.75-2.52-9-1-14 3.4-7.39 8.59-11.8 16-15 5.71-1.7 11.1-2.38 17-2.62 1.16-0.058 1.16-0.058 2.35-0.117 1.88-0.093 3.77-0.176 5.65-0.258-0.229-2.73-0.482-5.46-0.75-8.19-0.0619-0.769-0.124-1.54-0.188-2.33-0.508-4.93-1.33-7.92-5.06-11.5-4.83-1.61-8.77-1.31-13.7-0.0625-4.52 2.81-5.65 6.15-7.31 11.1-6.15 0.0977-6.15 0.0977-8 0-1.66-1.66-1.25-3.6-1.31-5.88-0.0374-0.884-0.0748-1.77-0.113-2.68 0.426-2.45 0.426-2.45 2.09-4.13 11-6.2 28.2-8.85 39.7-2.52z" fill="#292B38"/>
<path transform="translate(739,310)" d="m0 0c23.4 19.5 38 45.3 44.2 75 0.164 0.77 0.327 1.54 0.496 2.33 2.42 12.5 2.4 25.3 2.37 38-2.83e-4 1.46-1.22e-4 2.92 4.43e-4 4.38 2.83e-4 3.91-0.00554 7.82-0.0126 11.7-0.00631 4.11-0.00684 8.22-0.00803 12.3-0.00309 7.76-0.0113 15.5-0.0213 23.3-0.0112 8.84-0.0167 17.7-0.0217 26.5-0.0104 18.2-0.028 36.3-0.0503 54.5-0.66-0.33-1.32-0.66-2-1v-4h-2c-1.2-4.37-2.36-8.76-3.47-13.2-0.382-1.48-0.777-2.96-1.18-4.43-2.85-10.3-3.56-19.7-2.91-30.3 0.641-10.8 0.722-21.6 0.74-32.4 0.00193-0.953 0.00386-1.91 0.00585-2.89 0.00877-4.93 0.0121-9.85 0.0115-14.8-1.02e-4 -5.04 0.0137-10.1 0.0308-15.1 0.0112-3.94 0.0131-7.89 0.0126-11.8 0.00116-1.86 0.00549-3.71 0.0133-5.57 0.0605-15.8-0.419-31.2-5.68-46.3-0.344-1-0.688-2.01-1.04-3.04-5.27-14.8-12.6-29-22.5-41.2-0.799-0.999-1.6-2-2.42-3.03-4.12-5.14-4.12-5.14-8.58-9.97-0.375-2.38-0.375-2.38 0-5 2-2.31 2-2.31 4-4z" fill="#00D1D0"/>
<path transform="translate(1208 1155)" d="m0 0c4.7 3.33 7.44 7.51 9.56 12.8 0.465 3.77 0.488 7.51 0.512 11.3 0.018 1.08 0.0359 2.16 0.0544 3.27 0.054 3.43 0.088 6.87 0.121 10.3 0.0332 2.33 0.0677 4.67 0.104 7 0.0848 5.71 0.152 11.4 0.209 17.1 3.3 0.66 6.6 1.32 10 2 0.33 1.65 0.66 3.3 1 5h-36c-0.33-0.66-0.66-1.32-1-2 1.41-2.02 2.51-2.91 4.95-3.37 2.02-0.21 4.04-0.419 6.05-0.629 0.0761-6.74 0.129-13.5 0.165-20.2 0.0151-2.29 0.0355-4.59 0.0615-6.88 0.0364-3.3 0.0534-6.6 0.0667-9.9 0.0155-1.02 0.031-2.05 0.0469-3.1 0.00122-5.19-0.0692-8.61-3.34-12.9v-2c-10.4-0.768-19 3.61-27 10-1.14 2.29-1.12 3.54-1.11 6.08 1.13e-4 1.26 1.13e-4 1.26 2.29e-4 2.55 0.00516 0.908 0.0103 1.82 0.0156 2.75 0.00212 1.39 0.00212 1.39 0.00429 2.82 0.00561 2.98 0.0182 5.95 0.0309 8.93 0.00501 2.01 0.00958 4.03 0.0137 6.04 0.011 4.94 0.0283 9.89 0.0488 14.8 0.699 0.121 1.4 0.242 2.12 0.367 0.91 0.168 1.82 0.335 2.76 0.508 0.905 0.162 1.81 0.325 2.74 0.492 2.38 0.633 2.38 0.633 4.38 2.63v3h-37c-0.33-0.66-0.66-1.32-1-2 1.12-1.5 1.12-1.5 3-3 3.06-0.125 3.06-0.125 6 0 0.99-0.495 0.99-0.495 2-1 0.0759-7.64 0.129-15.3 0.165-22.9 0.0151-2.6 0.0356-5.2 0.0615-7.8 0.0363-3.73 0.0534-7.46 0.0667-11.2 0.0155-1.17 0.031-2.33 0.0469-3.53 2.27e-4 -1.08 4.53e-4 -2.16 6.87e-4 -3.28 0.00666-0.953 0.0133-1.91 0.0202-2.89-0.174-2.44-0.174-2.44-1.65-4.17-2.65-1.92-5.57-2.47-8.71-3.24 0-3 0-3 1-4 1.63-0.087 3.27-0.107 4.91-0.0977 0.989 0.00322 1.98 0.00645 3 0.00977 1.04 0.00838 2.08 0.0168 3.15 0.0254 1.57 0.00677 1.57 0.00677 3.17 0.0137 2.59 0.0118 5.18 0.0283 7.77 0.0488 0.99 2.97 1.98 5.94 3 9 3.1-1.55 5.94-3.17 8.88-5 8.17-4.87 16.3-7.02 25.6-3.81z" fill="#292B38"/>
<path transform="translate(456 1157)" d="m0 0c6.78 4.79 10.1 10.4 12 18.4 0.495 5.94 0.495 5.94 1 12-14.5 0.33-29 0.66-44 1 0.767 12.9 0.767 12.9 6.76 24 7.84 6.35 15.2 6.28 24.9 5.41 3.8-0.405 7.58-0.83 11.4-1.36 0.495 2.47 0.495 2.47 1 5-10.1 5.51-24.1 5.66-35.2 3.32-9.62-3.62-17.2-10.3-21.5-19.6-4-10.1-3.78-21.3 0.492-31.3 4.38-8.33 11.1-15.5 20.1-18.9 7.67-1.67 16.2-1.59 23.2 2.14z" fill="#292B38"/>
<path transform="translate(534 1156)" d="m0 0c6.11 3.24 10.5 8.29 12.9 14.8 1.12 4.75 1.12 4.75 2.12 16.8-14.5 0.33-29 0.66-44 1 0.781 12.9 0.781 12.9 6.73 24 6.71 5.5 13.4 6.32 21.8 5.73 2.15-0.212 4.29-0.44 6.44-0.688 1.29-0.147 1.29-0.147 2.61-0.297 1.8-0.217 3.6-0.457 5.39-0.703 0.495 2.47 0.495 2.47 1 5-7.43 3.35-13.6 4.2-21.8 4.25-0.856 0.0206-1.71 0.0412-2.59 0.0625-8.05 0.0488-15.1-1.48-21.5-6.69-0.708-0.565-1.42-1.13-2.14-1.71-7.27-6.81-11.2-15.3-11.6-25.2-0.139-11.6 3.01-21.3 11.3-29.7 9.56-8.07 21.3-11 33.3-6.48z" fill="#292B38"/>
<path transform="translate(834 1156)" d="m0 0c6.51 3.78 10.2 9.75 13 16.6 0.506 3.2 0.619 6.06 0.598 9.29-0.00508 0.989-0.0102 1.98-0.0154 3-0.00653 0.753-0.0131 1.51-0.0198 2.28-1.27 0.0251-2.53 0.0501-3.84 0.0759-4.68 0.0939-9.37 0.194-14 0.296-2.03 0.0434-4.06 0.0851-6.09 0.125-2.91 0.0575-5.82 0.121-8.73 0.186-1.37 0.0251-1.37 0.0251-2.77 0.0506-4.08-0.311-4.08-0.311-7.52 1.27-0.624 7.33 1.37 13.8 4.69 20.3 4.73 5.49 9.18 7.87 16.4 8.62 6.2 0.283 12.1-0.488 18.2-1.56 1.34-0.186 1.34-0.186 2.7-0.375 1 1 1 1 1.06 3.56-0.0206 0.804-0.0412 1.61-0.0625 2.44-6.98 2.69-13.7 3.33-21.1 3.38-1.25 0.0203-1.25 0.0203-2.53 0.041-12-0.0853-19.8-4.88-28.2-13.2-6.18-9-8.09-18.8-6.69-29.6 1.77-8.24 5.65-16.9 12.4-22.2 1.35-0.853 2.73-1.67 4.12-2.44 0.665-0.409 1.33-0.817 2.02-1.24 8.05-4.34 18.1-4.47 26.4-0.887z" fill="#292B38"/>
<path transform="translate(695,1132)" d="m0 0c1 1 1 1 1.1 4.82-0.00668 1.58-0.0186 3.16-0.0352 4.75-0.00451 0.806-0.00902 1.61-0.0137 2.44-0.0118 2-0.0298 4-0.0488 5.99h-7c-0.242-0.675-0.485-1.35-0.734-2.05-2.38-6.85-2.38-6.85-7.27-12-7.95-3.31-17.8-3.27-25.8-0.168-8.47 4.58-14.3 11.6-17.3 20.6-3.94 13.2-4.85 27.4 0.188 40.5 0.278 0.726 0.557 1.45 0.844 2.2 4.07 9.2 11.1 14 20.2 17.8 11.6 3.86 27 1.66 38-3 1 1 1 1 1.06 3.56-0.0206 0.804-0.0412 1.61-0.0625 2.44-1.33 0.634-2.66 1.26-4 1.88-0.743 0.348-1.49 0.696-2.25 1.05-7.43 2.89-14.2 3.41-22.1 3.38-0.969 0.0161-1.94 0.0322-2.94 0.0488-13.9 0.00929-26.7-4.64-36.8-14.4-10.3-12.5-12.4-27.4-11-43 1.45-10.5 5.73-21.1 14-28 0.659-0.563 1.32-1.13 2-1.71 17.4-14.3 39.2-12.5 60-7.29z" fill="#292B38"/>
<path transform="translate(1118 1159)" d="m0 0c7.19 5.65 11.5 14.4 12.7 23.3 1.11 12.4 0.636 23.5-7.47 33.6-8.1 7.77-17 9.96-28 10-10.2-0.473-18.9-4.24-25.9-11.9-6.58-9.97-7.9-19.3-7.06-31.1 2.02-9.2 6.57-17.9 14.4-23.4 1.52-0.908 3.06-1.79 4.62-2.62 0.603-0.34 1.21-0.681 1.83-1.03 10.5-4.95 25.2-2.93 34.9 3.16zm-34 5.12c-7.54 11.8-9.75 24.5-7.06 38.3 2.21 7.31 5.39 12.6 11.6 17.1 4.99 2.48 10.3 2.07 15.7 1.35 5.59-2.5 8.93-8.41 11.2-13.9 3.48-13.4 2.82-27.6-3.69-39.9-2.67-4.04-6.17-7.1-10.5-9.27-7.04-0.704-12.3 1.29-17.2 6.25z" fill="#292B38"/>
<path transform="translate(846,822)" d="m0 0h5c2.25 4.14 3.56 7.82 4.44 12.4 4.2 20.8 11.1 40.4 20.2 59.6 0.984 2.12 1.93 4.25 2.84 6.4 9.94 23.1 25.3 49.4 46.6 63.6 1.41 0.197 2.83 0.361 4.25 0.5 3.16 0.637 4.44 1.14 6.58 3.61 1.13 1.75 2.24 3.5 3.33 5.27 2.89 4.12 6.72 6.8 10.8 9.62-0.66 0.99-1.32 1.98-2 3-22.9-8.44-42.3-23.6-57-43-0.764-0.976-1.53-1.95-2.32-2.96-24-31.4-40.6-74.1-46.7-113 0.99-0.66 1.98-1.32 3-2 0.33-0.99 0.66-1.98 1-3z" fill="#292B39"/>
<path transform="translate(1293,1157)" d="m0 0c1.53 3.07 1.1 6.27 1.06 9.62-0.00451 0.706-0.00902 1.41-0.0137 2.14-0.0118 1.74-0.0297 3.49-0.0488 5.23-5.75 0.125-5.75 0.125-8-1-0.273-1.93-0.273-1.93-0.375-4.31-0.294-3.36-0.434-4.44-2.56-7.19-4.23-3.07-7.96-3.08-13.1-2.5-3.53 1.5-5.35 2.69-7.07 6.16-1.82 4.86-1.82 4.86-0.934 9.84 5.81 5.5 13.8 8.19 21.2 11 6.87 2.72 12.7 5.9 15.8 13 0.919 5.58 1.29 11.4-1.25 16.6-5 6.16-12 9.35-19.7 10.4-2.73-0.0112-5.4-0.0824-8.12-0.25-0.75-0.0459-1.5-0.0918-2.27-0.139-6.59-0.48-13.7-1.07-19.4-4.77-1.93-2.88-1.59-5.49-1.54-8.9 0.00387-1.25 0.00773-2.5 0.0117-3.79 0.301-3.15 0.301-3.15 2.3-5.15 2.56-0.188 2.56-0.188 5 0 1.66 1.66 1.32 3.97 1.56 6.25 0.738 4.06 1.33 6.44 4.75 8.88 5.52 2.75 11.6 3.3 17.7 2.88 3.3-1.2 5.4-2.79 7-6 0.313-2.23 0.313-2.23 0.375-4.75 0.049-0.84 0.098-1.68 0.148-2.55-0.747-3.86-2.57-6.24-5.52-8.7-2.98-1.64-6.07-2.82-9.25-4-16.9-6.73-16.9-6.73-21.3-13.4-2.03-5.11-2.4-8.79-0.66-13.9 3.1-6.58 7.77-9.64 14.2-12.7 8.9-2.97 21.5-1.72 30 2z" fill="#292B38"/>
<path transform="translate(590,365)" d="m0 0c1.48 0.14 2.96 0.288 4.44 0.438 0.824 0.0812 1.65 0.162 2.5 0.246 2.07 0.316 2.07 0.316 3.07 1.32 0.0166 1.42-0.0367 2.84-0.121 4.25-0.0483 0.854-0.0967 1.71-0.146 2.59-0.0561 0.898-0.112 1.8-0.17 2.72-0.0522 0.902-0.104 1.8-0.158 2.73-0.13 2.24-0.265 4.47-0.404 6.71-1.06 0.0748-2.13 0.15-3.23 0.227-14.7 1.25-26 5.74-37.8 14.8-2.16 1.65-4.17 3.06-6.56 4.38-5.91 3.89-8.83 9.16-11.4 15.6-1.19 2.55-2.92 4.05-4.93 5.99-1.05 2.03-1.98 4.09-2.88 6.2-1.4 2.24-2.78 2.68-5.12 3.8-1.02 1.99-2.02 3.99-3 6-3.16 3-5.99 3.59-10.2 4.19-1.08 0.159-2.16 0.317-3.27 0.48-1.23 0.164-1.23 0.164-2.48 0.332-1.8-3.59-1.43-7.79-1.62-11.8-0.0516-0.895-0.103-1.79-0.156-2.71-0.235-4.68-0.242-8.93 0.781-13.5 0.66 0.66 1.32 1.32 2 2 0.33-0.66 0.66-1.32 1-2 1.32 0.33 2.64 0.66 4 1v2c6.13-0.921 11.3-1.71 16-6 1.89-2.74 3.62-5.54 5.34-8.39 1.89-2.98 4.11-5.19 6.66-7.61 0.831-1.17 1.64-2.36 2.44-3.56 4.14-5.92 10.6-8.64 16.9-12 2.28-1.24 4.52-2.52 6.76-3.84 2.94-1.62 2.94-1.62 4.94-1.62 0.0825-0.619 0.165-1.24 0.25-1.88 0.75-2.12 0.75-2.12 2.81-3.38 0.639-0.248 1.28-0.495 1.94-0.75v-3c0.782-0.266 1.56-0.531 2.37-0.805 1.01-0.353 2.02-0.706 3.07-1.07 1.01-0.348 2.02-0.696 3.06-1.05 2.64-0.811 2.64-0.811 3.5-3.07z" fill="#B41C7D"/>
<path transform="translate(769,1154)" d="m0 0c1 1 1 1 1.11 2.77-0.00524 0.749-0.0105 1.5-0.0159 2.27-0.00322 0.809-0.00645 1.62-0.00977 2.45-0.0126 1.28-0.0126 1.28-0.0254 2.58-0.00451 0.854-0.00902 1.71-0.0137 2.59-0.0118 2.12-0.0298 4.23-0.0488 6.35h-7c-0.99-2.64-1.98-5.28-3-8-5.51 1.14-9.59 2.31-14 6-2.86 4.6-3.43 8.51-3.36 13.8-4.99e-4 0.732-9.97e-4 1.46-0.00151 2.22 0.00233 1.54 0.012 3.08 0.0286 4.62 0.0236 2.34 0.0205 4.69 0.0139 7.03 0.00558 1.5 0.0127 3.01 0.0215 4.51-9.11e-4 0.694-0.00182 1.39-0.00276 2.1 0.0934 6.88 0.0934 6.88 3.3 12.7 1.51 0.391 3.03 0.74 4.56 1.06 0.826 0.177 1.65 0.353 2.5 0.535 0.638 0.133 1.28 0.266 1.93 0.402 0.33 1.32 0.66 2.64 1 4-5.23 0.0494-10.5 0.0857-15.7 0.11-1.78 0.0101-3.56 0.0237-5.34 0.041-2.56 0.0242-5.11 0.0356-7.67 0.0444-0.799 0.0103-1.6 0.0206-2.42 0.0313-1.96 3.99e-4 -3.91-0.104-5.87-0.227-0.66-0.66-1.32-1.32-2-2 3.38-2.97 6.7-3.85 11-5 0.0759-7.49 0.129-15 0.165-22.5 0.0151-2.55 0.0356-5.1 0.0615-7.65 0.0363-3.66 0.0534-7.32 0.0667-11 0.0155-1.14 0.031-2.29 0.0469-3.47 2.27e-4 -1.06 4.53e-4 -2.12 6.87e-4 -3.21 0.00666-0.935 0.0133-1.87 0.0202-2.83-0.178-2.41-0.178-2.41-1.65-4.12-2.64-1.93-5.56-2.48-8.71-3.25 0-3 0-3 1-4 1.62-0.0992 3.25-0.131 4.88-0.133 0.985-0.00129 1.97-0.00258 2.98-0.00391 1.04 0.00387 2.07 0.00773 3.14 0.0117 1.55-0.0058 1.55-0.0058 3.14-0.0117 0.985 0.00129 1.97 0.00258 2.98 0.00391 0.91 0.00113 1.82 0.00226 2.76 0.00342 2.12 0.129 2.12 0.129 3.12 1.13 0.232 1.51 0.412 3.04 0.562 4.56 0.126 1.24 0.126 1.24 0.254 2.5 0.0606 0.638 0.121 1.28 0.184 1.93 3.2-1.8 6.1-3.82 9-6.06 5.8-4.36 9.81-5.3 17-4.94z" fill="#292B38"/>
<path transform="translate(972,1141)" d="m0 0c1.81 1.81 1.38 4.61 1.56 7.06 0.126 1.66 0.126 1.66 0.254 3.35 0.0606 0.855 0.121 1.71 0.184 2.59 1.82 0.0909 1.82 0.0909 3.68 0.184 1.58 0.0844 3.17 0.169 4.75 0.254 1.2 0.059 1.2 0.059 2.43 0.119 6.02 0.33 6.02 0.33 7.13 1.44 0.0406 1.67 0.0427 3.33 0 5-1.82 0.0909-1.82 0.0909-3.68 0.184-1.58 0.0844-3.17 0.169-4.75 0.254-1.2 0.059-1.2 0.059-2.43 0.119-3.88-0.151-3.88-0.151-7.13 1.44-0.109 1.44-0.149 2.88-0.161 4.32-0.00961 0.918-0.0192 1.84-0.0291 2.78-0.00637 1.5-0.00637 1.5-0.0129 3.03-0.00855 1.54-0.00855 1.54-0.0173 3.11-0.00947 2.18-0.016 4.35-0.0198 6.53-0.00966 3.32-0.0407 6.64-0.0723 9.96-0.00653 2.11-0.0118 4.23-0.0156 6.34-0.0123 0.989-0.0247 1.98-0.0374 3 0.0184 5.75 0.511 9.9 3.37 14.9 3.31 2.21 4.34 2.22 8.19 2.12 0.901-0.018 1.8-0.0361 2.73-0.0547 0.687-0.0232 1.37-0.0464 2.08-0.0703 0.382 1.66 0.714 3.32 1 5-2.32 2.32-8.12 1.43-11.3 1.46-6.57-0.129-11-1.64-15.7-6.46-3.31-4.35-4.11-8.38-4.19-13.8-0.0167-0.937-0.0334-1.87-0.0507-2.84-0.0136-1-0.0272-2.01-0.0411-3.04-0.0184-1.04-0.0368-2.07-0.0558-3.14-0.0787-4.43-0.147-8.86-0.215-13.3-0.0516-3.23-0.109-6.47-0.167-9.7-0.0136-1.01-0.0272-2.02-0.0411-3.06-0.0251-1.39-0.0251-1.39-0.0507-2.81-0.0125-0.821-0.0251-1.64-0.038-2.49 0.0516-1.89 0.0516-1.89-1.15-2.88-1.35-0.231-2.7-0.412-4.06-0.562-1.3-0.144-2.6-0.289-3.94-0.438-0.625-1.88-0.625-1.88-1-4 2.4-2.4 3.33-2.34 6.62-2.62 0.817-0.0748 1.63-0.15 2.48-0.227 0.626-0.049 1.25-0.098 1.9-0.148-0.0464-0.615-0.0928-1.23-0.141-1.86-0.297-6.65-0.297-6.65 1.95-9.14 3.56-1.63 6.3-2.2 10.2-2z" fill="#292B38"/>
<path transform="translate(677,375)" d="m0 0c0.33 0.66 0.66 1.32 1 2 1.11 0.227 2.23 0.454 3.38 0.688 10.6 2.48 18.6 10.6 26.2 17.9 1.3 1.25 2.62 2.48 3.94 3.7 16.8 16 28.9 36.6 39.7 56.9 0.565 1.05 1.13 2.1 1.71 3.19 2.94 5.66 4.83 10.2 5.1 16.6-0.99 0.495-0.99 0.495-2 1v-2c-0.743 0.351-1.49 0.701-2.25 1.06-2.94 1-3.95 1.15-6.75-0.0625-3.28-2.62-4.72-6.23-6.44-9.95-0.667-1.41-1.33-2.82-2-4.24-0.346-0.736-0.691-1.47-1.05-2.23-5.81-12.3-11.6-24.5-19.5-35.6-0.8-1.13-0.8-1.13-1.62-2.28-4.03-5.65-8.17-11.2-12.4-16.7-0.48-0.636-0.961-1.27-1.46-1.93-4.53-5.96-8.56-10.6-15.4-13.8-4.97-3.01-7.95-8.53-11.1-13.3 0.33-0.33 0.66-0.66 1-1z" fill="#292B38"/>
<path transform="translate(589,366)" d="m0 0v2c-3.63 1.32-7.26 2.64-11 4 0.495 1.49 0.495 1.49 1 3-0.804 0.268-1.61 0.536-2.44 0.812-0.846 0.392-1.69 0.784-2.56 1.19-0.33 0.99-0.66 1.98-1 3-2.19 1.43-2.19 1.43-5 2.88-0.994 0.521-1.99 1.04-3.01 1.58-0.986 0.51-1.97 1.02-2.99 1.55-3.02 1.63-6.02 3.3-9 5-1.05 0.577-2.1 1.15-3.19 1.75-3.32 2.66-5.14 5.51-7.38 9.09-1.82 2.74-4.11 4.83-6.43 7.16-0.955 1.49-1.89 2.99-2.81 4.5-2.96 4.53-6.07 7.56-11.2 9.5-2.82 0.365-5.15 0.255-8 0v-2c-0.99-0.33-1.98-0.66-3-1v-3l3-3c0.434-0.895 0.869-1.79 1.32-2.71 10.3-20.1 29.7-34 50.7-41.3 0.985-0.347 1.97-0.694 2.98-1.05 6.46-2.03 13.2-3.32 20-2.95z" fill="#292A38"/>
<path transform="translate(1010,1155)" d="m0 0c3.65-0.0289 7.29-0.0468 10.9-0.0625 1.56-0.0126 1.56-0.0126 3.15-0.0254 0.989-0.00322 1.98-0.00645 3-0.00977 1.37-0.00786 1.37-0.00786 2.78-0.0159 2.13 0.114 2.13 0.114 3.13 1.11 0.124 1.9 0.178 3.81 0.205 5.71 0.0199 1.22 0.0399 2.44 0.0604 3.7 0.017 1.34 0.0339 2.69 0.0506 4.03 0.0206 1.37 0.0416 2.73 0.063 4.1 0.0553 3.6 0.105 7.2 0.153 10.8 0.0502 3.67 0.106 7.35 0.161 11 0.108 7.21 0.209 14.4 0.307 21.6 3.34 1.38 6.43 2.39 10 3 0.33 1.32 0.66 2.64 1 4h-36c-0.33-0.66-0.66-1.32-1-2 1.12-1.5 1.12-1.5 3-3 2-0.0408 4-0.0425 6 0 2.22-1.8 2.22-1.8 2.24-4.29-0.00444-0.955-0.00888-1.91-0.0135-2.89-1.51e-4 -1.08-3.02e-4 -2.16-4.58e-4 -3.28-0.0103-1.17-0.0206-2.34-0.0313-3.55-0.00424-1.79-0.00424-1.79-0.00858-3.62-0.0112-3.83-0.0363-7.66-0.0617-11.5-0.01-2.59-0.0192-5.18-0.0273-7.78-0.0221-6.37-0.0556-12.7-0.0977-19.1-0.626-0.205-1.25-0.41-1.9-0.621-0.817-0.269-1.63-0.539-2.48-0.816-0.812-0.267-1.62-0.534-2.46-0.809-2.16-0.754-2.16-0.754-4.16-1.75 0.66-1.32 1.32-2.64 2-4z" fill="#292B38"/>
<path transform="translate(905 1188)" d="m0 0c0.982-0.00258 1.96-0.00516 2.98-0.00781 2.4 0.133 2.4 0.133 3.4 1.13 0.336 4.12 0.325 8.25 0.375 12.4 0.0374 1.16 0.0748 2.33 0.113 3.52 0.0116 1.11 0.0232 2.23 0.0352 3.38 0.0198 1.03 0.0396 2.05 0.0601 3.11-0.583 2.62-0.583 2.62-2.96 4.44-5.14 2.31-10.4 2.63-15.9 1.49-3.94-1.92-6.8-3.81-9.06-7.62-1.12-4.82-0.253-8.43 1.94-12.8 5.12-6.04 11.2-9.02 19.1-9z" fill="#FAFDFE"/>
<path transform="translate(526,1158)" d="m0 0c4.82 2.78 6.93 6.59 8.57 11.8 0.525 2.68 0.521 5.19 0.488 7.92-0.00902 0.985-0.018 1.97-0.0273 2.98-0.0116 0.748-0.0232 1.5-0.0352 2.27-4.11 0.0247-8.22 0.0428-12.3 0.0549-1.4 0.00504-2.8 0.0119-4.2 0.0205-2.01 0.0121-4.02 0.0173-6.02 0.0222-1.21 0.00524-2.42 0.0105-3.67 0.0159-2.78-0.114-2.78-0.114-3.78-1.11-0.071-7.28 1.32-14.2 6.53-19.6 4.68-4.01 8.32-5.27 14.5-4.43z" fill="#FAFDFE"/>
<path transform="translate(446,1158)" d="m0 0c4.79 2.83 6.93 6.58 8.57 11.8 0.525 2.68 0.521 5.19 0.488 7.92-0.00902 0.985-0.018 1.97-0.0273 2.98-0.0116 0.748-0.0232 1.5-0.0352 2.27-4.11 0.0247-8.22 0.0428-12.3 0.0549-1.4 0.00504-2.8 0.0119-4.2 0.0205-2.01 0.0121-4.02 0.0173-6.02 0.0222-1.21 0.00524-2.42 0.0105-3.67 0.0159-2.78-0.114-2.78-0.114-3.78-1.11-0.0712-7.3 1.35-14.2 6.49-19.6 4.67-4.06 8.4-4.96 14.5-4.43z" fill="#FAFDFE"/>
<path transform="translate(828 1159)" d="m0 0c3.65 2.94 5.39 6.26 6.25 10.8 0.0679 2.25 0.085 4.5 0.0625 6.75-0.00902 1.17-0.018 2.34-0.0273 3.55-0.0116 0.892-0.0232 1.78-0.0352 2.7-3.97 0.0247-7.94 0.0428-11.9 0.0549-1.35 0.00504-2.7 0.0119-4.05 0.0205-1.94 0.0121-3.88 0.0173-5.82 0.0222-1.75 0.00786-1.75 0.00786-3.54 0.0159-2.68-0.114-2.68-0.114-3.68-1.11-0.674-6.34 1.06-11.4 4-17 5.16-6.2 10.8-9.26 18.8-5.81z" fill="#FAFDFE"/>
<path transform="translate(844 797)" d="m0 0c1.21 0.0309 1.21 0.0309 2.44 0.0625 2.21 3.65 2.56 7.18 3.06 11.4 0.553 4.56 1.15 9.1 1.94 13.6-0.804 0.124-1.61 0.247-2.44 0.375-0.846 0.206-1.69 0.413-2.56 0.625-0.33 0.66-0.66 1.32-1 2 0.66 0.33 1.32 0.66 2 1-1.65-0.33-3.3-0.66-5-1-1.76-4.5-2.19-8.18-2-13h-2c-1.1-5.82-1.3-8.8 2-14 1-1 1-1 3.56-1.06z" fill="#3462BE"/>
<path transform="translate(1024 1131)" d="m0 0c0.896 0.0142 1.79 0.0284 2.71 0.043 1.35 0.00967 1.35 0.00967 2.72 0.0195 2.21 0.168 2.21 0.168 3.21 1.17 0.0723 1.85 0.0838 3.71 0.0625 5.56-0.00902 1.01-0.018 2.02-0.0273 3.07-0.0116 0.782-0.0232 1.56-0.0352 2.37-1.98 0.0269-3.96 0.0463-5.94 0.0625-1.1 0.0116-2.2 0.0232-3.34 0.0352-2.72-0.0977-2.72-0.0977-3.72-1.1-0.168-2-0.168-2-0.188-4.44-0.0142-0.803-0.0284-1.61-0.043-2.43 0.346-3.19 1.43-4.05 4.58-4.36z" fill="#292B38"/>
<path transform="translate(557,594)" d="m0 0c4.61 0.72 8.67 2.31 13 4 0.33-0.66 0.66-1.32 1-2 0.33 0.99 0.66 1.98 1 3-3 2-3 2-5.81 1.88-3.7-1.01-6.18-2.51-9.19-4.88v-2z" fill="#F8367C"/>
<path transform="translate(511,558)" d="m0 0c0.66 0.33 1.32 0.66 2 1 1.11 4.67 1.34 9.37 0 14h-3c-0.185-10.6-0.185-10.6 1-15z" fill="#F8367C"/>
<path transform="translate(743,1157)" d="m0 0c0.66 1.32 1.32 2.64 2 4 0.99-0.66 1.98-1.32 3-2-0.33 1.65-0.66 3.3-1 5-1.32 0.33-2.64 0.66-4 1-0.381-2.33-0.713-4.66-1-7 0.33-0.33 0.66-0.66 1-1z" fill="#FBFDFD"/>
<path transform="translate(592,605)" d="m0 0 4 1v4h2c-0.33 1.32-0.66 2.64-1 4-2-3-2-3-2-5h-4c0.33-1.32 0.66-2.64 1-4z" fill="#F8367C"/>
</svg>
