<svg width="137" height="241" viewBox="0 0 137 241" fill="none" xmlns="http://www.w3.org/2000/svg">
<circle cx="133.503" cy="2.6549" r="2.6549" transform="rotate(90 133.503 2.6549)" fill="white" fill-opacity="0.25"/>
<circle cx="133.503" cy="28.8246" r="2.6549" transform="rotate(90 133.503 28.8246)" fill="white" fill-opacity="0.25"/>
<circle cx="133.503" cy="54.9944" r="2.6549" transform="rotate(90 133.503 54.9944)" fill="white" fill-opacity="0.25"/>
<circle cx="133.503" cy="81.1641" r="2.6549" transform="rotate(90 133.503 81.1641)" fill="white" fill-opacity="0.25"/>
<circle cx="133.503" cy="107.334" r="2.6549" transform="rotate(90 133.503 107.334)" fill="white" fill-opacity="0.25"/>
<circle cx="133.503" cy="133.503" r="2.6549" transform="rotate(90 133.503 133.503)" fill="white" fill-opacity="0.25"/>
<circle cx="133.503" cy="159.673" r="2.6549" transform="rotate(90 133.503 159.673)" fill="white" fill-opacity="0.25"/>
<circle cx="133.503" cy="185.843" r="2.6549" transform="rotate(90 133.503 185.843)" fill="white" fill-opacity="0.25"/>
<circle cx="133.503" cy="212.012" r="2.6549" transform="rotate(90 133.503 212.012)" fill="white" fill-opacity="0.25"/>
<circle cx="133.503" cy="238.182" r="2.6549" transform="rotate(90 133.503 238.182)" fill="white" fill-opacity="0.25"/>
<circle cx="107.334" cy="2.6549" r="2.6549" transform="rotate(90 107.334 2.6549)" fill="white" fill-opacity="0.25"/>
<circle cx="107.334" cy="28.8246" r="2.6549" transform="rotate(90 107.334 28.8246)" fill="white" fill-opacity="0.25"/>
<circle cx="107.334" cy="54.9944" r="2.6549" transform="rotate(90 107.334 54.9944)" fill="white" fill-opacity="0.25"/>
<circle cx="107.334" cy="81.1641" r="2.6549" transform="rotate(90 107.334 81.1641)" fill="white" fill-opacity="0.25"/>
<circle cx="107.334" cy="107.334" r="2.6549" transform="rotate(90 107.334 107.334)" fill="white" fill-opacity="0.25"/>
<circle cx="107.334" cy="133.503" r="2.6549" transform="rotate(90 107.334 133.503)" fill="white" fill-opacity="0.25"/>
<circle cx="107.334" cy="159.673" r="2.6549" transform="rotate(90 107.334 159.673)" fill="white" fill-opacity="0.25"/>
<circle cx="107.334" cy="185.843" r="2.6549" transform="rotate(90 107.334 185.843)" fill="white" fill-opacity="0.25"/>
<circle cx="107.334" cy="212.012" r="2.6549" transform="rotate(90 107.334 212.012)" fill="white" fill-opacity="0.25"/>
<circle cx="107.334" cy="238.182" r="2.6549" transform="rotate(90 107.334 238.182)" fill="white" fill-opacity="0.25"/>
<circle cx="81.1639" cy="2.6549" r="2.6549" transform="rotate(90 81.1639 2.6549)" fill="white" fill-opacity="0.25"/>
<circle cx="81.1639" cy="28.8246" r="2.6549" transform="rotate(90 81.1639 28.8246)" fill="white" fill-opacity="0.25"/>
<circle cx="81.1639" cy="54.9944" r="2.6549" transform="rotate(90 81.1639 54.9944)" fill="white" fill-opacity="0.25"/>
<circle cx="81.1639" cy="81.1641" r="2.6549" transform="rotate(90 81.1639 81.1641)" fill="white" fill-opacity="0.25"/>
<circle cx="81.1639" cy="107.334" r="2.6549" transform="rotate(90 81.1639 107.334)" fill="white" fill-opacity="0.25"/>
<circle cx="81.1639" cy="133.503" r="2.6549" transform="rotate(90 81.1639 133.503)" fill="white" fill-opacity="0.25"/>
<circle cx="81.1639" cy="159.673" r="2.6549" transform="rotate(90 81.1639 159.673)" fill="white" fill-opacity="0.25"/>
<circle cx="81.1639" cy="185.843" r="2.6549" transform="rotate(90 81.1639 185.843)" fill="white" fill-opacity="0.25"/>
<circle cx="81.1639" cy="212.012" r="2.6549" transform="rotate(90 81.1639 212.012)" fill="white" fill-opacity="0.25"/>
<circle cx="81.1639" cy="238.182" r="2.6549" transform="rotate(90 81.1639 238.182)" fill="white" fill-opacity="0.25"/>
<circle cx="54.994" cy="2.6549" r="2.6549" transform="rotate(90 54.994 2.6549)" fill="white" fill-opacity="0.25"/>
<circle cx="54.994" cy="28.8246" r="2.6549" transform="rotate(90 54.994 28.8246)" fill="white" fill-opacity="0.25"/>
<circle cx="54.994" cy="54.9944" r="2.6549" transform="rotate(90 54.994 54.9944)" fill="white" fill-opacity="0.25"/>
<circle cx="54.994" cy="81.1641" r="2.6549" transform="rotate(90 54.994 81.1641)" fill="white" fill-opacity="0.25"/>
<circle cx="54.994" cy="107.334" r="2.6549" transform="rotate(90 54.994 107.334)" fill="white" fill-opacity="0.25"/>
<circle cx="54.994" cy="133.503" r="2.6549" transform="rotate(90 54.994 133.503)" fill="white" fill-opacity="0.25"/>
<circle cx="54.994" cy="159.673" r="2.6549" transform="rotate(90 54.994 159.673)" fill="white" fill-opacity="0.25"/>
<circle cx="54.994" cy="185.843" r="2.6549" transform="rotate(90 54.994 185.843)" fill="white" fill-opacity="0.25"/>
<circle cx="54.994" cy="212.012" r="2.6549" transform="rotate(90 54.994 212.012)" fill="white" fill-opacity="0.25"/>
<circle cx="54.994" cy="238.182" r="2.6549" transform="rotate(90 54.994 238.182)" fill="white" fill-opacity="0.25"/>
<circle cx="28.8246" cy="2.6549" r="2.6549" transform="rotate(90 28.8246 2.6549)" fill="white" fill-opacity="0.25"/>
<circle cx="28.8246" cy="28.8246" r="2.6549" transform="rotate(90 28.8246 28.8246)" fill="white" fill-opacity="0.25"/>
<circle cx="28.8246" cy="54.9944" r="2.6549" transform="rotate(90 28.8246 54.9944)" fill="white" fill-opacity="0.25"/>
<circle cx="28.8246" cy="81.1641" r="2.6549" transform="rotate(90 28.8246 81.1641)" fill="white" fill-opacity="0.25"/>
<circle cx="28.8246" cy="107.334" r="2.6549" transform="rotate(90 28.8246 107.334)" fill="white" fill-opacity="0.25"/>
<circle cx="28.8246" cy="133.503" r="2.6549" transform="rotate(90 28.8246 133.503)" fill="white" fill-opacity="0.25"/>
<circle cx="28.8246" cy="159.673" r="2.6549" transform="rotate(90 28.8246 159.673)" fill="white" fill-opacity="0.25"/>
<circle cx="28.8246" cy="185.843" r="2.6549" transform="rotate(90 28.8246 185.843)" fill="white" fill-opacity="0.25"/>
<circle cx="28.8246" cy="212.012" r="2.6549" transform="rotate(90 28.8246 212.012)" fill="white" fill-opacity="0.25"/>
<circle cx="28.8246" cy="238.182" r="2.6549" transform="rotate(90 28.8246 238.182)" fill="white" fill-opacity="0.25"/>
<circle cx="2.65467" cy="2.6549" r="2.6549" transform="rotate(90 2.65467 2.6549)" fill="white" fill-opacity="0.25"/>
<circle cx="2.65467" cy="28.8246" r="2.6549" transform="rotate(90 2.65467 28.8246)" fill="white" fill-opacity="0.25"/>
<circle cx="2.65467" cy="54.9944" r="2.6549" transform="rotate(90 2.65467 54.9944)" fill="white" fill-opacity="0.25"/>
<circle cx="2.65467" cy="81.1641" r="2.6549" transform="rotate(90 2.65467 81.1641)" fill="white" fill-opacity="0.25"/>
<circle cx="2.65467" cy="107.334" r="2.6549" transform="rotate(90 2.65467 107.334)" fill="white" fill-opacity="0.25"/>
<circle cx="2.65467" cy="133.503" r="2.6549" transform="rotate(90 2.65467 133.503)" fill="white" fill-opacity="0.25"/>
<circle cx="2.65467" cy="159.673" r="2.6549" transform="rotate(90 2.65467 159.673)" fill="white" fill-opacity="0.25"/>
<circle cx="2.65467" cy="185.843" r="2.6549" transform="rotate(90 2.65467 185.843)" fill="white" fill-opacity="0.25"/>
<circle cx="2.65467" cy="212.012" r="2.6549" transform="rotate(90 2.65467 212.012)" fill="white" fill-opacity="0.25"/>
<circle cx="2.65467" cy="238.182" r="2.6549" transform="rotate(90 2.65467 238.182)" fill="white" fill-opacity="0.25"/>
</svg>
