<svg width="40" height="40" viewBox="0 0 40 40" fill="none" xmlns="http://www.w3.org/2000/svg">
<path d="M8.23705 17.8601L12.4787 19.6592C12.9843 18.6478 13.5302 17.6577 14.1166 16.6888C14.7027 15.7196 15.3401 14.7846 16.0287 13.8838L13.1154 13.313C13.0298 13.2916 12.947 13.2944 12.867 13.3213C12.7868 13.348 12.7147 13.3934 12.6508 13.4576L8.23705 17.8601ZM14.1454 20.9476L19.2679 26.0621C20.709 25.4074 22.1094 24.6217 23.4691 23.7051C24.8286 22.7884 26.0344 21.8041 27.0866 20.7521C29.103 18.7358 30.6139 16.6284 31.6191 14.4301C32.6244 12.2317 33.1744 9.73186 33.2691 6.93047C30.4608 7.0252 27.9604 7.57353 25.7679 8.57547C23.5757 9.57714 21.4714 11.0862 19.455 13.1026C18.403 14.1545 17.4187 15.3631 16.502 16.7284C15.5854 18.0934 14.7998 19.4998 14.1454 20.9476ZM23.2029 16.9776C22.6801 16.462 22.4187 15.8267 22.4187 15.0717C22.4187 14.3167 22.6801 13.6778 23.2029 13.1551C23.7257 12.6323 24.3687 12.3709 25.132 12.3709C25.8951 12.3709 26.538 12.6323 27.0608 13.1551C27.5836 13.6778 27.845 14.3167 27.845 15.0717C27.845 15.8267 27.5836 16.462 27.0608 16.9776C26.538 17.5003 25.8951 17.7617 25.132 17.7617C24.3687 17.7617 23.7257 17.5003 23.2029 16.9776ZM22.3291 31.968L26.7425 27.5651C26.8066 27.5012 26.8502 27.4273 26.8733 27.3434C26.8964 27.2598 26.9008 27.1788 26.8866 27.1005L26.3054 24.1871C25.4045 24.8685 24.4714 25.501 23.5058 26.0846C22.5402 26.668 21.5483 27.216 20.53 27.7288L22.3291 31.968ZM35.2829 4.92422C35.5045 8.33533 35.0543 11.4628 33.932 14.3067C32.8098 17.1506 31.0019 19.8159 28.5083 22.3026C28.4436 22.3673 28.3823 22.4302 28.3245 22.4913C28.267 22.5527 28.2058 22.6123 28.1408 22.6701L28.9391 26.673C29.0208 27.111 28.9976 27.5334 28.8695 27.9401C28.7412 28.3467 28.5229 28.7044 28.2145 29.013L21.6175 35.6217L18.4691 28.2351L11.9541 21.7309L4.57788 18.5555L11.1679 11.9746C11.4834 11.666 11.8459 11.4451 12.2554 11.3117C12.6648 11.1781 13.0886 11.1558 13.5266 11.2446L17.5512 12.0484C17.6159 11.9906 17.6745 11.9339 17.727 11.8784C17.7793 11.8228 17.8379 11.7662 17.9029 11.7084C20.3965 9.21478 23.062 7.40533 25.8995 6.28006C28.737 5.15478 31.8648 4.70283 35.2829 4.92422ZM7.37705 26.7063C8.18899 25.8871 9.17705 25.4778 10.3412 25.4784C11.5054 25.4787 12.497 25.8848 13.3162 26.6967C14.1282 27.5087 14.5298 28.4967 14.5212 29.6609C14.5126 30.8251 14.1023 31.8166 13.2904 32.6355C12.6418 33.2774 11.6265 33.8187 10.2445 34.2592C8.86288 34.6995 7.00469 35.061 4.66996 35.3438C4.95274 33.0091 5.31246 31.1463 5.74913 29.7555C6.18552 28.3644 6.72816 27.348 7.37705 26.7063ZM8.84955 28.2138C8.4976 28.5841 8.17524 29.1713 7.88246 29.9755C7.58969 30.7796 7.36677 31.718 7.21371 32.7905C8.28621 32.6302 9.22455 32.4042 10.0287 32.1126C10.8329 31.8209 11.4202 31.4956 11.7908 31.1367C12.218 30.7392 12.4373 30.2498 12.4487 29.6684C12.4601 29.0867 12.2579 28.5823 11.842 28.1551C11.4145 27.7389 10.9101 27.5378 10.3287 27.5517C9.74705 27.5656 9.25399 27.7863 8.84955 28.2138Z" fill="#C5A059"/>
</svg>
