<svg width="41" height="41" viewBox="0 0 41 41" fill="none" xmlns="http://www.w3.org/2000/svg">
<path d="M18.0087 40.4029C17.4806 40.4029 17.1286 40.2267 16.7766 39.8743C16.2485 39.3456 16.0725 38.6408 16.2485 37.9359C17.4806 34.7641 17.1286 31.2399 15.3684 28.4205C14.8404 28.4205 14.3123 28.2443 13.9603 28.2443C13.2563 28.0681 12.7282 27.5395 12.5522 26.8346C12.3762 26.306 12.3762 25.9536 12.3762 25.4249C9.55994 23.6628 5.86362 23.3104 2.87137 24.5439C2.16731 24.8963 1.46325 24.7201 0.935201 24.1914C0.407156 23.6628 0.231141 22.958 0.583171 22.2531C1.28723 20.6672 2.16731 19.2575 3.39941 18.024C6.21565 15.2047 10.264 13.795 14.3123 14.1474C15.5444 11.5042 17.1286 9.21347 19.0647 7.27514C23.2891 2.86985 29.0976 0.402893 34.9061 0.402893C36.1382 0.402893 37.3703 0.579105 38.6024 0.755316C39.3065 0.931527 39.8345 1.46016 40.0105 2.16501C41.4186 8.86104 38.9544 16.4381 33.498 21.7245C31.5618 23.6628 29.2736 25.2487 26.6334 26.4822C26.9854 30.5351 25.5773 34.5879 22.7611 37.4073C21.529 38.6408 20.1208 39.5218 18.5367 40.2267C18.3607 40.4029 18.1847 40.4029 18.0087 40.4029ZM15.8965 24.8963C16.0725 24.8963 16.2485 24.8963 16.6005 24.8963C17.1286 24.8963 17.6566 25.2487 17.8326 25.6011C19.7688 28.2443 20.8249 31.4161 20.6489 34.5879C22.9371 32.2972 23.8172 28.9491 23.1131 25.6011C22.9371 24.7201 23.4651 23.839 24.1692 23.6628C26.8094 22.6055 29.0976 21.1958 31.0338 19.0813C35.2581 14.8522 37.3703 9.21347 36.6662 3.92712C31.3858 3.22228 25.5773 5.51302 21.529 9.56589C19.5928 11.5042 18.0087 13.795 16.9526 16.4381C16.7766 17.3192 15.8965 17.8478 15.0164 17.6716C11.8481 16.9668 8.50385 18.024 6.03964 20.1386C9.20791 19.9624 12.5522 21.0196 15.0164 22.958C15.3684 23.3104 15.7205 23.6628 15.7205 24.1914C15.8965 24.5439 15.8965 24.7201 15.8965 24.8963Z" fill="white"/>
<path d="M29.0976 16.0858C27.8655 16.0858 26.8094 15.5571 25.9294 14.8523C24.1692 13.0902 24.1692 10.2708 25.9294 8.68488C27.5135 7.09898 30.5058 7.09898 32.0899 8.68488C32.97 9.56594 33.322 10.6232 33.322 11.8567C33.322 13.0902 32.7939 14.1474 32.0899 15.0285C31.3858 15.7333 30.3297 16.0858 29.0976 16.0858ZM29.0976 9.0373C28.3936 9.0373 27.6895 9.38973 27.1615 9.74215C26.1054 10.7994 26.1054 12.3853 27.1615 13.4426C28.2176 14.4999 29.9777 14.4999 30.8578 13.4426C31.3858 12.914 31.5618 12.2091 31.5618 11.5043C31.5618 10.7994 31.2098 10.0946 30.8578 9.56594C30.5058 9.38973 29.8017 9.0373 29.0976 9.0373Z" fill="white"/>
<path d="M9.03186 34.4117C8.50382 34.4117 7.79976 34.4117 7.27171 34.2355C6.91968 34.2355 6.56765 33.8831 6.56765 33.5306C6.03961 29.8302 7.27171 26.1298 10.088 23.3104C10.44 22.9579 10.968 22.9579 11.3201 23.3104C11.6721 23.6628 11.6721 24.1914 11.3201 24.5438C9.03186 26.8346 7.97577 29.8302 8.15179 32.6496C10.968 33.002 13.9603 31.7685 16.2485 29.4778C16.6005 29.1253 17.1286 29.1253 17.4806 29.4778C17.8326 29.8302 17.8326 30.3588 17.4806 30.7113C15.1924 33.002 12.2001 34.4117 9.03186 34.4117Z" fill="white"/>
</svg>
