<svg width="40" height="40" viewBox="0 0 40 40" fill="none" xmlns="http://www.w3.org/2000/svg">
<path d="M19.6475 33.6913C19.8305 33.6913 20.023 33.6501 20.225 33.5676C20.4269 33.4848 20.5885 33.3794 20.7096 33.2513L34.2254 19.718C34.6129 19.3305 34.9091 18.9112 35.1141 18.4601C35.3194 18.0089 35.4221 17.5366 35.4221 17.043C35.4221 16.5371 35.3194 16.0428 35.1141 15.5601C34.9091 15.077 34.6129 14.6446 34.2254 14.263L27.3558 7.39338C26.9741 7.00588 26.5578 6.71755 26.1066 6.52838C25.6558 6.33922 25.1776 6.24463 24.6721 6.24463C24.1782 6.24463 23.703 6.33922 23.2466 6.52838C22.7903 6.71755 22.3736 7.00588 21.9966 7.39338L20.9004 8.48922L24.125 11.7392C24.4689 12.0889 24.7507 12.4971 24.9704 12.9638C25.1901 13.4302 25.3 13.9241 25.3 14.4455C25.3 15.4099 24.9528 16.2348 24.2583 16.9201C23.5639 17.6051 22.738 17.9476 21.7808 17.9476C21.2183 17.9476 20.72 17.8617 20.2858 17.6901C19.8516 17.5184 19.459 17.2592 19.1079 16.9126L15.9871 13.7938L8.61956 21.1613C8.47067 21.3102 8.36012 21.4778 8.2879 21.6642C8.21567 21.8506 8.17956 22.0403 8.17956 22.2334C8.17956 22.6056 8.30206 22.9139 8.54706 23.1584C8.79206 23.4026 9.09734 23.5246 9.4629 23.5246C9.66345 23.5246 9.85901 23.4787 10.0496 23.3867C10.2401 23.2948 10.396 23.1884 10.5171 23.0676L16.0362 17.548L17.5108 19.0226L12.0171 24.5138C11.8682 24.6699 11.7576 24.842 11.6854 25.0301C11.6132 25.2181 11.5771 25.4094 11.5771 25.6038C11.5771 25.9535 11.705 26.2564 11.9608 26.5126C12.2169 26.7684 12.5198 26.8963 12.8696 26.8963C13.064 26.8963 13.2565 26.8551 13.4471 26.7726C13.6376 26.6898 13.7935 26.5844 13.9146 26.4563L19.6262 20.7534L21.1004 22.2276L15.4146 27.9113C15.2876 28.0396 15.1825 28.2031 15.0991 28.4017C15.0158 28.6006 14.9741 28.8005 14.9741 29.0013C14.9741 29.351 15.1022 29.6538 15.3583 29.9096C15.6144 30.1657 15.9173 30.2938 16.2671 30.2938C16.4615 30.2938 16.6471 30.2577 16.8237 30.1855C17.0004 30.1132 17.1632 30.0027 17.3121 29.8538L23.0233 24.1509L24.4979 25.6251L18.7862 31.3367C18.6373 31.4853 18.5268 31.6591 18.4546 31.858C18.3823 32.0566 18.3462 32.2421 18.3462 32.4146C18.3462 32.7977 18.4708 33.1063 18.72 33.3405C18.9694 33.5744 19.2786 33.6913 19.6475 33.6913ZM19.6408 35.7851C18.75 35.7851 17.9719 35.4599 17.3066 34.8096C16.6414 34.1594 16.2928 33.3481 16.2608 32.3759C15.3164 32.3212 14.5273 31.9903 13.8937 31.3834C13.2601 30.7767 12.9166 29.9762 12.8633 28.9817C11.8761 28.9178 11.078 28.5746 10.4691 27.9521C9.85998 27.3296 9.53415 26.5403 9.49165 25.5842C8.51859 25.5273 7.70762 25.1903 7.05873 24.5734C6.40984 23.9562 6.0854 23.1671 6.0854 22.2063C6.0854 21.7491 6.17526 21.2948 6.35498 20.8434C6.5347 20.392 6.78956 19.998 7.11956 19.6613L15.9871 10.8026L20.4454 15.2609C20.6193 15.4403 20.8228 15.5849 21.0558 15.6946C21.2889 15.8044 21.5335 15.8592 21.7896 15.8592C22.1529 15.8592 22.4812 15.7174 22.7746 15.4338C23.0679 15.1505 23.2146 14.8185 23.2146 14.438C23.2146 14.2321 23.1655 14.0262 23.0675 13.8201C22.9691 13.6139 22.8303 13.4203 22.6508 13.2392L16.8046 7.39338C16.4226 7.00588 16.0036 6.71755 15.5475 6.52838C15.0914 6.33922 14.6104 6.24463 14.1046 6.24463C13.6107 6.24463 13.141 6.33922 12.6954 6.52838C12.2496 6.71755 11.8335 7.0045 11.4471 7.38922L5.75123 13.0963C5.37651 13.4707 5.09526 13.8864 4.90748 14.3434C4.71998 14.8003 4.61831 15.2988 4.60248 15.8388C4.5797 16.2896 4.64567 16.7299 4.8004 17.1596C4.95484 17.5896 5.15665 17.9838 5.40581 18.3421L3.8654 19.8717C3.45512 19.3403 3.12387 18.7146 2.87165 17.9946C2.6197 17.2746 2.49581 16.5421 2.49998 15.7971C2.50442 15.0002 2.6597 14.2387 2.96581 13.5126C3.2722 12.7862 3.70637 12.142 4.26831 11.5801L9.92956 5.9188C10.5235 5.33047 11.1769 4.89158 11.89 4.60213C12.603 4.31269 13.3504 4.16797 14.1321 4.16797C14.9137 4.16797 15.6575 4.31269 16.3633 4.60213C17.0691 4.89158 17.7162 5.33047 18.3046 5.9188L19.4008 7.01505L20.4966 5.9188C21.0908 5.33047 21.7418 4.89158 22.4496 4.60213C23.1571 4.31269 23.9016 4.16797 24.6833 4.16797C25.465 4.16797 26.2114 4.31269 26.9225 4.60213C27.6336 4.89158 28.2833 5.33047 28.8716 5.9188L35.6996 12.7467C36.2879 13.3351 36.7378 14.0055 37.0491 14.758C37.3603 15.5102 37.5158 16.2749 37.5158 17.0521C37.5158 17.8294 37.3603 18.5709 37.0491 19.2767C36.7378 19.9826 36.2879 20.6296 35.6996 21.218L22.1837 34.7255C21.8348 35.0816 21.443 35.3473 21.0083 35.5226C20.5736 35.6976 20.1178 35.7851 19.6408 35.7851Z" fill="#C5A059"/>
</svg>
