<svg width="41" height="41" viewBox="0 0 41 41" fill="none" xmlns="http://www.w3.org/2000/svg">
<path d="M20.4107 40.3903C15.137 40.3903 10.0333 38.3565 6.29066 34.6276C-1.53493 26.6615 -1.53493 13.9497 6.12054 6.15306C10.0333 2.42425 14.9669 0.39035 20.4107 0.39035C25.8546 0.39035 30.7882 2.42425 34.5308 6.15306C42.3564 13.9497 42.3564 26.6615 34.5308 34.4581C30.7882 38.187 25.6845 40.3903 20.4107 40.3903ZM20.4107 3.78018C15.9876 3.78018 11.7345 5.4751 8.67236 8.69543C2.03762 15.1361 2.03762 25.6446 8.67236 32.0853C11.7345 35.1361 15.9876 37.0005 20.4107 37.0005C24.8339 37.0005 29.0869 35.3056 32.1491 32.0853C38.6137 25.6446 38.6137 15.1361 32.1491 8.69543C28.9168 5.4751 24.8339 3.78018 20.4107 3.78018Z" fill="white"/>
<path d="M22.6222 16.3226H3.05825C2.54788 16.3226 2.20764 15.9836 2.20764 15.4751C2.20764 14.9667 2.54788 14.6277 3.05825 14.6277H22.6222C23.1326 14.6277 23.4728 14.9667 23.4728 15.4751C23.4728 15.9836 23.1326 16.3226 22.6222 16.3226Z" fill="white"/>
<path d="M6.9711 33.6107C6.80098 33.6107 6.63086 33.6107 6.63086 33.4412C6.29062 33.2717 6.12049 32.7632 6.29062 32.2548L15.9875 15.3056C16.1577 14.9666 16.668 14.7971 17.1784 14.9666C17.5186 15.1361 17.6888 15.6446 17.5186 16.1531L7.82171 33.1022C7.48147 33.4412 7.31135 33.6107 6.9711 33.6107Z" fill="white"/>
<path d="M23.9832 39.0344C23.6429 39.0344 23.4728 38.8649 23.3027 38.6955L13.6058 21.7463C13.4357 21.4073 13.4357 20.8988 13.946 20.5599C14.2863 20.3904 14.7966 20.3904 15.1369 20.8988L25.0039 37.848C25.174 38.187 25.174 38.6955 24.6637 39.0344C24.3234 38.8649 24.1533 39.0344 23.9832 39.0344Z" fill="white"/>
<path d="M37.2528 27.0004H17.6889C17.1785 27.0004 16.8383 26.6614 16.8383 26.153C16.8383 25.6445 17.1785 25.3055 17.6889 25.3055H37.2528C37.7632 25.3055 38.1034 25.6445 38.1034 26.153C38.1034 26.492 37.5931 27.0004 37.2528 27.0004Z" fill="white"/>
<path d="M23.4729 26.492C23.3028 26.492 23.1327 26.492 23.1327 26.3225C22.7924 26.153 22.6223 25.6445 22.7924 25.136L32.6595 8.18688C32.8296 7.84789 33.34 7.6784 33.8503 7.84789C34.1906 8.01739 34.3607 8.52586 34.1906 9.03434L24.3235 25.9835C24.1534 26.3225 23.8132 26.492 23.4729 26.492Z" fill="white"/>
<path d="M26.0249 21.0684C25.6847 21.0684 25.5146 20.8989 25.3444 20.7294L15.4774 3.78024C15.3073 3.44126 15.4774 2.93278 15.8176 2.5938C16.1579 2.42431 16.6682 2.42431 17.0085 2.93278L26.8755 19.8819C27.0456 20.2209 27.0456 20.7294 26.5353 21.0684C26.3652 21.0684 26.195 21.0684 26.0249 21.0684Z" fill="white"/>
</svg>
