<svg width="41" height="41" viewBox="0 0 41 41" fill="none" xmlns="http://www.w3.org/2000/svg">
<path d="M20.4 40.4001C9.38308 40.4001 0.400024 31.417 0.400024 20.4001C0.400024 9.89158 8.53562 1.07802 19.0441 0.400055C19.5526 0.400055 19.8915 0.569546 20.2305 0.90853C20.739 1.24751 20.9085 1.5865 20.9085 2.09497V19.8916H38.7051C39.2136 19.8916 39.5526 20.0611 39.8915 20.4001C40.2305 20.739 40.4 21.2475 40.4 21.5865C39.7221 32.095 30.9085 40.4001 20.4 40.4001ZM17.5187 3.95938C9.72206 5.31531 3.78985 12.2645 3.78985 20.4001C3.78985 29.5526 11.2475 37.0102 20.4 37.0102C28.5356 37.0102 35.3153 31.078 36.8407 23.2814H19.2136C18.1966 23.2814 17.5187 22.6034 17.5187 21.5865V3.95938Z" fill="white"/>
<path d="M37.8578 17.8576H24.129C23.6205 17.8576 23.2815 17.5186 23.2815 17.0101V3.28133C23.2815 2.77285 23.6205 2.43387 24.129 2.43387C32.0951 2.43387 38.7052 8.87455 38.7052 17.0101C38.7052 17.5186 38.3662 17.8576 37.8578 17.8576ZM24.9764 16.1627H37.0103C36.6713 9.722 31.4171 4.63726 24.9764 4.12878V16.1627V16.1627Z" fill="white"/>
</svg>
