<svg width="40" height="40" viewBox="0 0 40 40" fill="none" xmlns="http://www.w3.org/2000/svg">
<path d="M28.3216 23.4228C27.3119 23.4228 26.4542 23.07 25.7487 22.3645C25.0429 21.6586 24.6899 20.801 24.6899 19.7916C24.6899 18.7818 25.0434 17.9242 25.7504 17.2186C26.457 16.5131 27.3123 16.1603 28.3162 16.1603C29.3293 16.1603 30.1869 16.5136 30.8891 17.2203C31.5911 17.9272 31.942 18.7825 31.942 19.7861C31.942 20.7992 31.5911 21.6586 30.8891 22.3645C30.1869 23.07 29.3311 23.4228 28.3216 23.4228ZM20.4787 32.1795V30.3586C20.4787 29.7442 20.6197 29.2027 20.9016 28.7341C21.1838 28.2654 21.5863 27.9167 22.1091 27.6878C23.0897 27.2292 24.0955 26.8881 25.1266 26.6645C26.1574 26.4409 27.2224 26.3291 28.3216 26.3291C29.3988 26.3291 30.4534 26.4379 31.4854 26.6557C32.517 26.8738 33.5333 27.2178 34.5341 27.6878C35.0491 27.9078 35.4479 28.2543 35.7304 28.7274C36.0126 29.2004 36.1537 29.7442 36.1537 30.3586V32.1795H20.4787ZM16.3462 19.4699C14.742 19.4699 13.4026 18.9325 12.3279 17.8578C11.2531 16.7831 10.7158 15.442 10.7158 13.8345C10.7158 12.2267 11.2531 10.8873 12.3279 9.81614C13.4026 8.74503 14.742 8.20947 16.3462 8.20947C17.9504 8.20947 19.2898 8.74503 20.3645 9.81614C21.439 10.8873 21.9762 12.2267 21.9762 13.8345C21.9762 15.442 21.439 16.7831 20.3645 17.8578C19.2898 18.9325 17.9504 19.4699 16.3462 19.4699ZM3.84619 32.1795V28.8353C3.84619 28.0025 4.06355 27.2373 4.49827 26.5395C4.93327 25.8414 5.55328 25.3161 6.35828 24.9636C8.03605 24.18 9.6973 23.5878 11.342 23.187C12.987 22.7859 14.6524 22.5853 16.3383 22.5853C17.1247 22.5853 17.8616 22.6239 18.5491 22.7011C19.2363 22.7786 19.9499 22.8903 20.6899 23.0361C20.3927 23.3317 20.0954 23.6327 19.7979 23.9391C19.5006 24.2452 19.2033 24.546 18.9058 24.8416C18.5091 24.7779 18.0974 24.735 17.6708 24.7128C17.2441 24.6906 16.8026 24.6795 16.3462 24.6795C14.8065 24.6795 13.2931 24.8418 11.8062 25.1666C10.3192 25.4913 8.8098 26.0468 7.27786 26.8332C6.90453 27.0268 6.58827 27.3034 6.32911 27.6628C6.06966 28.0222 5.93994 28.4131 5.93994 28.8353V30.0853H16.9104V32.1795H3.84619ZM16.3462 17.3761C17.3454 17.3761 18.1845 17.0366 18.8637 16.3574C19.5429 15.6782 19.8824 14.8389 19.8824 13.8395C19.8824 12.8403 19.5429 12.0011 18.8637 11.322C18.1845 10.6428 17.3454 10.3032 16.3462 10.3032C15.3467 10.3032 14.5074 10.6428 13.8283 11.322C13.1494 12.0011 12.8099 12.8403 12.8099 13.8395C12.8099 14.8389 13.1494 15.6782 13.8283 16.3574C14.5074 17.0366 15.3467 17.3761 16.3462 17.3761Z" fill="#C5A059"/>
</svg>
