<svg width="40" height="40" viewBox="0 0 40 40" fill="none" xmlns="http://www.w3.org/2000/svg">
<path d="M4.16663 34.1667V32.0726H18.9529V12.7938C18.1987 12.5972 17.5287 12.214 16.9429 11.6442C16.357 11.0745 15.9605 10.3912 15.7533 9.59425H9.59413L14.5941 21.888C14.5505 23.0666 14.0255 24.0705 13.0191 24.8997C12.0127 25.7288 10.7998 26.1434 9.38038 26.1434C7.96093 26.1434 6.74802 25.7288 5.74163 24.8997C4.73524 24.0705 4.21024 23.0666 4.16663 21.888L9.17746 9.59425H5.83329V7.50008H15.7533C16.0116 6.54925 16.5288 5.75605 17.305 5.1205C18.0811 4.48467 18.9794 4.16675 20 4.16675C21.0205 4.16675 21.9188 4.48467 22.695 5.1205C23.4708 5.75605 23.988 6.54925 24.2466 7.50008H34.1666V9.59425H30.8333L35.8333 21.888C35.7897 23.0666 35.2647 24.0705 34.2583 24.8997C33.2519 25.7288 32.039 26.1434 30.6195 26.1434C29.2001 26.1434 27.9872 25.7288 26.9808 24.8997C25.9744 24.0705 25.4494 23.0666 25.4058 21.888L30.4166 9.59425H24.2466C24.0394 10.3912 23.6429 11.0745 23.057 11.6442C22.4712 12.214 21.8012 12.5972 21.047 12.7938V32.0726H35.8333V34.1667H4.16663ZM27.3825 21.763H33.8566L30.6195 13.7488L27.3825 21.763ZM6.14329 21.763H12.6175L9.38038 13.7488L6.14329 21.763ZM20 10.8334C20.6388 10.8334 21.1797 10.6074 21.6225 10.1555C22.065 9.70355 22.2862 9.16744 22.2862 8.54717C22.2862 7.90828 22.065 7.36744 21.6225 6.92466C21.1797 6.48216 20.6388 6.26092 20 6.26092C19.3797 6.26092 18.8436 6.48216 18.3916 6.92466C17.9397 7.36744 17.7137 7.90828 17.7137 8.54717C17.7137 9.16744 17.9397 9.70355 18.3916 10.1555C18.8436 10.6074 19.3797 10.8334 20 10.8334Z" fill="#C5A059"/>
</svg>
