<svg width="41" height="41" viewBox="0 0 41 41" fill="none" xmlns="http://www.w3.org/2000/svg">
<path d="M15.2137 39.1154C11.5937 39.1154 7.79282 38.2105 4.5349 36.7625C4.17291 36.5815 3.81092 36.2195 3.62992 35.8575C-0.713978 26.2647 1.27697 14.862 8.6978 7.44119C13.4037 2.7353 19.7385 0.201355 26.4354 0.201355C30.0553 0.201355 33.8562 1.10633 37.1141 2.5543C37.4761 2.7353 37.8381 3.09729 38.0191 3.45928C42.544 13.0521 40.5531 24.2738 33.1322 31.6946C28.2453 36.4005 21.9105 39.1154 15.2137 39.1154ZM6.70685 33.6856C9.42178 34.7715 12.3177 35.4955 15.2137 35.4955C21.0055 35.4955 26.2544 33.3236 30.2363 29.1607C36.3902 23.0068 38.2001 13.595 34.7612 5.45023C32.0463 4.36426 29.1503 3.64027 26.2544 3.64027C20.4625 3.64027 15.2136 5.81222 11.2317 9.97513C5.07789 16.31 3.26793 25.7218 6.70685 33.6856Z" fill="white"/>
<path d="M6.3446 35.1336C6.1636 35.1336 5.80161 35.1336 5.62061 34.9526C5.25862 34.5906 5.25862 34.0476 5.62061 33.6856L35.6659 3.6403C36.0279 3.27831 36.5709 3.27831 36.9329 3.6403C37.2949 4.00229 37.2949 4.54528 36.9329 4.90727L6.88759 34.7716C6.70659 34.9526 6.52559 35.1336 6.3446 35.1336Z" fill="white"/>
<path d="M2.00088 40.2013C1.45789 40.2013 1.0959 40.0203 0.733905 39.6583C0.00992223 38.9344 0.00992223 37.8484 0.733905 37.1244L3.99183 33.8665C4.71581 33.1425 5.80179 33.1425 6.52577 33.8665C7.24975 34.5905 7.24975 35.6764 6.52577 36.4004L3.26785 39.6583C2.90585 40.0203 2.54386 40.2013 2.00088 40.2013Z" fill="white"/>
<path d="M36.39 20.2921L22.2723 19.5681C21.7293 19.5681 21.3673 19.2061 21.3673 18.6631C21.3673 18.1201 21.7293 17.7581 22.2723 17.7581L36.39 18.4821C36.9329 18.4821 37.2949 18.8441 37.2949 19.3871C37.2949 19.9301 36.9329 20.2921 36.39 20.2921Z" fill="white"/>
<path d="M31.5031 29.1607L13.5845 28.4367C13.0416 28.4367 12.6796 28.0747 12.6796 27.5317C12.6796 26.9888 13.0416 26.6268 13.5845 26.6268L31.3221 27.3508C31.8651 27.3508 32.2271 27.7127 32.2271 28.2557C32.4081 28.7987 32.0461 29.1607 31.5031 29.1607Z" fill="white"/>
<path d="M21.7294 18.844C21.1864 18.844 20.8244 18.482 20.8244 17.939L20.1005 4.00236C20.1005 3.45937 20.4625 3.09738 21.0054 3.09738C21.5484 3.09738 21.9104 3.45937 21.9104 4.00236L22.6344 18.12C22.6344 18.482 22.2724 18.844 21.7294 18.844Z" fill="white"/>
<path d="M13.0416 27.7127C12.4987 27.7127 12.1367 27.3507 12.1367 26.8077L11.2317 9.07012C11.2317 8.52713 11.5937 8.16514 12.1367 8.16514C12.6797 7.98415 13.0416 8.52713 13.0416 9.07012L13.7656 26.8077C13.9466 27.1697 13.5846 27.7127 13.0416 27.7127Z" fill="white"/>
</svg>
