<svg width="40" height="40" viewBox="0 0 40 40" fill="none" xmlns="http://www.w3.org/2000/svg">
<path d="M20.0071 25.7583C21.8335 25.7583 23.3875 25.1151 24.6692 23.8288C25.9509 22.5424 26.5917 20.986 26.5917 19.1596C26.5917 17.3332 25.9485 15.7792 24.6621 14.4975C23.3757 13.2158 21.8193 12.575 19.993 12.575C18.1666 12.575 16.6125 13.2182 15.3309 14.5046C14.0492 15.791 13.4084 17.3474 13.4084 19.1738C13.4084 21.0001 14.0516 22.5542 15.338 23.8358C16.6243 25.1175 18.1807 25.7583 20.0071 25.7583ZM19.9917 23.7458C18.7173 23.7458 17.6368 23.2999 16.7505 22.4079C15.8641 21.5157 15.4209 20.4325 15.4209 19.1583C15.4209 17.8839 15.8668 16.8035 16.7588 15.9171C17.651 15.0307 18.7342 14.5875 20.0084 14.5875C21.2828 14.5875 22.3632 15.0335 23.2496 15.9254C24.136 16.8176 24.5792 17.9008 24.5792 19.175C24.5792 20.4494 24.1332 21.5299 23.2413 22.4163C22.3491 23.3026 21.2659 23.7458 19.9917 23.7458ZM20.0021 30.8333C16.1766 30.8333 12.6993 29.7676 9.57046 27.6363C6.44157 25.5049 4.10615 22.6817 2.56421 19.1667C4.10615 15.6517 6.44088 12.8285 9.56838 10.6971C12.6956 8.56569 16.1721 7.5 19.998 7.5C23.8235 7.5 27.3007 8.56569 30.4296 10.6971C33.5585 12.8285 35.8939 15.6517 37.4359 19.1667C35.8939 22.6817 33.5592 25.5049 30.4317 27.6363C27.3045 29.7676 23.828 30.8333 20.0021 30.8333ZM19.9955 28.7392C23.2499 28.7392 26.2367 27.8733 28.9559 26.1417C31.6748 24.4097 33.7493 22.0847 35.1796 19.1667C33.7493 16.2486 31.6763 13.9236 28.9605 12.1917C26.2446 10.46 23.2593 9.59417 20.0046 9.59417C16.7502 9.59417 13.7634 10.46 11.0442 12.1917C8.32532 13.9236 6.24504 16.2486 4.80338 19.1667C6.24504 22.0847 8.32379 24.4097 11.0396 26.1417C13.7555 27.8733 16.7407 28.7392 19.9955 28.7392Z" fill="#C5A059"/>
</svg>
