<?xml version="1.0" standalone="no"?>
<!DOCTYPE svg PUBLIC "-//W3C//DTD SVG 20010904//EN"
 "http://www.w3.org/TR/2001/REC-SVG-20010904/DTD/svg10.dtd">
<svg version="1.0" xmlns="http://www.w3.org/2000/svg"
 width="100.000000pt" height="100.000000pt" viewBox="0 0 100.000000 100.000000"
 preserveAspectRatio="xMidYMid meet">
<metadata>
Created by potrace 1.14, written by Peter Selinger 2001-2017
</metadata>
<g transform="translate(0.000000,100.000000) scale(0.100000,-0.100000)"
fill="#000000" stroke="none">
<path d="M139 932 c-1 -62 -1 -883 0 -900 1 -9 28 -11 109 -9 127 4 169 22
202 88 19 36 20 60 20 390 0 398 0 401 -76 449 -39 24 -51 27 -148 27 l-106 1
-1 -46z m205 -84 c14 -19 16 -70 16 -352 0 -371 1 -366 -72 -366 l-38 0 0 370
0 370 39 0 c30 0 44 -6 55 -22z"/>
<path d="M635 965 c-47 -16 -93 -66 -100 -110 -4 -16 -5 -187 -3 -380 3 -348
3 -350 26 -383 64 -89 209 -90 273 -1 21 30 24 47 27 142 l4 107 -56 0 -56 0
0 -89 c0 -68 -4 -93 -16 -105 -21 -21 -57 -20 -77 2 -15 17 -17 56 -17 355 0
364 0 367 55 367 44 0 55 -23 55 -121 l0 -89 56 0 56 0 -4 108 c-3 94 -6 111
-27 141 -26 36 -90 71 -131 70 -14 0 -43 -6 -65 -14z"/>
</g>
</svg>
